<svg width="14" height="15" viewBox="0 0 14 15" fill="none" xmlns="http://www.w3.org/2000/svg">
<path fill-rule="evenodd" clip-rule="evenodd" d="M8.27539 7H11.3937V10.5969H8.27632L8.27539 7Z" stroke="black"/>
<path d="M3.5984 0.404297V2.8026M1 4.00122H13.4731V12.5197C13.4731 12.8053 13.3747 13.0792 13.1997 13.2812C13.0247 13.4831 12.7873 13.5966 12.5397 13.5966H1.93333C1.6858 13.5966 1.4484 13.4831 1.27337 13.2812C1.09833 13.0792 1 12.8053 1 12.5197V4.00122ZM1.93333 1.60399H12.5397C12.7873 1.60399 13.0247 1.71745 13.1997 1.91941C13.3747 2.12138 13.4731 2.39529 13.4731 2.68091V4.00122H1V2.68091C1 2.39529 1.09833 2.12138 1.27337 1.91941C1.4484 1.71745 1.6858 1.60399 1.93333 1.60399V1.60399ZM10.8747 0.404297V2.8026V0.404297Z" stroke="black"/>
<path d="M5.15808 9.39831H6.19688V10.598H5.15808V9.39831ZM3.07861 9.39831H4.11835V10.598H3.07861V9.39831ZM3.07861 7H4.11835V8.19969H3.07861V7ZM5.15808 7H6.19688V8.19969H5.15808V7Z" fill="black"/>
</svg>
