<svg width="14" height="15" viewBox="0 0 14 15" fill="none" xmlns="http://www.w3.org/2000/svg">
<path fill-rule="evenodd" clip-rule="evenodd" d="M9.76562 6.1084C8.83737 6.1084 7.94713 6.50173 7.29075 7.20187C6.63437 7.902 6.26563 8.85159 6.26562 9.84173C6.26563 10.8319 6.63437 11.7815 7.29075 12.4816C7.94713 13.1817 8.83737 13.5751 9.76562 13.5751C10.6939 13.5751 11.5841 13.1817 12.2405 12.4816C12.8969 11.7815 13.2656 10.8319 13.2656 9.84173C13.2656 8.85159 12.8969 7.902 12.2405 7.20187C11.5841 6.50173 10.6939 6.1084 9.76562 6.1084V6.1084Z" stroke="black"/>
<path d="M4.9375 7.95814H6.6875M6.15638 10.7581H1.875C1.64294 10.7581 1.42038 10.6598 1.25628 10.4848C1.09219 10.3097 1 10.0723 1 9.8248V2.35814C1 2.1106 1.09219 1.87321 1.25628 1.69817C1.42038 1.52314 1.64294 1.4248 1.875 1.4248H11.5C11.7321 1.4248 11.9546 1.52314 12.1187 1.69817C12.2828 1.87321 12.375 2.1106 12.375 2.35814V7.3916L6.15638 10.7581ZM1 3.29147H12.375H1ZM3.1875 6.09147H4.0625H3.1875ZM3.1875 7.95814H4.0625H3.1875ZM4.9375 6.09147H10.1875H4.9375Z" stroke="black"/>
<path d="M9.76562 7.50781V9.84115H11.0781" stroke="black"/>
</svg>
