<svg width="30" height="21" viewBox="0 0 30 21" fill="none" xmlns="http://www.w3.org/2000/svg">
<path fill-rule="evenodd" clip-rule="evenodd" d="M26.2112 1.01571C27.4262 1.34283 28.3842 2.30081 28.7113 3.51582C29.3188 5.73555 29.2955 10.3619 29.2955 10.3619C29.2955 10.3619 29.2955 14.9649 28.7113 17.1847C28.3842 18.3997 27.4262 19.3577 26.2112 19.6848C23.9915 20.2689 15.1126 20.2689 15.1126 20.2689C15.1126 20.2689 6.25703 20.2689 4.01394 19.6614C2.79893 19.3343 1.84094 18.3763 1.51383 17.1613C0.929688 14.9649 0.929688 10.3386 0.929688 10.3386C0.929688 10.3386 0.929688 5.73555 1.51383 3.51582C1.84094 2.30081 2.8223 1.31946 4.01394 0.992342C6.23367 0.408203 15.1126 0.408203 15.1126 0.408203C15.1126 0.408203 23.9915 0.408203 26.2112 1.01571ZM19.6682 10.339L12.2846 14.5915V6.08646L19.6682 10.339Z" fill="white"/>
</svg>
