<svg width="14" height="15" viewBox="0 0 14 15" fill="none" xmlns="http://www.w3.org/2000/svg">
<path d="M9.43513 13.4287V12.1127C9.43513 11.414 9.20964 10.744 8.80826 10.25C8.40689 9.75604 7.8625 9.47852 7.29488 9.47852H3.01525C2.44762 9.47852 1.90324 9.75604 1.50186 10.25C1.10049 10.744 0.875 11.414 0.875 12.1127L0.875 13.4287" stroke="black" stroke-width="1.4" stroke-linecap="round" stroke-linejoin="round"/>
<path d="M5.15441 6.84546C6.33644 6.84546 7.29466 5.66611 7.29466 4.2113C7.29466 2.7565 6.33644 1.57715 5.15441 1.57715C3.97238 1.57715 3.01416 2.7565 3.01416 4.2113C3.01416 5.66611 3.97238 6.84546 5.15441 6.84546Z" stroke="black" stroke-width="1.4" stroke-linecap="round" stroke-linejoin="round"/>
<path d="M8.89941 1.66309C9.35935 1.80858 9.76691 2.13822 10.0579 2.60009C10.3489 3.06196 10.5069 3.62984 10.5069 4.21432C10.5069 4.79879 10.3489 5.36667 10.0579 5.82854C9.76691 6.29042 9.35935 6.62005 8.89941 6.76555M12.6444 13.4285V12.1125C12.6442 11.5288 12.4865 10.9618 12.196 10.5004C11.9055 10.039 11.4988 9.70943 11.0397 9.56339L12.6444 13.4285Z" stroke="black" stroke-width="1.4" stroke-linecap="round" stroke-linejoin="round"/>
</svg>
