<svg width="32" height="24" viewBox="0 0 32 24" fill="none" xmlns="http://www.w3.org/2000/svg">
<path d="M9.89969 13.313C9.90827 13.2061 9.93114 13.1008 9.9677 13H6.2767L8.1367 7.8L9.97769 12.948C10.0523 12.6773 10.2131 12.4383 10.4358 12.2672C10.6585 12.0961 10.9309 12.0023 11.2117 12H11.6377L9.13769 5H7.1377L2.1377 19H4.1377L5.5677 15H9.89969V13.313ZM12.5507 20.04C12.0839 19.475 11.8497 18.7535 11.8957 18.022V15.312C11.8953 15.1396 11.929 14.9688 11.9948 14.8095C12.0606 14.6501 12.1572 14.5053 12.2791 14.3834C12.401 14.2615 12.5458 14.1649 12.7051 14.0991C12.8645 14.0333 13.0353 13.9996 13.2077 14H16.3207C17.1038 14.0908 17.8209 14.4824 18.3207 15.092C18.3207 15.092 20.0487 16.91 21.2847 18.02C21.4325 18.1258 21.5579 18.2598 21.6539 18.4141C21.7498 18.5685 21.8144 18.7402 21.844 18.9196C21.8735 19.0989 21.8674 19.2823 21.826 19.4593C21.7846 19.6363 21.7087 19.8034 21.6027 19.951C21.5467 20.0288 21.483 20.1008 21.4127 20.166L18.0657 23.476C17.8568 23.753 17.5466 23.9357 17.2031 23.9841C16.8596 24.0325 16.5109 23.9425 16.2337 23.734C16.1359 23.661 16.049 23.5745 15.9757 23.477L14.2657 21.749L12.5507 20.04ZM15.0307 16.08C14.826 16.0811 14.6301 16.1632 14.486 16.3085C14.3418 16.4538 14.2612 16.6503 14.2617 16.855C14.2622 17.0597 14.3439 17.2558 14.4888 17.4003C14.6337 17.5448 14.83 17.626 15.0347 17.626C15.2394 17.626 15.4357 17.5448 15.5806 17.4003C15.7255 17.2558 15.8072 17.0597 15.8077 16.855C15.8082 16.6503 15.7276 16.4538 15.5834 16.3085C15.4392 16.1632 15.2434 16.0811 15.0387 16.08H15.0307Z" fill="black"/>
<path d="M28 14.5L32 9.5H24L28 14.5Z" fill="black"/>
</svg>
