<svg width="24" height="24" viewBox="0 0 24 24" fill="none" xmlns="http://www.w3.org/2000/svg">
<path d="M7.68164 4.99956C6.7419 4.98436 5.82533 5.2917 5.08472 5.87036C4.3441 6.44902 3.82419 7.26404 3.61164 8.17956C3.39752 9.21854 3.60488 10.3 4.18811 11.1861C4.77135 12.0722 5.68268 12.6904 6.72164 12.9046L6.74864 12.9096C7.01786 12.9695 7.29284 12.9997 7.56864 12.9996V18.9996H9.56865V6.99956H11.5686V18.9996H13.5686V6.99956H15.5686V4.99956H7.68164ZM5.53164 8.99956C5.53164 8.46913 5.74236 7.96042 6.11743 7.58535C6.4925 7.21028 7.00121 6.99956 7.53164 6.99956V10.9996C7.00121 10.9996 6.4925 10.7888 6.11743 10.4138C5.74236 10.0387 5.53164 9.52999 5.53164 8.99956ZM20.4716 17.4906C20.4716 17.7872 20.3837 18.0772 20.2188 18.3239C20.054 18.5706 19.8198 18.7628 19.5457 18.8764C19.2716 18.9899 18.97 19.0196 18.679 18.9617C18.388 18.9039 18.1208 18.761 17.911 18.5512C17.7012 18.3414 17.5583 18.0742 17.5005 17.7832C17.4426 17.4922 17.4723 17.1906 17.5858 16.9165C17.6994 16.6424 17.8916 16.4082 18.1383 16.2434C18.385 16.0785 18.675 15.9906 18.9716 15.9906C19.3695 15.9906 19.751 16.1486 20.0323 16.4299C20.3136 16.7112 20.4716 17.0927 20.4716 17.4906ZM20.4716 13.4906C20.4716 13.7872 20.3837 14.0772 20.2188 14.3239C20.054 14.5706 19.8198 14.7628 19.5457 14.8764C19.2716 14.9899 18.97 15.0196 18.679 14.9617C18.388 14.9039 18.1208 14.761 17.911 14.5512C17.7012 14.3414 17.5583 14.0742 17.5005 13.7832C17.4426 13.4922 17.4723 13.1906 17.5858 12.9165C17.6994 12.6424 17.8916 12.4082 18.1383 12.2434C18.385 12.0785 18.675 11.9906 18.9716 11.9906C19.3695 11.9906 19.751 12.1486 20.0323 12.4299C20.3136 12.7112 20.4716 13.0927 20.4716 13.4906ZM20.4716 9.49056C20.4716 9.78723 20.3837 10.0772 20.2188 10.3239C20.054 10.5706 19.8198 10.7628 19.5457 10.8764C19.2716 10.9899 18.97 11.0196 18.679 10.9617C18.388 10.9039 18.1208 10.761 17.911 10.5512C17.7012 10.3414 17.5583 10.0742 17.5005 9.7832C17.4426 9.49222 17.4723 9.19063 17.5858 8.91654C17.6994 8.64245 17.8916 8.40818 18.1383 8.24336C18.385 8.07853 18.675 7.99056 18.9716 7.99056C19.3695 7.99056 19.751 8.1486 20.0323 8.4299C20.3136 8.71121 20.4716 9.09274 20.4716 9.49056Z" fill="black"/>
</svg>
