<svg width="24" height="24" viewBox="0 0 24 24" fill="none" xmlns="http://www.w3.org/2000/svg">
<path d="M13.5498 19H15.5498L10.5498 5H8.5498L3.5498 19H5.5498L6.9498 15H12.0498L13.5498 19ZM7.64981 13L9.5498 7.8L11.4498 13H7.64981ZM20.4498 17.5C20.4498 17.7967 20.3618 18.0867 20.197 18.3334C20.0322 18.58 19.7979 18.7723 19.5238 18.8858C19.2497 18.9993 18.9481 19.0291 18.6572 18.9712C18.3662 18.9133 18.0989 18.7704 17.8891 18.5607C17.6794 18.3509 17.5365 18.0836 17.4786 17.7926C17.4207 17.5017 17.4505 17.2001 17.564 16.926C17.6775 16.6519 17.8698 16.4176 18.1164 16.2528C18.3631 16.088 18.6531 16 18.9498 16C19.3476 16 19.7292 16.158 20.0105 16.4393C20.2918 16.7206 20.4498 17.1022 20.4498 17.5ZM20.4498 13.5C20.4498 13.7967 20.3618 14.0867 20.197 14.3334C20.0322 14.58 19.7979 14.7723 19.5238 14.8858C19.2497 14.9994 18.9481 15.0291 18.6572 14.9712C18.3662 14.9133 18.0989 14.7704 17.8891 14.5607C17.6794 14.3509 17.5365 14.0836 17.4786 13.7926C17.4207 13.5017 17.4505 13.2001 17.564 12.926C17.6775 12.6519 17.8698 12.4176 18.1164 12.2528C18.3631 12.088 18.6531 12 18.9498 12C19.3476 12 19.7292 12.158 20.0105 12.4393C20.2918 12.7206 20.4498 13.1022 20.4498 13.5ZM20.4498 9.5C20.4498 9.79667 20.3618 10.0867 20.197 10.3334C20.0322 10.58 19.7979 10.7723 19.5238 10.8858C19.2497 10.9994 18.9481 11.0291 18.6572 10.9712C18.3662 10.9133 18.0989 10.7704 17.8891 10.5607C17.6794 10.3509 17.5365 10.0836 17.4786 9.79264C17.4207 9.50166 17.4505 9.20006 17.564 8.92597C17.6775 8.65189 17.8698 8.41762 18.1164 8.2528C18.3631 8.08797 18.6531 8 18.9498 8C19.3476 8 19.7292 8.15804 20.0105 8.43934C20.2918 8.72064 20.4498 9.10218 20.4498 9.5Z" fill="black"/>
</svg>
