<svg width="40" height="41" viewBox="0 0 40 41" fill="none" xmlns="http://www.w3.org/2000/svg">
<path d="M18 14.5H22V10.5H18V14.5ZM20 36.5C11.18 36.5 4 29.32 4 20.5C4 11.68 11.18 4.5 20 4.5C28.82 4.5 36 11.68 36 20.5C36 29.32 28.82 36.5 20 36.5ZM20 0.5C17.3736 0.5 14.7728 1.01732 12.3463 2.02241C9.91982 3.0275 7.71504 4.50069 5.85786 6.35786C2.10714 10.1086 0 15.1957 0 20.5C0 25.8043 2.10714 30.8914 5.85786 34.6421C7.71504 36.4993 9.91982 37.9725 12.3463 38.9776C14.7728 39.9827 17.3736 40.5 20 40.5C25.3043 40.5 30.3914 38.3929 34.1421 34.6421C37.8929 30.8914 40 25.8043 40 20.5C40 17.8736 39.4827 15.2728 38.4776 12.8463C37.4725 10.4198 35.9993 8.21504 34.1421 6.35786C32.285 4.50069 30.0802 3.0275 27.6537 2.02241C25.2272 1.01732 22.6264 0.5 20 0.5ZM18 30.5H22V18.5H18V30.5Z" fill="white"/>
</svg>
