<svg width="24" height="24" viewBox="0 0 24 24" fill="none" xmlns="http://www.w3.org/2000/svg">
<path fill-rule="evenodd" clip-rule="evenodd" d="M11.9998 8.49975C12.2558 8.49975 12.5118 8.59775 12.7068 8.79275L16.7068 12.7927C17.0978 13.1838 17.0978 13.8158 16.7068 14.2067C16.3157 14.5977 15.6838 14.5977 15.2928 14.2067L11.9878 10.9017L8.69475 14.0817C8.29575 14.4647 7.66475 14.4537 7.28075 14.0567C6.89675 13.6597 6.90775 13.0257 7.30475 12.6427L11.3048 8.78075C11.4998 8.59275 11.7498 8.49975 11.9998 8.49975Z" fill="#4F4F4F"/>
<mask id="mask0" mask-type="alpha" maskUnits="userSpaceOnUse" x="7" y="8" width="11" height="7">
<path fill-rule="evenodd" clip-rule="evenodd" d="M11.9998 8.49975C12.2558 8.49975 12.5118 8.59775 12.7068 8.79275L16.7068 12.7927C17.0978 13.1838 17.0978 13.8158 16.7068 14.2067C16.3157 14.5977 15.6838 14.5977 15.2928 14.2067L11.9878 10.9017L8.69475 14.0817C8.29575 14.4647 7.66475 14.4537 7.28075 14.0567C6.89675 13.6597 6.90775 13.0257 7.30475 12.6427L11.3048 8.78075C11.4998 8.59275 11.7498 8.49975 11.9998 8.49975Z" fill="white"/>
</mask>
<g mask="url(#mask0)">
</g>
</svg>
