<svg width="24" height="24" viewBox="0 0 24 24" fill="none" xmlns="http://www.w3.org/2000/svg">
<path d="M11.5 22C12.61 22 13.5 21.11 13.5 20H9.5C9.5 20.5304 9.71071 21.0391 10.0858 21.4142C10.4609 21.7893 10.9696 22 11.5 22ZM18 12H17.5C17 12 16.5 11.92 16 11.79V17H7V10.5C7 8 9 6 11.5 6C11.68 6 11.85 6.03 12 6.05C12.1 5.06 12.45 4.14 13 3.37C12.92 2.6 12.28 2 11.5 2C10.67 2 10 2.67 10 3.5V4.18C7.13 4.86 5 7.43 5 10.5V16L3 18V19H20V18L18 16V12Z" fill="black"/>
<path d="M17.5 10C19.43 10 21 8.43 21 6.5C21 4.57 19.43 3 17.5 3C15.57 3 14 4.57 14 6.5C14 8.43 15.57 10 17.5 10Z" fill="#F39325"/>
</svg>
