<svg width="24" height="24" viewBox="0 0 24 24" fill="none" xmlns="http://www.w3.org/2000/svg">
<path d="M3 12.2028H21V13.7028H16.6342C16.8711 14.2 16.9906 14.745 16.9836 15.2957C16.9977 15.8182 16.8855 16.3364 16.6567 16.8063C16.428 17.2763 16.0893 17.6842 15.6694 17.9954C14.6579 18.7071 13.4378 19.0606 12.2025 18.9999C11.3 19.006 10.4062 18.8223 9.57916 18.4609C8.82387 18.1475 8.16917 17.6328 7.68652 16.9727C7.24212 16.3425 7.00762 15.5883 7.01636 14.8172V14.7039H7.30359V14.7028H7.64508V14.7039H9.02V14.8172C9.00433 15.1686 9.07382 15.5186 9.22253 15.8373C9.37125 16.1561 9.59479 16.4341 9.87413 16.6479C10.5515 17.1302 11.372 17.3696 12.2025 17.3272C12.9356 17.3751 13.6645 17.1834 14.2792 16.781C14.507 16.6125 14.6901 16.3907 14.8124 16.135C14.9346 15.8793 14.9923 15.5976 14.9804 15.3144C14.9964 15.0408 14.9459 14.7675 14.8332 14.5177C14.7205 14.2679 14.5491 14.0491 14.3335 13.88C14.2451 13.816 14.1533 13.7568 14.0585 13.7028H3V12.2028ZM16.3447 7.05968C15.9232 6.40469 15.3271 5.88046 14.6236 5.54607C13.8394 5.17248 12.9793 4.98553 12.1107 4.99987C10.8996 4.94789 9.70883 5.32391 8.74719 6.062C8.33435 6.38084 8.00134 6.79135 7.77448 7.26107C7.54762 7.73078 7.43313 8.24683 7.44006 8.76842C7.43656 9.26271 7.54659 9.75121 7.76166 10.1963H10.3583C10.275 10.1426 10.173 10.0905 10.1056 10.0356C9.90219 9.88555 9.73702 9.68956 9.62358 9.4636C9.51014 9.23765 9.45164 8.98811 9.45282 8.73528C9.43773 8.44667 9.49242 8.15867 9.61226 7.89568C9.73209 7.63269 9.91354 7.40246 10.1412 7.22448C10.7173 6.82494 11.4109 6.6304 12.1107 6.67205C12.8717 6.62367 13.6231 6.86226 14.2167 7.34075C14.465 7.57454 14.6594 7.85955 14.7865 8.176C14.9136 8.49245 14.9703 8.83276 14.9527 9.17333V9.28674H16.9559V9.17333C16.9592 8.42472 16.7471 7.69097 16.3447 7.05968Z" fill="black"/>
</svg>
