<svg width="14" height="14" viewBox="0 0 14 14" fill="none" xmlns="http://www.w3.org/2000/svg">
<path fill-rule="evenodd" clip-rule="evenodd" d="M8.39977 7.5H5.59511L3.72844 9V7.5H1.86644C1.35124 7.5 0.933105 7.052 0.933105 6.5V1.5C0.933105 0.948 1.35124 0.5 1.86644 0.5H8.39977C8.91497 0.5 9.33311 0.948 9.33311 1.5V6.5C9.33311 7.052 8.91497 7.5 8.39977 7.5Z" stroke="black"/>
<path d="M6.06641 10.5H8.40441L10.2711 12V10.5H12.1331C12.6483 10.5 13.0664 10.052 13.0664 9.5V4.5C13.0664 3.948 12.6483 3.5 12.1331 3.5H10.7331" stroke="black"/>
<path d="M5.17902 9.70898L4.42676 10.313C4.67689 10.726 5.10809 11 5.59996 11H6.06662V9.99998H5.59996C5.41236 9.99998 5.25369 9.87998 5.17902 9.70898Z" fill="black"/>
<path d="M10.733 7.5H11.6663M2.33301 2.5H7.93301H2.33301ZM2.33301 4.5H6.06634H2.33301ZM10.733 5.5H11.6663H10.733Z" stroke="black"/>
</svg>
