<svg width="18" height="18" viewBox="0 0 18 18" fill="none" xmlns="http://www.w3.org/2000/svg">
<path d="M9 0C13.9626 0 18 4.03746 18 9.00006C18 13.9627 13.9626 18 9 18C4.0374 18 0 13.9627 0 9.00006C0 4.03746 4.0374 0 9 0ZM13.3778 4.95C13.0964 4.95 12.8299 5.06037 12.6309 5.25938L7.39041 10.4999L5.40287 8.51233C5.2039 8.31331 4.93742 8.20292 4.65596 8.20292C4.37449 8.20292 4.10802 8.31331 3.90902 8.51237C3.49699 8.92444 3.49699 9.59406 3.90904 10.0062L6.6435 12.7406C6.84251 12.9396 7.10896 13.05 7.39041 13.05C7.67188 13.05 7.93833 12.9396 8.13735 12.7406L14.1247 6.75322C14.3238 6.55422 14.4342 6.28773 14.4342 6.00632C14.4342 5.7249 14.3237 5.45838 14.1247 5.25938C13.9258 5.06037 13.6593 4.95 13.3778 4.95V4.95Z" fill="#F39325"/>
</svg>
