<svg width="16" height="17" viewBox="0 0 16 17" fill="none" xmlns="http://www.w3.org/2000/svg">
<path d="M5.33333 11.833V9.83301H10V7.16634H5.33333V5.16634L2 8.49967L5.33333 11.833ZM6.66667 1.83301C6.31304 1.83301 5.97391 1.97348 5.72386 2.22353C5.47381 2.47358 5.33333 2.81272 5.33333 3.16634V4.49967H6.66667V3.16634H12.6667V13.833H6.66667V12.4997H5.33333V13.833C5.33333 14.1866 5.47381 14.5258 5.72386 14.7758C5.97391 15.0259 6.31304 15.1663 6.66667 15.1663H12.6667C13.0203 15.1663 13.3594 15.0259 13.6095 14.7758C13.8595 14.5258 14 14.1866 14 13.833V3.16634C14 2.81272 13.8595 2.47358 13.6095 2.22353C13.3594 1.97348 13.0203 1.83301 12.6667 1.83301H6.66667Z" fill="white"/>
</svg>
