<svg width="14" height="15" viewBox="0 0 14 15" fill="none" xmlns="http://www.w3.org/2000/svg">
<path d="M13.4621 6.96219V7.50019C13.4621 9.21401 12.7813 10.8576 11.5694 12.0695C10.3576 13.2814 8.71392 13.9622 7.00009 13.9622C5.28626 13.9622 3.64262 13.2814 2.43076 12.0695C1.2189 10.8576 0.538087 9.21401 0.538087 7.50019C0.5372 6.07711 1.00617 4.69355 1.87219 3.56431C2.7382 2.43508 3.95281 1.62335 5.32744 1.25516C6.70206 0.886964 8.15979 0.982907 9.47429 1.52809C10.7888 2.07327 11.8865 3.03719 12.5971 4.27019" stroke="black" stroke-width="1.077"/>
<path d="M4.30811 7.5003H7.00011V2.6543" stroke="black" stroke-width="1.077"/>
<path d="M13.9999 1V4.808H10.1919L13.9999 1Z" fill="black"/>
</svg>
