<svg width="14" height="15" viewBox="0 0 14 15" fill="none" xmlns="http://www.w3.org/2000/svg">
<path fill-rule="evenodd" clip-rule="evenodd" d="M7 1.02637C6.17157 1.02637 5.5 1.73329 5.5 2.60531C5.5 3.47734 6.17157 4.18426 7 4.18426C7.82843 4.18426 8.5 3.47734 8.5 2.60531C8.5 1.73329 7.82843 1.02637 7 1.02637ZM3 3.13163C2.17157 3.13163 1.5 3.83855 1.5 4.71058C1.5 5.58261 2.17157 6.28953 3 6.28953C3.82843 6.28953 4.5 5.58261 4.5 4.71058C4.5 3.83855 3.82843 3.13163 3 3.13163ZM11 3.13163C10.1716 3.13163 9.5 3.83855 9.5 4.71058C9.5 5.58261 10.1716 6.28953 11 6.28953C11.8284 6.28953 12.5 5.58261 12.5 4.71058C12.5 3.83855 11.8284 3.13163 11 3.13163Z" stroke="black" stroke-width="1.42857"/>
<path d="M13.5 8.92141C13.5 7.46773 12.381 6.28983 11 6.28983C10.437 6.28983 9.918 6.48562 9.5 6.81615C9.5 5.36246 8.381 4.18457 7 4.18457C5.619 4.18457 4.5 5.36246 4.5 6.81615C4.082 6.48562 3.563 6.28983 3 6.28983C1.619 6.28983 0.5 7.46773 0.5 8.92141" stroke="black" stroke-width="1.42857"/>
<path d="M1.5 14.184C1.5 12.7303 2.619 11.5524 4 11.5524C5.381 11.5524 6.5 12.7303 6.5 14.184M10 8.39453C9.17157 8.39453 8.5 9.10145 8.5 9.97348C8.5 10.8455 9.17157 11.5524 10 11.5524C10.8284 11.5524 11.5 10.8455 11.5 9.97348C11.5 9.10145 10.8284 8.39453 10 8.39453ZM7.5 14.184C7.5 12.7303 8.619 11.5524 10 11.5524C11.381 11.5524 12.5 12.7303 12.5 14.184H7.5ZM4 8.39453C3.17157 8.39453 2.5 9.10145 2.5 9.97348C2.5 10.8455 3.17157 11.5524 4 11.5524C4.82843 11.5524 5.5 10.8455 5.5 9.97348C5.5 9.10145 4.82843 8.39453 4 8.39453Z" stroke="black" stroke-width="1.42857"/>
</svg>
