<svg width="16" height="14" viewBox="0 0 16 14" fill="none" xmlns="http://www.w3.org/2000/svg">
<path fill-rule="evenodd" clip-rule="evenodd" d="M14.6667 0.799805H1.33333C0.597219 0.799805 0 1.39703 0 2.13314V11.9109C0 12.647 0.597222 13.2442 1.33333 13.2442H14.6667C15.4028 13.2442 16 12.647 16 11.9109V2.13314C16 1.39703 15.4028 0.799805 14.6667 0.799805ZM1.33333 1.68869H14.6667C14.9111 1.68869 15.1111 1.88869 15.1111 2.13314V3.46647H0.888888V2.13314C0.888888 1.88869 1.08889 1.68869 1.33333 1.68869ZM14.6667 12.3554H1.33333C1.08889 12.3554 0.888888 12.1554 0.888888 11.9109V6.13314H15.1111V11.9109C15.1111 12.1554 14.9111 12.3554 14.6667 12.3554ZM5.33333 10.022V10.2442C5.33333 10.4276 5.18333 10.5776 5 10.5776H3C2.81667 10.5776 2.66667 10.4276 2.66667 10.2442V10.022C2.66667 9.83869 2.81667 9.68869 3 9.68869H5C5.18333 9.68869 5.33333 9.83869 5.33333 10.022ZM10.6667 10.022V10.2442C10.6667 10.4276 10.5167 10.5776 10.3333 10.5776H6.55555C6.37222 10.5776 6.22222 10.4276 6.22222 10.2442V10.022C6.22222 9.83869 6.37222 9.68869 6.55556 9.68869H10.3333C10.5167 9.68869 10.6667 9.83869 10.6667 10.022Z" fill="black"/>
</svg>
