<svg width="16" height="16" viewBox="0 0 16 16" fill="none" xmlns="http://www.w3.org/2000/svg">
<path fill-rule="evenodd" clip-rule="evenodd" d="M15.4121 1.75812L14.24 0.585938C13.8496 0.195312 13.3378 0 12.8259 0C12.314 0 11.8021 0.195312 11.4115 0.585625L0.399641 11.5975L0.00276557 15.1669C-0.0472344 15.6163 0.306828 16 0.746516 16C0.774328 16 0.802141 15.9984 0.830578 15.9953L4.39745 15.6012L15.4125 4.58625C16.1934 3.80531 16.1934 2.53906 15.4121 1.75812ZM3.93839 14.6462L1.0312 14.9684L1.35495 12.0569L9.60152 3.81031L12.1881 6.39687L3.93839 14.6462ZM14.7053 3.87937L12.895 5.68969L10.3084 3.10313L12.1187 1.29281C12.3075 1.10406 12.5587 1 12.8259 1C13.0931 1 13.344 1.10406 13.5331 1.29281L14.7053 2.465C15.095 2.855 15.095 3.48938 14.7053 3.87937Z" fill="black"/>
</svg>
