<svg width="24" height="24" viewBox="0 0 24 24" fill="none" xmlns="http://www.w3.org/2000/svg">
<path fill-rule="evenodd" clip-rule="evenodd" d="M10.4998 17.0002C10.2438 17.0002 9.98776 16.9022 9.79276 16.7072C9.40176 16.3162 9.40176 15.6842 9.79276 15.2932L13.0978 11.9882L9.91776 8.69525C9.53476 8.29725 9.54576 7.66425 9.94276 7.28125C10.3408 6.89825 10.9738 6.90925 11.3568 7.30525L15.2188 11.3052C15.5978 11.6982 15.5928 12.3212 15.2068 12.7072L11.2068 16.7072C11.0118 16.9022 10.7558 17.0002 10.4998 17.0002Z" fill="#223345"/>
<mask id="mask0" mask-type="alpha" maskUnits="userSpaceOnUse" x="9" y="7" width="7" height="11">
<path fill-rule="evenodd" clip-rule="evenodd" d="M10.4998 17.0002C10.2438 17.0002 9.98776 16.9022 9.79276 16.7072C9.40176 16.3162 9.40176 15.6842 9.79276 15.2932L13.0978 11.9882L9.91776 8.69525C9.53476 8.29725 9.54576 7.66425 9.94276 7.28125C10.3408 6.89825 10.9738 6.90925 11.3568 7.30525L15.2188 11.3052C15.5978 11.6982 15.5928 12.3212 15.2068 12.7072L11.2068 16.7072C11.0118 16.9022 10.7558 17.0002 10.4998 17.0002Z" fill="white"/>
</mask>
<g mask="url(#mask0)">
</g>
</svg>
