<svg width="18" height="18" viewBox="0 0 18 18" fill="none" xmlns="http://www.w3.org/2000/svg">
<g clip-path="url(#clip0)">
<path fill-rule="evenodd" clip-rule="evenodd" d="M16.5772 6.71934L12.9072 8.51164L9.04504 4.07011L5.18288 8.51164L1.40681 6.66752L3.73507 14.1956H14.2649L16.5772 6.71934ZM1.02642 5.22974L4.90057 7.12178L8.50447 2.97731C8.68465 2.79714 8.86486 2.70703 9.04504 2.70703C9.22525 2.70703 9.40542 2.79714 9.58563 2.97731L13.1895 7.12178L17.0637 5.22974C17.2439 5.13967 17.6043 5.13967 17.7845 5.31984C17.9647 5.50005 18.0547 5.77034 17.9647 6.04062L15.2618 14.78C15.1716 15.1404 14.9014 15.3206 14.631 15.3206H3.36892C3.09864 15.3206 2.82836 15.1404 2.73825 14.78L0.0353337 6.04062C-0.0547366 5.77034 0.0353337 5.50005 0.215545 5.31984C0.485826 5.13967 0.756142 5.13967 1.02642 5.22974Z" fill="white"/>
</g>
<defs>
<clipPath id="clip0">
<rect width="18" height="18" fill="white"/>
</clipPath>
</defs>
</svg>
