<svg width="14" height="15" viewBox="0 0 14 15" fill="none" xmlns="http://www.w3.org/2000/svg">
<path fill-rule="evenodd" clip-rule="evenodd" d="M12.4998 7.5C12.4998 6.937 12.4148 6.394 12.2578 5.883L13.1368 5.129L12.1218 3.371L11.0228 3.758C10.2746 2.95198 9.30158 2.38933 8.22979 2.143L8.01479 1H5.98479L5.77079 2.143C4.69901 2.38933 3.72595 2.95198 2.97779 3.758L1.87779 3.371L0.862793 5.129L1.74179 5.883C1.41758 6.93662 1.41758 8.06338 1.74179 9.117L0.862793 9.871L1.87779 11.629L2.97679 11.242C3.72495 12.048 4.69801 12.6107 5.76979 12.857L5.98479 14H8.01479L8.22879 12.857C9.30058 12.6107 10.2736 12.048 11.0218 11.242L12.1208 11.629L13.1358 9.871L12.2568 9.117C12.4184 8.59324 12.5003 8.04814 12.4998 7.5V7.5ZM6.99979 10C6.33675 10 5.70087 9.73661 5.23203 9.26777C4.76319 8.79893 4.49979 8.16304 4.49979 7.5C4.49979 6.83696 4.76319 6.20107 5.23203 5.73223C5.70087 5.26339 6.33675 5 6.99979 5C7.66283 5 8.29872 5.26339 8.76756 5.73223C9.2364 6.20107 9.49979 6.83696 9.49979 7.5C9.49979 8.16304 9.2364 8.79893 8.76756 9.26777C8.29872 9.73661 7.66283 10 6.99979 10V10Z" stroke="black"/>
</svg>
