<svg width="15" height="14" viewBox="0 0 15 14" fill="none" xmlns="http://www.w3.org/2000/svg">
<path fill-rule="evenodd" clip-rule="evenodd" d="M7.462 0.538086C5.74817 0.538086 4.10454 1.2189 2.89268 2.43076C1.68082 3.64262 1 5.28626 1 7.00009C1 8.71391 1.68082 10.3576 2.89268 11.5694C4.10454 12.7813 5.74817 13.4621 7.462 13.4621C9.17583 13.4621 10.8195 12.7813 12.0313 11.5694C13.2432 10.3576 13.924 8.71391 13.924 7.00009C13.924 5.28626 13.2432 3.64262 12.0313 2.43076C10.8195 1.2189 9.17583 0.538086 7.462 0.538086V0.538086Z" stroke="black" stroke-width="1.077"/>
<path d="M3.17188 11.9825C3.27239 10.9144 3.76774 9.9222 4.56105 9.19995C5.35437 8.4777 6.38858 8.07736 7.46142 8.07724C8.53426 8.07711 9.56857 8.4772 10.362 9.19927C11.1555 9.92133 11.6511 10.9134 11.7519 11.9815M7.46187 3.77053C7.17517 3.76435 6.89011 3.81549 6.62343 3.92093C6.35675 4.02638 6.11381 4.18402 5.90886 4.3846C5.7039 4.58519 5.54107 4.82467 5.4299 5.08902C5.31873 5.35337 5.26147 5.63726 5.26147 5.92403C5.26147 6.2108 5.31873 6.49469 5.4299 6.75904C5.54107 7.02339 5.7039 7.26288 5.90886 7.46346C6.11381 7.66404 6.35675 7.82168 6.62343 7.92713C6.89011 8.03258 7.17517 8.08371 7.46187 8.07753C8.03315 8.07753 8.58103 7.85059 8.98498 7.44664C9.38894 7.04269 9.61588 6.49481 9.61588 5.92353C9.61588 5.35225 9.38894 4.80438 8.98498 4.40042C8.58103 3.99647 8.03315 3.76953 7.46187 3.76953V3.77053Z" stroke="black" stroke-width="1.077"/>
</svg>
