<svg width="108" height="108" viewBox="0 0 108 108" fill="none" xmlns="http://www.w3.org/2000/svg">
<path d="M38.25 60.75L49.5 74.25L65.25 54L85.5 81H22.5L38.25 60.75ZM94.5 85.5V22.5C94.5 20.1131 93.5518 17.8239 91.864 16.136C90.1761 14.4482 87.8869 13.5 85.5 13.5H22.5C20.1131 13.5 17.8239 14.4482 16.136 16.136C14.4482 17.8239 13.5 20.1131 13.5 22.5V85.5C13.5 87.8869 14.4482 90.1761 16.136 91.864C17.8239 93.5518 20.1131 94.5 22.5 94.5H85.5C87.8869 94.5 90.1761 93.5518 91.864 91.864C93.5518 90.1761 94.5 87.8869 94.5 85.5Z" fill="white"/>
</svg>
