<svg width="27" height="26" viewBox="0 0 27 26" fill="none" xmlns="http://www.w3.org/2000/svg">
<path d="M25.9524 7.8819C25.8906 6.5311 25.676 5.60862 25.3623 4.80154C25.0438 3.95477 24.5442 3.18778 23.8987 2.55382C23.2649 1.90824 22.4977 1.40847 21.6509 1.08974C20.8437 0.776245 19.9214 0.56189 18.5706 0.500508C17.2173 0.438544 16.7849 0.423828 13.3385 0.423828C9.89221 0.423828 9.45983 0.438544 8.10651 0.500121C6.75571 0.56189 5.83342 0.776439 5.02615 1.09013C4.17938 1.40866 3.41239 1.90824 2.77843 2.55382C2.13285 3.18759 1.63307 3.95458 1.31435 4.80135C1.00085 5.60862 0.7865 6.5311 0.725117 7.88171C0.663154 9.23522 0.648438 9.66741 0.648438 13.1137C0.648438 16.5603 0.663154 16.9927 0.725117 18.346C0.786693 19.6966 1.00124 20.6191 1.31493 21.4263C1.63346 22.2729 2.13304 23.0401 2.77862 23.6739C3.41239 24.3194 4.17958 24.819 5.02635 25.1375C5.83342 25.4514 6.7559 25.6658 8.1067 25.7276C9.46021 25.7893 9.89241 25.8038 13.3387 25.8038C16.7851 25.8038 17.2175 25.7893 18.5708 25.7276C19.9216 25.6658 20.8439 25.4514 21.6511 25.1375C23.3557 24.4784 24.7032 23.1309 25.3623 21.4263C25.6762 20.6191 25.8906 19.6966 25.9524 18.346C26.0139 16.9925 26.0286 16.5603 26.0286 13.1139C26.0286 9.66741 26.0139 9.23522 25.9524 7.8819ZM23.668 18.242C23.6117 19.4793 23.4049 20.1512 23.2312 20.5983C22.8042 21.7052 21.9296 22.5798 20.8228 23.0068C20.3756 23.1805 19.7037 23.3873 18.4664 23.4436C17.1286 23.5048 16.7272 23.5176 13.3385 23.5176C9.94973 23.5176 9.54851 23.5048 8.21049 23.4436C6.97335 23.3873 6.30144 23.1805 5.85414 23.0068C5.30305 22.8033 4.80444 22.4789 4.39509 22.0574C3.97355 21.648 3.64921 21.1496 3.4457 20.5983C3.27201 20.1512 3.0652 19.4793 3.00886 18.242C2.94786 16.904 2.93489 16.5026 2.93489 13.1141C2.93489 9.7255 2.94786 9.32429 3.00886 7.98607C3.0654 6.74874 3.27201 6.07683 3.4457 5.62972C3.64921 5.07844 3.97374 4.57983 4.39509 4.17048C4.80444 3.74894 5.30305 3.4246 5.85433 3.22128C6.30144 3.0474 6.97335 2.84079 8.21068 2.78425C9.54871 2.72325 9.95011 2.71028 13.3385 2.71028H13.3383C16.7268 2.71028 17.1282 2.72325 18.4664 2.78444C19.7037 2.84079 20.3755 3.04759 20.8228 3.22128C21.3738 3.42479 21.8725 3.74913 22.2818 4.17048C22.7033 4.57983 23.0277 5.07844 23.231 5.62972C23.4049 6.07683 23.6117 6.74874 23.668 7.98607C23.729 9.3241 23.742 9.7255 23.742 13.1139C23.742 16.5026 23.7292 16.9038 23.668 18.242Z" fill="white"/>
<path d="M13.3367 6.59668C9.73782 6.59668 6.82031 9.51438 6.82031 13.1133C6.82031 16.7122 9.73782 19.6297 13.3367 19.6297C16.9358 19.6297 19.8534 16.7122 19.8534 13.1133C19.8534 9.51438 16.9358 6.59668 13.3367 6.59668ZM13.3367 17.3433C11.0007 17.3431 9.10676 15.4493 9.10696 13.1131C9.10696 10.7771 11.0007 8.88313 13.3369 8.88313C15.6731 8.88332 17.5669 10.7771 17.5669 13.1131C17.5669 15.4493 15.6729 17.3433 13.3367 17.3433Z" fill="white"/>
<path d="M21.6355 6.33935C21.6355 7.18031 20.9537 7.8621 20.1128 7.8621C19.2716 7.8621 18.5898 7.18031 18.5898 6.33935C18.5898 5.4982 19.2716 4.81641 20.1128 4.81641C20.9537 4.81641 21.6355 5.4982 21.6355 6.33935Z" fill="white"/>
</svg>
