<svg width="25" height="24" viewBox="0 0 25 24" fill="none" xmlns="http://www.w3.org/2000/svg">
<path d="M9.33301 10V12H7.33301V10H9.33301ZM13.333 10V12H11.333V10H13.333ZM17.333 10V12H15.333V10H17.333ZM19.333 3C19.8634 3 20.3721 3.21071 20.7472 3.58579C21.1223 3.96086 21.333 4.46957 21.333 5V19C21.333 19.5304 21.1223 20.0391 20.7472 20.4142C20.3721 20.7893 19.8634 21 19.333 21H5.33301C4.80257 21 4.29387 20.7893 3.91879 20.4142C3.54372 20.0391 3.33301 19.5304 3.33301 19V5C3.33301 4.46957 3.54372 3.96086 3.91879 3.58579C4.29387 3.21071 4.80257 3 5.33301 3H6.33301V1H8.33301V3H16.333V1H18.333V3H19.333ZM19.333 19V8H5.33301V19H19.333ZM9.33301 14V16H7.33301V14H9.33301ZM13.333 14V16H11.333V14H13.333ZM17.333 14V16H15.333V14H17.333Z" fill="#623D91"/>
</svg>
