<svg width="20" height="14" viewBox="0 0 20 14" fill="none" xmlns="http://www.w3.org/2000/svg">
<path d="M14.5 8H8.5V14H6.5V8H0.5V6H6.5V0H8.5V6H14.5V8ZM19.5 12.5C19.5 12.7967 19.412 13.0867 19.2472 13.3334C19.0824 13.58 18.8481 13.7723 18.574 13.8858C18.2999 13.9993 17.9983 14.0291 17.7074 13.9712C17.4164 13.9133 17.1491 13.7704 16.9393 13.5607C16.7296 13.3509 16.5867 13.0836 16.5288 12.7926C16.4709 12.5017 16.5007 12.2001 16.6142 11.926C16.7277 11.6519 16.92 11.4176 17.1666 11.2528C17.4133 11.088 17.7033 11 18 11C18.3978 11 18.7794 11.158 19.0607 11.4393C19.342 11.7206 19.5 12.1022 19.5 12.5ZM19.5 8.5C19.5 8.79667 19.412 9.08668 19.2472 9.33335C19.0824 9.58003 18.8481 9.77229 18.574 9.88582C18.2999 9.99935 17.9983 10.0291 17.7074 9.97118C17.4164 9.9133 17.1491 9.77044 16.9393 9.56066C16.7296 9.35088 16.5867 9.08361 16.5288 8.79264C16.4709 8.50166 16.5007 8.20006 16.6142 7.92597C16.7277 7.65189 16.92 7.41762 17.1666 7.2528C17.4133 7.08797 17.7033 7 18 7C18.3978 7 18.7794 7.15804 19.0607 7.43934C19.342 7.72064 19.5 8.10218 19.5 8.5ZM19.5 4.5C19.5 4.79667 19.412 5.08668 19.2472 5.33335C19.0824 5.58003 18.8481 5.77229 18.574 5.88582C18.2999 5.99935 17.9983 6.02906 17.7074 5.97118C17.4164 5.9133 17.1491 5.77044 16.9393 5.56066C16.7296 5.35088 16.5867 5.08361 16.5288 4.79264C16.4709 4.50166 16.5007 4.20006 16.6142 3.92597C16.7277 3.65189 16.92 3.41762 17.1666 3.2528C17.4133 3.08797 17.7033 3 18 3C18.3978 3 18.7794 3.15804 19.0607 3.43934C19.342 3.72064 19.5 4.10218 19.5 4.5Z" fill="black"/>
</svg>
