<svg width="120" height="120" viewBox="0 0 120 120" fill="none" xmlns="http://www.w3.org/2000/svg">
<path fill-rule="evenodd" clip-rule="evenodd" d="M15.8665 78.7056L0.0707772 34.7835C-0.156098 34.1439 0.180699 33.4353 0.820309 33.2017C21.5878 25.7324 44.9892 18.7855 64.9934 10.25C65.8873 9.68612 66.5887 10.2432 66.9738 11.3092L91.7918 75.2804L98.531 94.0227C98.7579 94.6623 98.4279 95.3776 97.7883 95.6047L50.298 112.682L31.7859 119.34C31.1463 119.574 30.438 119.237 30.2044 118.598L15.8665 78.7056Z" fill="white"/>
<path fill-rule="evenodd" clip-rule="evenodd" d="M29.0352 64.1312L21.1478 18.1318C21.0308 17.4578 21.4848 16.8182 22.1518 16.7012L76.4706 7.38856L88.9105 5.33895C89.5914 5.04317 90.6985 5.387 90.9596 6.90715L104.397 74.008L107.759 93.6376C107.876 94.3049 107.422 94.9513 106.755 95.0682L57.0163 103.597L37.6241 106.926C36.9571 107.036 36.3107 106.582 36.1937 105.915L29.0352 64.1312Z" fill="white"/>
<path fill-rule="evenodd" clip-rule="evenodd" d="M44.2537 50.5676V94.7925C44.2537 95.501 44.8314 96.0855 45.5397 96.0855H66.0665H96.4546H100.821H118.714C119.423 96.0855 120 95.501 120 94.7925V74.0145V16.6184V16.02H106.935C105.676 16.02 103.063 16.1988 103.063 13.3446L103.035 0.585938H45.5394C44.8312 0.585938 44.2534 1.16367 44.2534 1.87219V12.9113V17.5814V50.5676H44.2537Z" fill="white"/>
<path fill-rule="evenodd" clip-rule="evenodd" d="M22.4543 25.7588C15.0963 28.235 7.80703 30.6903 0.820308 33.2007C0.180699 33.4346 -0.156098 34.1429 0.0707772 34.7825L15.8665 78.7048L30.2044 118.597C30.4383 119.236 31.1466 119.573 31.7859 119.339L50.298 112.681L92.4797 97.5157L22.4543 25.7588Z" fill="#2D2F7B"/>
<path fill-rule="evenodd" clip-rule="evenodd" d="M44.2534 12.9111L22.1518 16.7007C21.4848 16.8177 21.0308 17.4573 21.1478 18.1314L22.4544 25.7589L29.0354 64.1307L36.1939 105.914C36.3109 106.581 36.9573 107.035 37.6243 106.925L57.0165 103.596L92.4796 97.516L100.821 96.0854H96.4543L44.2534 12.9111Z" fill="#D7E7EC"/>
<path fill-rule="evenodd" clip-rule="evenodd" d="M120 74.0145V16.6184V16.02V15.8205C120 15.4491 119.842 15.3872 119.271 14.8301L105.167 1.37695C104.5 0.744141 104.39 0.585938 103.998 0.585938H103.035H45.5394C44.8312 0.585938 44.2534 1.16367 44.2534 1.87219V94.7925C44.2534 95.501 44.8312 96.0855 45.5394 96.0855H118.714C119.422 96.0855 120 95.501 120 94.7925V74.0145Z" fill="#EDF3F4"/>
<path fill-rule="evenodd" clip-rule="evenodd" d="M44.2537 12.9111L39.0757 13.7985V99.5453C39.0757 100.261 39.6534 100.838 40.3617 100.838H60.8885H73.1015L92.4799 97.5163L100.821 96.0857H96.4547H91.084H66.0665H45.5397C44.8315 96.0857 44.2537 95.5011 44.2537 94.7926C44.2537 67.5008 44.2537 40.2025 44.2537 12.9111Z" fill="#2D2F7B"/>
<path fill-rule="evenodd" clip-rule="evenodd" d="M29.0355 64.1307L22.4545 25.7588C20.6735 26.3571 18.8993 26.9555 17.1318 27.5539L17.9503 32.3204L24.5313 70.6922L31.6968 112.475C31.8068 113.142 32.4532 113.596 33.1202 113.487L52.5124 110.158L61.7135 108.583L89.4264 98.6098L89.0964 98.0939L73.1013 100.838L57.0168 103.596L37.6246 106.925C36.9576 107.035 36.3112 106.581 36.1943 105.914L29.0355 64.1307Z" fill="#F39325"/>
<path fill-rule="evenodd" clip-rule="evenodd" d="M120 74.0145V16.6184V16.02C120 15.3253 119.773 15.3185 119.271 14.8301L105.167 1.37695C104.5 0.744141 104.39 0.585938 103.998 0.585938H103.035H88.7246C106.212 23.9984 107.209 66.2011 94.2329 92.5434C93.6345 93.7678 93.0087 94.9439 92.3555 96.0855H96.4541H100.821H118.714C119.422 96.0855 120 95.501 120 94.7925V74.0145Z" fill="#D7E7EC"/>
<path fill-rule="evenodd" clip-rule="evenodd" d="M103.063 13.3446C103.063 16.1988 105.676 16.02 106.934 16.02H120V15.8205C120 15.4491 119.842 15.3872 119.271 14.8301L105.167 1.37695C104.5 0.744141 104.39 0.585938 103.998 0.585938H103.035L103.063 13.3446Z" fill="white"/>
<path fill-rule="evenodd" clip-rule="evenodd" d="M119.271 14.8301L105.167 1.37695C104.5 0.744141 104.39 0.585938 103.998 0.585938H103.035L103.063 13.3444C103.063 16.1986 105.676 16.0198 106.934 16.0198H120V15.8203C120 15.4491 119.842 15.3872 119.271 14.8301Z" fill="#2D2F7B"/>
<path d="M108.378 28.7128H56.6037C55.6037 28.7128 54.793 27.9019 54.793 26.9013C54.793 25.9008 55.6037 25.0898 56.6037 25.0898H108.378C109.378 25.0898 110.189 25.9008 110.189 26.9013C110.189 27.9019 109.378 28.7128 108.378 28.7128Z" fill="#F39325"/>
<path d="M108.378 41.581H56.6037C55.6037 41.581 54.793 40.77 54.793 39.7695C54.793 38.7689 55.6037 37.958 56.6037 37.958H108.378C109.378 37.958 110.189 38.7689 110.189 39.7695C110.189 40.77 109.378 41.581 108.378 41.581Z" fill="#F39325"/>
<path d="M108.378 54.4491H56.6037C55.6037 54.4491 54.793 53.6382 54.793 52.6377C54.793 51.6371 55.6037 50.8262 56.6037 50.8262H108.378C109.378 50.8262 110.189 51.6371 110.189 52.6377C110.189 53.6382 109.378 54.4491 108.378 54.4491Z" fill="#F39325"/>
<path d="M108.378 67.3183H56.6037C55.6037 67.3183 54.793 66.5073 54.793 65.5068C54.793 64.5062 55.6037 63.6953 56.6037 63.6953H108.378C109.378 63.6953 110.189 64.5062 110.189 65.5068C110.189 66.5073 109.378 67.3183 108.378 67.3183Z" fill="#F39325"/>
<path d="M108.378 80.1864H56.6037C55.6037 80.1864 54.793 79.3755 54.793 78.375C54.793 77.3744 55.6037 76.5635 56.6037 76.5635H108.378C109.378 76.5635 110.189 77.3744 110.189 78.375C110.189 79.3755 109.378 80.1864 108.378 80.1864Z" fill="#F39325"/>
</svg>
