<svg width="403" height="181" viewBox="0 0 403 181" fill="none" xmlns="http://www.w3.org/2000/svg">
<g clip-path="url(#clip0)">
<path d="M39.2603 149.144H399.029" stroke="black" stroke-width="0.903106"/>
<path d="M64.9575 154.561V149.143" stroke="black" stroke-width="0.903106"/>
<path d="M63.6955 165.648C62.8141 165.648 62.1422 165.316 61.6798 164.651C61.2246 163.979 60.997 162.997 60.997 161.703C60.997 160.41 61.2246 159.431 61.6798 158.767C62.1422 158.095 62.8141 157.759 63.6955 157.759C64.5769 157.759 65.2452 158.095 65.7004 158.767C66.1628 159.431 66.394 160.407 66.394 161.693C66.394 162.986 66.1628 163.968 65.7004 164.64C65.2452 165.312 64.5769 165.648 63.6955 165.648ZM63.6955 164.9C64.3096 164.9 64.7612 164.64 65.0502 164.12C65.3464 163.6 65.4945 162.791 65.4945 161.693C65.4945 160.602 65.35 159.8 65.061 159.287C64.772 158.774 64.3169 158.517 63.6955 158.517C63.0814 158.517 62.6262 158.774 62.33 159.287C62.041 159.8 61.8965 160.602 61.8965 161.693C61.8965 162.784 62.041 163.593 62.33 164.12C62.6262 164.64 63.0814 164.9 63.6955 164.9Z" fill="black"/>
<path d="M116.353 154.561V149.143" stroke="black" stroke-width="0.903106"/>
<path d="M117.529 164.814V165.562H113.227V164.814H114.928V158.951L113.346 159.959V159.103L115.318 157.845H115.827V164.814H117.529Z" fill="black"/>
<path d="M167.749 154.561V149.143" stroke="black" stroke-width="0.903106"/>
<path d="M169.098 164.814V165.562H164.135V164.89L166.833 161.899C167.195 161.494 167.458 161.129 167.624 160.804C167.791 160.479 167.874 160.154 167.874 159.829C167.874 159.402 167.751 159.077 167.505 158.853C167.26 158.622 166.909 158.506 166.454 158.506C165.717 158.506 164.987 158.803 164.265 159.395L163.929 158.712C164.232 158.423 164.615 158.192 165.078 158.019C165.54 157.845 166.006 157.759 166.476 157.759C167.184 157.759 167.744 157.943 168.155 158.311C168.567 158.673 168.773 159.164 168.773 159.785C168.773 160.226 168.672 160.652 168.47 161.064C168.275 161.469 167.946 161.924 167.484 162.43L165.284 164.814H169.098Z" fill="black"/>
<path d="M219.145 154.561V149.143" stroke="black" stroke-width="0.903106"/>
<path d="M218.945 161.595C219.4 161.725 219.747 161.949 219.985 162.267C220.223 162.585 220.343 162.986 220.343 163.47C220.343 164.142 220.115 164.673 219.66 165.063C219.205 165.446 218.587 165.637 217.807 165.637C217.308 165.637 216.828 165.554 216.365 165.388C215.91 165.222 215.524 164.987 215.206 164.684L215.553 164.001C216.268 164.593 217.012 164.89 217.785 164.89C218.334 164.89 218.75 164.767 219.031 164.521C219.32 164.276 219.465 163.914 219.465 163.437C219.465 162.491 218.872 162.018 217.687 162.018H216.799V161.27H217.514C218.085 161.27 218.522 161.144 218.825 160.891C219.129 160.638 219.281 160.277 219.281 159.807C219.281 159.388 219.154 159.066 218.901 158.842C218.656 158.618 218.305 158.506 217.85 158.506C217.113 158.506 216.383 158.803 215.661 159.395L215.325 158.712C215.636 158.416 216.015 158.185 216.463 158.019C216.918 157.845 217.391 157.759 217.883 157.759C218.576 157.759 219.129 157.936 219.541 158.29C219.96 158.644 220.169 159.121 220.169 159.72C220.169 160.161 220.061 160.547 219.844 160.88C219.627 161.212 219.327 161.451 218.945 161.595Z" fill="black"/>
<path d="M270.54 154.561V149.143" stroke="black" stroke-width="0.903106"/>
<path d="M272.171 163.882H271.001V165.562H270.112V163.882H266.557V163.21L270.275 157.845H271.001V163.145H272.171V163.882ZM270.112 163.145V159.352L267.479 163.145H270.112Z" fill="black"/>
<path d="M321.935 154.561V149.143" stroke="black" stroke-width="0.903106"/>
<path d="M320.998 160.717C321.482 160.717 321.905 160.822 322.266 161.032C322.635 161.234 322.916 161.519 323.111 161.888C323.307 162.256 323.404 162.682 323.404 163.166C323.404 163.651 323.296 164.08 323.079 164.456C322.869 164.832 322.566 165.124 322.169 165.334C321.778 165.536 321.32 165.637 320.792 165.637C320.323 165.637 319.86 165.554 319.405 165.388C318.95 165.215 318.567 164.98 318.256 164.684L318.592 164.001C319.308 164.593 320.041 164.89 320.792 164.89C321.334 164.89 321.757 164.738 322.06 164.434C322.371 164.124 322.526 163.705 322.526 163.177C322.526 162.664 322.375 162.253 322.071 161.942C321.768 161.624 321.363 161.465 320.857 161.465C320.12 161.465 319.532 161.765 319.091 162.365H318.473V157.845H323.101V158.582H319.362V161.335C319.788 160.923 320.333 160.717 320.998 160.717Z" fill="black"/>
<path d="M373.331 154.561V149.143" stroke="black" stroke-width="0.903106"/>
<path d="M372.394 160.717C372.863 160.717 373.279 160.822 373.64 161.032C374.008 161.234 374.294 161.523 374.496 161.899C374.698 162.267 374.8 162.69 374.8 163.166C374.8 163.643 374.691 164.07 374.474 164.445C374.265 164.821 373.972 165.117 373.597 165.334C373.221 165.543 372.795 165.648 372.318 165.648C371.386 165.648 370.667 165.323 370.161 164.673C369.655 164.023 369.403 163.098 369.403 161.899C369.403 161.032 369.518 160.287 369.749 159.666C369.988 159.045 370.327 158.571 370.768 158.246C371.216 157.921 371.751 157.759 372.372 157.759C372.82 157.759 373.253 157.842 373.672 158.008C374.099 158.174 374.471 158.409 374.789 158.712L374.453 159.395C374.092 159.092 373.745 158.868 373.412 158.723C373.08 158.579 372.74 158.506 372.394 158.506C371.729 158.506 371.212 158.803 370.844 159.395C370.475 159.988 370.291 160.818 370.291 161.888V162.05C370.457 161.638 370.728 161.313 371.104 161.075C371.48 160.836 371.91 160.717 372.394 160.717ZM372.274 164.9C372.766 164.9 373.163 164.745 373.467 164.434C373.77 164.117 373.922 163.698 373.922 163.177C373.922 162.664 373.766 162.253 373.456 161.942C373.152 161.624 372.755 161.465 372.264 161.465C371.758 161.465 371.346 161.624 371.028 161.942C370.71 162.26 370.551 162.672 370.551 163.177C370.551 163.69 370.71 164.106 371.028 164.424C371.346 164.742 371.762 164.9 372.274 164.9Z" fill="black"/>
<path d="M39.2603 4.64648V149.143" stroke="black" stroke-width="0.903106"/>
<path d="M35.6504 149.144H39.2601" stroke="black" stroke-width="0.903106"/>
<path d="M28.3713 149.392C27.4899 149.392 26.818 149.06 26.3556 148.395C25.9004 147.723 25.6728 146.741 25.6728 145.448C25.6728 144.154 25.9004 143.175 26.3556 142.511C26.818 141.839 27.4899 141.503 28.3713 141.503C29.2527 141.503 29.921 141.839 30.3762 142.511C30.8386 143.175 31.0698 144.151 31.0698 145.437C31.0698 146.73 30.8386 147.713 30.3762 148.384C29.921 149.056 29.2527 149.392 28.3713 149.392ZM28.3713 148.645C28.9854 148.645 29.437 148.384 29.726 147.864C30.0222 147.344 30.1703 146.535 30.1703 145.437C30.1703 144.346 30.0258 143.544 29.7368 143.031C29.4478 142.518 28.9926 142.261 28.3713 142.261C27.7572 142.261 27.302 142.518 27.0058 143.031C26.7168 143.544 26.5723 144.346 26.5723 145.437C26.5723 146.528 26.7168 147.337 27.0058 147.864C27.302 148.384 27.7572 148.645 28.3713 148.645Z" fill="black"/>
<path d="M35.6509 113.019H39.2606" stroke="black" stroke-width="0.903106"/>
<path d="M24.3444 111.502H23.174V113.182H22.2854V111.502H18.7307V110.83L22.4479 105.466H23.174V110.765H24.3444V111.502ZM22.2854 110.765V106.972L19.6519 110.765H22.2854ZM28.2741 108.337C28.7582 108.337 29.1809 108.442 29.5421 108.652C29.9106 108.854 30.1923 109.139 30.3874 109.508C30.5825 109.876 30.68 110.303 30.68 110.787C30.68 111.271 30.5716 111.701 30.3549 112.076C30.1454 112.452 29.8419 112.745 29.4446 112.954C29.0544 113.156 28.5956 113.258 28.0682 113.258C27.5986 113.258 27.1362 113.174 26.6811 113.008C26.2259 112.835 25.843 112.6 25.5323 112.304L25.8683 111.621C26.5835 112.214 27.3168 112.51 28.0682 112.51C28.6101 112.51 29.0327 112.358 29.3362 112.055C29.6469 111.744 29.8022 111.325 29.8022 110.797C29.8022 110.284 29.6505 109.873 29.347 109.562C29.0436 109.244 28.639 109.085 28.1332 109.085C27.3963 109.085 26.8075 109.385 26.3668 109.985H25.749V105.466H30.3766V106.202H26.6377V108.955C27.064 108.543 27.6094 108.337 28.2741 108.337Z" fill="black"/>
<path d="M35.6509 76.8945H39.2606" stroke="black" stroke-width="0.903106"/>
<path d="M21.2125 69.2548C22.1445 69.2548 22.8633 69.5799 23.3691 70.2301C23.8748 70.8804 24.1277 71.8052 24.1277 73.0045C24.1277 74.3122 23.864 75.3309 23.3366 76.0606C22.8164 76.7831 22.0867 77.1443 21.1474 77.1443C20.7067 77.1443 20.2732 77.0612 19.847 76.8951C19.4279 76.7289 19.0559 76.4941 18.7307 76.1906L19.0775 75.5079C19.446 75.8186 19.7964 76.0461 20.1287 76.1906C20.4611 76.3279 20.797 76.3965 21.1366 76.3965C21.8013 76.3965 22.3143 76.1003 22.6755 75.5079C23.044 74.9155 23.2282 74.0846 23.2282 73.0153V72.8744C23.062 73.279 22.7911 73.6005 22.4154 73.8389C22.0397 74.0701 21.6098 74.1857 21.1258 74.1857C20.6562 74.1857 20.2407 74.0846 19.8795 73.8823C19.5182 73.6728 19.2365 73.3838 19.0342 73.0153C18.8319 72.6396 18.7307 72.2134 18.7307 71.7365C18.7307 71.2597 18.8355 70.8334 19.045 70.4577C19.2618 70.082 19.558 69.7894 19.9337 69.5799C20.3094 69.3632 20.7356 69.2548 21.2125 69.2548ZM21.2667 73.438C21.7724 73.438 22.1842 73.279 22.5021 72.9611C22.82 72.6432 22.9789 72.2314 22.9789 71.7257C22.9789 71.2127 22.82 70.7973 22.5021 70.4794C22.1842 70.1615 21.7688 70.0026 21.2558 70.0026C20.7645 70.0026 20.3672 70.1615 20.0637 70.4794C19.7603 70.7901 19.6086 71.2055 19.6086 71.7257C19.6086 72.2386 19.7603 72.6541 20.0637 72.972C20.3672 73.2826 20.7681 73.438 21.2667 73.438ZM27.949 77.1443C27.0676 77.1443 26.3957 76.812 25.9333 76.1473C25.4781 75.4754 25.2505 74.4928 25.2505 73.1996C25.2505 71.9063 25.4781 70.9273 25.9333 70.2627C26.3957 69.5907 27.0676 69.2548 27.949 69.2548C28.8304 69.2548 29.4987 69.5907 29.9539 70.2627C30.4163 70.9273 30.6475 71.9027 30.6475 73.1887C30.6475 74.482 30.4163 75.4645 29.9539 76.1364C29.4987 76.8084 28.8304 77.1443 27.949 77.1443ZM27.949 76.3965C28.5631 76.3965 29.0147 76.1364 29.3037 75.6163C29.5999 75.0961 29.748 74.2869 29.748 73.1887C29.748 72.0978 29.6035 71.2958 29.3145 70.7828C29.0255 70.2699 28.5704 70.0134 27.949 70.0134C27.3349 70.0134 26.8797 70.2699 26.5835 70.7828C26.2945 71.2958 26.15 72.0978 26.15 73.1887C26.15 74.2797 26.2945 75.0888 26.5835 75.6163C26.8797 76.1364 27.3349 76.3965 27.949 76.3965Z" fill="black"/>
<path d="M35.6509 40.7705H39.2606" stroke="black" stroke-width="0.903106"/>
<path d="M17.8717 40.1858V40.9336H13.5693V40.1858H15.2708V34.3229L13.6885 35.3307V34.4746L15.6609 33.2175H16.1702V40.1858H17.8717ZM22.9935 36.9672C23.4487 37.0972 23.7954 37.3212 24.0339 37.6391C24.2723 37.957 24.3915 38.3579 24.3915 38.842C24.3915 39.5139 24.1639 40.0449 23.7087 40.4351C23.2536 40.818 22.6359 41.0095 21.8556 41.0095C21.3571 41.0095 20.8766 40.9264 20.4142 40.7602C19.9591 40.594 19.5725 40.3592 19.2546 40.0558L19.6014 39.373C20.3167 39.9655 21.0608 40.2617 21.8339 40.2617C22.383 40.2617 22.7984 40.1389 23.0802 39.8932C23.3692 39.6476 23.5137 39.2863 23.5137 38.8095C23.5137 37.863 22.9212 37.3898 21.7364 37.3898H20.8477V36.642H21.563C22.1337 36.642 22.5708 36.5156 22.8743 36.2627C23.1777 36.0099 23.3294 35.6486 23.3294 35.179C23.3294 34.76 23.203 34.4385 22.9501 34.2145C22.7045 33.9905 22.3541 33.8785 21.8989 33.8785C21.162 33.8785 20.4323 34.1748 19.7098 34.7672L19.3738 34.0844C19.6845 33.7882 20.0638 33.557 20.5118 33.3909C20.9669 33.2175 21.4401 33.1308 21.9314 33.1308C22.625 33.1308 23.1777 33.3078 23.5895 33.6618C24.0086 34.0158 24.2181 34.4926 24.2181 35.0923C24.2181 35.533 24.1097 35.9196 23.893 36.2519C23.6762 36.5842 23.3764 36.8227 22.9935 36.9672ZM28.7547 36.0893C29.2387 36.0893 29.6614 36.1941 30.0226 36.4036C30.3911 36.6059 30.6729 36.8913 30.8679 37.2598C31.063 37.6282 31.1606 38.0545 31.1606 38.5386C31.1606 39.0226 31.0522 39.4525 30.8354 39.8282C30.6259 40.2039 30.3225 40.4965 29.9251 40.706C29.535 40.9083 29.0762 41.0095 28.5488 41.0095C28.0792 41.0095 27.6168 40.9264 27.1616 40.7602C26.7064 40.5868 26.3235 40.352 26.0129 40.0558L26.3488 39.373C27.0641 39.9655 27.7974 40.2617 28.5488 40.2617C29.0906 40.2617 29.5133 40.11 29.8167 39.8065C30.1274 39.4958 30.2827 39.0768 30.2827 38.5494C30.2827 38.0364 30.131 37.6246 29.8276 37.3139C29.5241 36.9961 29.1195 36.8371 28.6138 36.8371C27.8769 36.8371 27.288 37.1369 26.8473 37.7366H26.2296V33.2175H30.8571V33.9544H27.1183V36.7071C27.5445 36.2952 28.09 36.0893 28.7547 36.0893Z" fill="black"/>
<path d="M35.6509 4.64648H39.2606" stroke="black" stroke-width="0.903106"/>
<path d="M17.8717 7.6741V8.42188H13.5693V7.6741H15.2708V1.81114L13.6885 2.81901V1.96286L15.6609 0.705741H16.1702V7.6741H17.8717ZM23.1019 4.45544C23.6076 4.59271 23.9977 4.83113 24.2723 5.17069C24.5541 5.50304 24.6949 5.90402 24.6949 6.37363C24.6949 7.03109 24.4457 7.55128 23.9472 7.9342C23.4487 8.30989 22.7767 8.49774 21.9314 8.49774C21.0861 8.49774 20.4142 8.30989 19.9157 7.9342C19.4172 7.55128 19.1679 7.03109 19.1679 6.37363C19.1679 5.90402 19.3088 5.49943 19.5906 5.15986C19.8796 4.82029 20.2733 4.58548 20.7718 4.45544C20.3095 4.31816 19.9554 4.09419 19.7098 3.78352C19.4642 3.46563 19.3413 3.09355 19.3413 2.66729C19.3413 2.25547 19.4497 1.89784 19.6664 1.5944C19.8832 1.28373 20.1866 1.04531 20.5768 0.879137C20.9741 0.705741 21.4257 0.619043 21.9314 0.619043C22.4372 0.619043 22.8851 0.705741 23.2753 0.879137C23.6726 1.04531 23.9797 1.28373 24.1964 1.5944C24.4132 1.89784 24.5215 2.25547 24.5215 2.66729C24.5215 3.09355 24.3951 3.46563 24.1422 3.78352C23.8966 4.09419 23.5498 4.31816 23.1019 4.45544ZM20.23 2.73231C20.23 3.14413 20.3817 3.48008 20.6852 3.74018C20.9958 3.99305 21.4112 4.14838 21.9314 4.20618C22.4516 4.14838 22.8634 3.99305 23.1669 3.74018C23.4776 3.48008 23.6329 3.14413 23.6329 2.73231C23.6329 2.30604 23.4812 1.97009 23.1777 1.72444C22.8815 1.4788 22.4661 1.35598 21.9314 1.35598C21.3968 1.35598 20.9778 1.4788 20.6743 1.72444C20.3781 1.97009 20.23 2.30604 20.23 2.73231ZM21.9314 7.7608C22.5383 7.7608 23.0043 7.63798 23.3294 7.39233C23.6546 7.14669 23.8171 6.78906 23.8171 6.31945C23.8171 5.89318 23.6437 5.55361 23.2969 5.30074C22.9574 5.04065 22.5022 4.8817 21.9314 4.8239C21.3607 4.8817 20.9019 5.04065 20.5551 5.30074C20.2155 5.55361 20.0458 5.89318 20.0458 6.31945C20.0458 6.78906 20.2083 7.14669 20.5334 7.39233C20.8585 7.63798 21.3245 7.7608 21.9314 7.7608ZM28.4296 8.50857C27.5481 8.50857 26.8762 8.17623 26.4138 7.51154C25.9587 6.83963 25.7311 5.85706 25.7311 4.56381C25.7311 3.27056 25.9587 2.29159 26.4138 1.62691C26.8762 0.954998 27.5481 0.619043 28.4296 0.619043C29.311 0.619043 29.9793 0.954998 30.4345 1.62691C30.8968 2.29159 31.128 3.26695 31.128 4.55297C31.128 5.84622 30.8968 6.8288 30.4345 7.50071C29.9793 8.17262 29.311 8.50857 28.4296 8.50857ZM28.4296 7.7608C29.0437 7.7608 29.4952 7.50071 29.7842 6.98052C30.0804 6.46033 30.2285 5.65115 30.2285 4.55297C30.2285 3.46202 30.0841 2.66006 29.7951 2.1471C29.5061 1.63413 29.0509 1.37765 28.4296 1.37765C27.8155 1.37765 27.3603 1.63413 27.0641 2.1471C26.7751 2.66006 26.6306 3.46202 26.6306 4.55297C26.6306 5.64392 26.7751 6.4531 27.0641 6.98052C27.3603 7.50071 27.8155 7.7608 28.4296 7.7608Z" fill="black"/>
<path d="M39.2603 149.144H399.029" stroke="#CCCCCC" stroke-width="0.903106"/>
<path d="M39.2603 113.019H399.029" stroke="#CCCCCC" stroke-width="0.903106"/>
<path d="M39.2603 76.8945H399.029" stroke="#CCCCCC" stroke-width="0.903106"/>
<path d="M39.2603 40.7705H399.029" stroke="#CCCCCC" stroke-width="0.903106"/>
<path d="M39.2603 4.64648H399.029" stroke="#CCCCCC" stroke-width="0.903106"/>
<path d="M39.2603 4.64648V149.143" stroke="#CCCCCC" stroke-width="0.903106"/>
<path d="M44.3999 119.942C44.3999 117.448 46.4216 115.427 48.9154 115.427H59.1362C61.6301 115.427 63.6517 117.448 63.6517 119.942V144.627C63.6517 147.121 61.6301 149.143 59.1362 149.143H48.9154C46.4216 149.143 44.3999 147.121 44.3999 144.627V119.942Z" fill="#623D91"/>
<path d="M95.7954 13.1757C95.7954 10.6818 97.8171 8.66016 100.311 8.66016H110.532C113.026 8.66016 115.047 10.6818 115.047 13.1757V144.628C115.047 147.122 113.026 149.143 110.532 149.143H100.311C97.8171 149.143 95.7954 147.122 95.7954 144.628V13.1757Z" fill="#623D91"/>
<path d="M147.191 11.5712C147.191 9.07735 149.213 7.05566 151.706 7.05566H161.927C164.421 7.05566 166.443 9.07734 166.443 11.5712V144.629C166.443 147.123 164.421 149.144 161.927 149.144H151.706C149.213 149.144 147.191 147.123 147.191 144.629V11.5712Z" fill="#623D91"/>
<path d="M198.586 73.3837C198.586 70.8898 200.608 68.8682 203.102 68.8682H213.323C215.817 68.8682 217.838 70.8898 217.838 73.3837V144.629C217.838 147.123 215.817 149.144 213.323 149.144H203.102C200.608 149.144 198.586 147.123 198.586 144.629V73.3837Z" fill="#623D91"/>
<path d="M249.982 51.7089C249.982 49.215 252.004 47.1934 254.497 47.1934H264.718C267.212 47.1934 269.234 49.215 269.234 51.7089V144.628C269.234 147.122 267.212 149.144 264.718 149.144H254.497C252.004 149.144 249.982 147.122 249.982 144.628V51.7089Z" fill="#623D91"/>
<path d="M301.377 135.999C301.377 133.505 303.399 131.483 305.893 131.483H316.114C318.608 131.483 320.629 133.505 320.629 135.999V144.629C320.629 147.122 318.608 149.144 316.114 149.144H305.893C303.399 149.144 301.377 147.122 301.377 144.629V135.999Z" fill="#623D91"/>
<path d="M352.773 75.7919C352.773 73.298 354.795 71.2764 357.288 71.2764H367.509C370.003 71.2764 372.025 73.298 372.025 75.7919V144.629C372.025 147.122 370.003 149.144 367.509 149.144H357.288C354.795 149.144 352.773 147.122 352.773 144.629V75.7919Z" fill="#623D91"/>
<path d="M66.0581 46.8925C66.0581 44.3986 68.0798 42.377 70.5736 42.377H80.7944C83.2883 42.377 85.3099 44.3986 85.3099 46.8925V144.629C85.3099 147.122 83.2883 149.144 80.7944 149.144H70.5736C68.0798 149.144 66.0581 147.122 66.0581 144.629V46.8925Z" fill="#2D2F7B"/>
<path d="M117.454 104.691C117.454 102.197 119.475 100.176 121.969 100.176H132.19C134.684 100.176 136.705 102.197 136.705 104.691V144.629C136.705 147.123 134.684 149.144 132.19 149.144H121.969C119.475 149.144 117.454 147.123 117.454 144.629V104.691Z" fill="#2D2F7B"/>
<path d="M168.849 136.8C168.849 134.306 170.871 132.284 173.365 132.284H183.585C186.079 132.284 188.101 134.306 188.101 136.8V144.627C188.101 147.12 186.079 149.142 183.585 149.142H173.365C170.871 149.142 168.849 147.12 168.849 144.627V136.8Z" fill="#2D2F7B"/>
<path d="M220.245 19.5985C220.245 17.1047 222.266 15.083 224.76 15.083H234.981C237.475 15.083 239.496 17.1047 239.496 19.5985V144.628C239.496 147.122 237.475 149.144 234.981 149.144H224.76C222.266 149.144 220.245 147.122 220.245 144.628V19.5985Z" fill="#2D2F7B"/>
<path d="M271.64 49.3007C271.64 46.8068 273.662 44.7852 276.156 44.7852H286.376C288.87 44.7852 290.892 46.8068 290.892 49.3007V144.629C290.892 147.122 288.87 149.144 286.376 149.144H276.156C273.662 149.144 271.64 147.122 271.64 144.629V49.3007Z" fill="#2D2F7B"/>
<path d="M323.036 74.1864C323.036 71.6926 325.057 69.6709 327.551 69.6709H337.772C340.266 69.6709 342.287 71.6926 342.287 74.1864V144.629C342.287 147.123 340.266 149.144 337.772 149.144H327.551C325.057 149.144 323.036 147.123 323.036 144.629V74.1864Z" fill="#2D2F7B"/>
<path d="M374.431 92.6493C374.431 90.1555 376.453 88.1338 378.947 88.1338H389.167C391.661 88.1338 393.683 90.1555 393.683 92.6493V144.628C393.683 147.122 391.661 149.144 389.167 149.144H378.947C376.453 149.144 374.431 147.122 374.431 144.628V92.6493Z" fill="#2D2F7B"/>
</g>
<defs>
<clipPath id="clip0">
<rect width="401.882" height="180.621" fill="white" transform="translate(0.155273 0.130859)"/>
</clipPath>
</defs>
</svg>
