<svg width="57" height="71" viewBox="0 0 57 71" fill="none" xmlns="http://www.w3.org/2000/svg">
<path d="M0.884111 63.9072C0.929886 63.1845 1.20453 62.6426 1.43341 62.2812C0.884111 62.4619 0.655238 62.8684 0.517915 63.9523C0.380591 65.2621 0.105944 68.7849 0.0143944 69.5527C-0.0771548 70.3205 0.289042 70.727 0.517915 70.9528C0.609464 71.0431 0.746788 70.9979 0.884111 70.8625C0.563689 70.456 0.426366 70.0495 0.380591 69.7333C0.289042 69.2817 0.746788 65.6234 0.884111 63.9072Z" fill="#F39325"/>
<path d="M4.54648 62.8681L3.58522 61.6035C3.58522 61.6035 2.66973 62.0552 1.80001 62.1907C1.66268 62.1907 1.57114 62.2358 1.43381 62.281C1.15916 62.6423 0.930291 63.1391 0.884516 63.9069C0.747193 65.6231 0.289447 69.2814 0.426771 69.8234C0.472545 70.1396 0.609869 70.546 0.930291 70.9525C1.25071 70.7267 1.66268 70.1396 1.98311 69.5524C2.44085 68.6491 4.04296 66.0296 4.40916 65.036C4.72958 63.9972 4.54648 62.8681 4.54648 62.8681Z" fill="#2D2F7B"/>
<path d="M17.7756 51.5793C17.9587 50.8567 18.2791 50.405 18.5995 50.0889C18.0044 50.1792 17.7298 50.5405 17.4094 51.6245C17.0432 52.8891 16.1735 56.3215 15.9904 57.0893C15.8073 57.8571 16.0361 58.2636 16.265 58.5797C16.3108 58.6701 16.4481 58.6701 16.6312 58.5797C16.4023 58.1281 16.3108 57.7216 16.3108 57.3603C16.3108 56.7732 17.3636 53.2504 17.7756 51.5793Z" fill="#F39325"/>
<path d="M21.5288 51.1716L20.7965 49.7715C20.7965 49.7715 19.7894 50.0425 18.9655 50.0425C18.8281 50.0425 18.6908 50.0425 18.5993 50.0425C18.2789 50.3586 17.9584 50.8103 17.7753 51.5329C17.3634 53.204 16.3105 56.7268 16.3105 57.2687C16.3105 57.6301 16.3563 58.0365 16.631 58.4882C16.9972 58.3075 17.5007 57.8107 17.9127 57.2687C18.5077 56.4558 20.5218 54.1073 21.0711 53.204C21.5288 52.3007 21.5288 51.1716 21.5288 51.1716Z" fill="#2D2F7B"/>
<path d="M4.54618 59.8428C4.36309 60.0686 3.12717 62.2816 2.85253 62.7784C2.80675 62.8688 2.76098 62.9591 2.76098 63.0494C2.7152 63.3204 2.76098 63.7721 3.31027 64.1334C3.63069 64.3592 4.08844 64.2689 4.31731 63.9527L6.56027 61.017L4.54618 59.8428Z" fill="#A96955"/>
<path d="M22.0325 48.1904C21.8494 48.3711 20.2473 50.3583 19.8811 50.81C19.8354 50.9003 19.7896 50.9455 19.7438 51.0358C19.6523 51.2616 19.6065 51.7584 20.0642 52.2101C20.3389 52.481 20.7966 52.481 21.0713 52.2101L23.4973 49.455L22.0325 48.1904Z" fill="#A96955"/>
<path d="M25.0992 37.6673C25.0992 37.035 28.7153 37.2608 31.8738 36.8995C33.5217 36.7188 34.5287 38.6609 33.3386 39.8803L23.7717 49.5906C23.5886 49.8164 23.2682 49.8616 22.9935 49.7713C22.6273 49.6358 22.078 49.41 21.5745 49.0486C21.2999 48.8228 21.2541 48.4163 21.4372 48.1454L25.8315 41.9579L21.8034 43.087L6.60622 61.6495C6.37735 61.9656 5.91961 62.0108 5.55341 61.8301C5.09566 61.5591 4.50059 61.1527 4.1344 60.6559C3.90552 60.43 3.90552 60.0687 4.08862 59.7977C5.78228 57.2685 14.8914 43.4934 15.3034 42.0482C15.7611 40.4674 17.5463 37.5769 19.1485 37.4866C20.8421 37.3963 25.0992 37.6673 25.0992 37.6673Z" fill="#2D2F7B"/>
<path d="M28.1213 41.9126L27.1143 40.7383H29.8149V41.9126H28.1213Z" fill="#2D2F7B"/>
<path d="M27.1141 40.7383L28.1211 41.9126H25.9697V40.7383H27.1141Z" fill="#2D2F7B"/>
<path d="M23.2238 41.7768L23.0864 41.6865H23.2238V41.7768Z" fill="#2D2F7B"/>
<path d="M23.0857 41.6865L23.223 41.7769V42.8608H22.0786V41.6865H23.0857Z" fill="#2D2F7B"/>
<path d="M45.0561 9.2135L52.7462 3.29699C52.792 3.25182 52.8378 3.20666 52.8378 3.1615L53.6617 0.541971C53.6617 0.451642 53.7533 0.406478 53.7991 0.361314L54.3483 0.0451642C54.3941 0 54.4399 0 54.4857 0L56.1336 0.135493C56.2709 0.135493 56.3624 0.225821 56.4082 0.361314L56.5455 1.12911C56.5455 1.21943 56.5455 1.2646 56.4998 1.35493L56.2709 1.67108C56.2251 1.7614 56.1793 1.8969 56.2709 1.98723C56.3167 2.07755 56.3167 2.21305 56.2251 2.30338C55.9505 2.61953 55.2638 3.25182 54.1653 3.74863C54.1195 3.74863 54.0737 3.7938 54.0737 3.83896L47.1617 11.2459C47.0702 11.3814 46.8413 11.3814 46.7498 11.2459L45.0561 9.61998C44.9188 9.52965 44.9188 9.30383 45.0561 9.2135Z" fill="#A96955"/>
<path d="M2.6259 40.6934L14.8019 42.5451L12.2843 58.5784L4.59421 57.4041L0.794922 52.0748L2.6259 40.6934Z" fill="#623D91"/>
<path d="M0.701172 52.0752L5.3244 52.7978L4.59201 57.4046" fill="#D4EDFC"/>
<path d="M5.95321 55.0313L5.88281 55.4775L10.8581 56.2416L10.9285 55.7954L5.95321 55.0313Z" fill="#D4EDFC"/>
<path d="M6.18705 53.3623L6.1167 53.8086L11.092 54.5722L11.1623 54.1259L6.18705 53.3623Z" fill="#D4EDFC"/>
<path d="M2.45566 50.8662L2.38525 51.3125L11.386 52.6948L11.4564 52.2485L2.45566 50.8662Z" fill="#D4EDFC"/>
<path d="M2.74125 48.9971L2.6709 49.4434L11.6716 50.8248L11.742 50.3785L2.74125 48.9971Z" fill="#D4EDFC"/>
<path d="M3.03671 47.086L2.96631 47.5322L11.967 48.9145L12.0374 48.4683L3.03671 47.086Z" fill="#D4EDFC"/>
<path d="M3.32333 45.2188L3.25293 45.665L12.2537 47.0473L12.3241 46.6011L3.32333 45.2188Z" fill="#D4EDFC"/>
<path d="M3.66215 43.3115L3.5918 43.7578L12.5925 45.1392L12.6629 44.6929L3.66215 43.3115Z" fill="#D4EDFC"/>
<path d="M3.81348 38.841L16.4015 36.0859L20.155 52.6161L12.1902 54.3775L6.4684 50.6288L3.81348 38.841Z" fill="#F39325"/>
<path d="M6.42334 50.6735L11.1381 49.6348L12.1909 54.377" fill="#D4EDFC"/>
<path d="M17.7539 50.4259L12.6162 51.5566L12.7159 51.9974L17.8536 50.8667L17.7539 50.4259Z" fill="#D4EDFC"/>
<path d="M17.3926 48.7501L12.2549 49.8809L12.3545 50.3217L17.4923 49.191L17.3926 48.7501Z" fill="#D4EDFC"/>
<path d="M16.9298 46.8045L7.63721 48.8496L7.73686 49.2904L17.0295 47.2453L16.9298 46.8045Z" fill="#D4EDFC"/>
<path d="M16.4635 44.823L7.1709 46.8682L7.27055 47.309L16.5632 45.2639L16.4635 44.823Z" fill="#D4EDFC"/>
<path d="M16.0074 42.8836L6.71484 44.9287L6.81449 45.3695L16.1071 43.3244L16.0074 42.8836Z" fill="#D4EDFC"/>
<path d="M15.5958 40.9363L6.30322 42.9814L6.40287 43.4222L15.6955 41.3771L15.5958 40.9363Z" fill="#D4EDFC"/>
<path d="M15.1398 38.9969L5.84717 41.042L5.94682 41.4828L15.2394 39.4377L15.1398 38.9969Z" fill="#D4EDFC"/>
<path d="M33.7505 18.2916L44.7364 9.21362C44.9653 9.03296 45.2857 9.03296 45.4688 9.21362C45.9265 9.6201 46.7047 10.3427 47.0709 11.0202C47.2082 11.246 47.1624 11.5622 46.9336 11.7428L35.5815 22.4467L33.7505 18.2916Z" fill="#623D91"/>
<path d="M35.582 18.1112C35.582 18.1112 37.5045 20.0081 37.1383 23.3502C37.0468 24.3438 36.6348 25.2471 36.0398 26.0149L26.4271 38.2544C26.1982 38.5254 25.8778 38.7061 25.5116 38.7512C24.0926 38.9319 20.3391 39.248 17.6841 38.3899C17.4553 38.2996 17.3637 38.0738 17.501 37.8931L26.244 22.7179L31.5538 16.6208C31.5538 16.6208 34.0714 15.7626 35.582 18.1112Z" fill="#623D91"/>
<path d="M23.5419 34.0989C23.4961 34.0989 23.4504 34.0989 23.4504 34.0537C23.3588 34.0086 23.3588 33.8731 23.4046 33.8279C23.4961 33.7376 31.7813 22.7175 32.3306 21.3626C32.8341 20.1431 31.644 19.1947 31.5982 19.1495C31.5067 19.1044 31.5067 18.9689 31.5524 18.8785C31.5982 18.7882 31.7355 18.7882 31.8271 18.8334C31.8271 18.8334 33.2919 20.0076 32.6968 21.4981C32.1017 22.8982 24.0454 33.6021 23.725 34.0537C23.6792 34.0989 23.6335 34.0989 23.5419 34.0989Z" fill="#9D7EB8"/>
<path d="M23.2679 34.235L19.2397 39.2031C19.2397 39.2031 18.6446 42.4097 18.1411 42.8614C17.6376 43.313 16.1728 43.584 15.7608 42.8614C15.4404 42.2291 15.3031 41.5516 15.2573 41.4161L16.5848 41.9581C16.5848 41.9581 16.539 41.7774 16.539 41.5064C16.539 41.4613 16.539 41.4613 16.539 41.4161C16.4932 41.1903 16.4475 40.9193 16.4475 40.558C16.4017 39.9709 16.4932 39.2482 16.951 38.9321C17.8207 38.2546 18.0496 38.1643 18.0496 38.1643L20.3841 33.1511C20.2925 33.0607 21.9404 34.0995 23.2679 34.235Z" fill="#A96955"/>
<path d="M5.32453 32.5624C5.09566 32.6076 4.95834 32.8334 5.09566 33.0592C5.55341 34.0077 6.92664 36.0401 9.76467 35.4078C13.3809 34.5948 24.4583 26.3298 26.9301 24.0716C29.4477 21.8134 32.7435 19.0132 34.3914 19.4196C35.9935 19.8261 35.0322 18.8777 33.9336 18.1551C33.0639 17.5679 32.6062 16.8001 32.8351 16.5743C32.8351 16.5743 32.8808 16.5291 32.8351 16.484C32.8351 16.4388 32.7893 16.4388 32.7893 16.4388C32.0569 16.3485 30.3632 16.3485 28.1203 17.5679C25.0992 19.1938 10.4055 24.7942 5.50763 23.1683C5.32453 23.1231 5.14144 23.2134 5.09566 23.3941C4.91256 24.478 4.59214 27.9557 7.47594 31.8398C7.43016 31.8398 6.33158 32.3818 5.32453 32.5624Z" fill="#F39325"/>
<path d="M36.0393 12.3743L33.1555 16.3939C32.9724 16.6649 32.9724 17.0262 33.2013 17.252C33.5675 17.6585 34.2541 18.2457 34.9407 18.3811C35.1696 18.4263 35.3985 18.336 35.49 18.1553L37.0006 15.8519C37.0464 15.8068 37.3668 12.1485 36.0393 12.3743Z" fill="#A96955"/>
<path d="M36.8637 9.0326C36.9095 9.07776 39.3356 13.7297 39.3356 13.7297L36.6349 15.0394L33.7053 10.9747C33.6595 10.9747 35.8567 8.12932 36.8637 9.0326Z" fill="#A96955"/>
<path d="M34.8492 11.0647C34.8034 11.2002 34.8034 11.3357 34.895 11.426L36.2682 13.6391C36.2682 13.6842 36.314 13.6842 36.3598 13.7294C36.5429 13.8649 37.0922 14.3165 37.5041 13.7294C37.8703 13.2326 38.1908 12.7809 38.5569 12.6003C38.7858 12.51 39.0147 12.6003 39.152 12.7809C39.3809 13.2326 39.7929 14.0907 40.0675 14.9488C40.1133 15.1746 40.0217 15.4005 39.8386 15.4908C39.2893 15.7166 38.1908 16.1231 37.2295 16.2586C37.0922 16.2586 36.9091 16.2134 36.8175 16.0779C36.4055 15.536 35.2154 13.9552 34.8492 13.5487C34.483 13.1874 33.7964 13.3229 33.476 13.4132C33.3387 13.4584 33.2471 13.4132 33.1098 13.3681C32.7894 13.1874 32.2401 12.7358 32.7436 11.9228C32.8809 11.7422 32.7894 11.4712 32.6063 11.3357C32.2401 11.1099 31.8739 10.7034 32.2401 9.98076C32.6063 9.3033 33.2471 9.21297 33.7048 9.25813C33.8879 9.3033 34.1168 9.1678 34.1626 8.98715C34.2084 8.89682 34.2541 8.85165 34.3915 8.80649C34.6203 8.76133 34.7577 8.5355 34.7119 8.30968C34.6203 7.90321 34.7119 7.4064 35.3527 7.04509C36.5429 6.41279 37.5499 7.45156 37.8246 8.30968C38.0992 9.1678 36.7717 9.8001 35.9478 9.89043C35.307 10.0711 34.9865 10.7486 34.8492 11.0647Z" fill="black"/>
<path d="M35.3069 14.3623C35.3069 14.3623 34.8034 12.8719 34.1168 12.917C33.4302 12.9622 32.9267 13.6396 33.7506 14.3623C34.7576 15.2656 35.3069 14.3623 35.3069 14.3623Z" fill="#A96955"/>
<path d="M56.1336 1.49023H54.623V2.30319H56.1336V1.49023Z" fill="#F39325"/>
</svg>
