<svg width="344" height="344" viewBox="0 0 344 344" fill="none" xmlns="http://www.w3.org/2000/svg">
<path d="M128.03 128.03L147.034 133.596L166.037 128.03L160.471 147.034L166.037 166.037L147.034 160.471L128.03 166.037L133.596 147.034L128.03 128.03Z" fill="#F39325"/>
<path d="M219.711 143.649C214.314 132.259 213.242 118.928 216.305 106.687C212.561 103.214 209.714 98.854 208.013 94.5446C204.415 85.4313 204.459 75.8443 204.84 66.004L204.844 65.9013C204.924 63.8305 205 61.8754 204.652 60.2494L215.164 58C215.795 60.9442 215.683 63.799 215.586 66.3178L215.582 66.4199C215.246 75.069 215.181 83.4264 218.012 90.5974C218.711 92.3704 219.568 93.9446 220.529 95.3253C221.303 93.8002 222.152 92.3133 223.076 90.8722C227.269 84.3281 232.231 80.2088 237.825 78.6286C245.159 76.5572 254.757 79.8312 257.358 88.0032C259.182 93.7357 257.059 100.336 251.68 105.657C246.296 110.983 239.309 113.919 232.52 113.723C230.239 113.655 228.065 113.248 226.012 112.566C224.456 121.481 225.556 130.884 229.424 139.046L219.711 143.649ZM229.142 102.226C230.432 102.695 231.687 102.943 232.837 102.977C236.615 103.088 240.866 101.234 244.12 98.0149C246.067 96.0886 247.748 93.254 247.115 91.2632C246.523 89.4055 243.309 88.2505 240.747 88.9734C237.76 89.8173 234.859 92.4074 232.127 96.6718C230.991 98.4442 229.995 100.304 229.142 102.226Z" fill="#F39325"/>
<path d="M105.032 263.912C102.441 263.912 99.8836 263.42 97.5099 262.413C87.2147 258.048 83.6336 245.977 85.9509 236.422C69.6788 241.292 54.6778 250.109 42.5162 262.129L34.959 254.483C50.8361 238.792 71.0971 228.048 92.8793 223.613C95.7711 220.296 99.4348 217.231 103.803 214.501C118.627 205.232 136.97 201.836 154.133 205.184L152.075 215.735C138.615 213.109 124.295 215.387 112.284 221.984C120.535 223.016 126.426 227.078 128.364 233.436C129.269 236.408 129.228 239.742 128.237 243.626C126.511 250.399 122.794 256.119 117.77 259.731C113.937 262.485 109.438 263.912 105.032 263.912ZM98.8704 233.438C97.8579 234.993 97.0402 236.676 96.5222 238.485C95.7395 241.214 95.8792 244.339 96.9038 247.061C97.4763 248.58 98.861 251.309 101.706 252.515C104.595 253.741 108.529 253.131 111.493 251.001C114.469 248.862 116.715 245.299 117.819 240.97C118.309 239.044 118.394 237.605 118.079 236.568C116.995 233.011 110.344 232.047 104.631 232.657C102.702 232.864 100.781 233.124 98.8704 233.438Z" fill="#623D91"/>
<path d="M75.8272 156.989C72.3872 156.989 68.9372 155.483 65.9849 152.668C64.4309 151.185 63.2047 149.545 62.123 148.1C61.6359 147.449 61.1763 146.833 60.7127 146.265C55.8692 140.313 48.1003 136.713 40.4248 136.895L40.1836 126.147C51.2453 125.901 62.0558 130.882 69.0514 139.479C69.6534 140.219 70.2016 140.952 70.7324 141.662C71.6421 142.878 72.5021 144.027 73.4058 144.89C74.4546 145.89 75.4389 146.29 75.9341 146.234C76.7746 146.14 78.1143 144.912 79.4097 143.724C80.4303 142.788 81.5865 141.728 82.9222 140.804C90.3364 135.681 101.153 137.067 107.035 143.893L98.8914 150.91C96.6083 148.261 91.9092 147.66 89.035 149.648C88.308 150.15 87.5145 150.877 86.6753 151.647C84.35 153.78 81.4549 156.434 77.128 156.918C76.6946 156.966 76.2613 156.989 75.8272 156.989Z" fill="#F39325"/>
<path d="M172.037 101.969C165.665 99.1522 160.678 92.1465 163.364 85.2994C164.349 82.7887 166.053 81.1372 167.422 79.8102L167.859 79.3843C169.602 77.6663 170.21 75.9866 170.204 75.4632C169.929 75.1958 169.018 74.7107 168.406 74.3848C166.725 73.4899 164.634 72.3766 163.009 70.2185C161.353 68.0182 160.66 65.1244 161.108 62.2797C161.555 59.4343 163.103 56.8932 165.354 55.3076L171.544 64.0964C171.623 64.0407 171.676 63.9856 171.707 63.9466C171.69 63.8996 171.656 63.8304 171.598 63.7531C171.813 64.0198 172.803 64.5472 173.458 64.8959C175.116 65.7788 177.387 66.9875 179.021 69.3001C183.102 75.0722 180.145 82.3694 175.405 87.041L174.903 87.5301C174.346 88.0703 173.504 88.8859 173.371 89.2252C173.369 89.6881 174.502 91.3053 176.383 92.1371L172.037 101.969Z" fill="#623D91"/>
<path d="M111.718 97.9687C109.626 97.9687 107.55 97.3888 105.641 96.0397C103.328 94.4044 102.119 92.1341 101.236 90.4766C100.887 89.8215 100.36 88.8318 100.092 88.6148C100.17 88.6739 100.239 88.7075 100.286 88.7257C100.326 88.6941 100.381 88.6417 100.437 88.5624L91.6475 82.3724C93.2324 80.1216 95.7741 78.5736 98.6188 78.1262C101.465 77.6787 104.358 78.3721 106.558 80.0276C108.716 81.6522 109.83 83.7437 110.725 85.4248C111.049 86.0335 111.529 86.9351 111.805 87.222H111.811C112.343 87.222 114.015 86.6126 115.724 84.8778L116.15 84.4411C117.478 83.0712 119.129 81.3666 121.64 80.3817C128.486 77.6955 135.493 82.6828 138.31 89.0556L128.477 93.4019C127.647 91.524 126.035 90.3933 125.543 90.3933C125.542 90.3933 125.54 90.3933 125.54 90.3933C125.226 90.5223 124.411 91.3641 123.871 91.9211L123.382 92.4237C120.255 95.5956 115.953 97.9687 111.718 97.9687Z" fill="#C5C5C5"/>
<path d="M211.646 37.625C217.584 37.625 222.396 32.8121 222.396 26.875C222.396 20.9379 217.584 16.125 211.646 16.125C205.709 16.125 200.896 20.9379 200.896 26.875C200.896 32.8121 205.709 37.625 211.646 37.625Z" fill="#C5C5C5"/>
<path d="M26.875 91.375C32.8121 91.375 37.625 86.5621 37.625 80.625C37.625 74.6879 32.8121 69.875 26.875 69.875C20.9379 69.875 16.125 74.6879 16.125 80.625C16.125 86.5621 20.9379 91.375 26.875 91.375Z" fill="#C5C5C5"/>
<path d="M38.9832 179.07L51.1711 183.204L61.485 175.507L61.3204 188.375L71.8278 195.806L59.5386 199.626L55.7183 211.915L48.2874 201.408L35.4189 201.572L43.1159 191.258L38.9832 179.07Z" fill="#C5C5C5"/>
<path d="M195.802 164.522C192.574 160.827 189.147 157.231 185.615 153.836L193.066 146.087C196.821 149.698 200.466 153.52 203.898 157.449L195.802 164.522Z" fill="black"/>
<path d="M195.802 164.522C192.574 160.827 189.147 157.231 185.615 153.836L193.066 146.087C196.821 149.698 200.466 153.52 203.898 157.449L195.802 164.522Z" fill="#623D91"/>
<path d="M76.5773 121.786C73.3489 118.091 69.9217 114.496 66.3896 111.1L73.8421 103.352C77.5965 106.963 81.2408 110.785 84.6727 114.713L76.5773 121.786Z" fill="#623D91"/>
<path d="M64.2508 39.8779C62.9353 39.4519 61.2193 39.3431 59.4026 39.2282C56.1017 39.0193 51.9945 38.7592 48.3469 36.3049C43.7761 33.229 42.1455 28.2981 40.834 24.3354C40.0109 21.8475 39.2336 19.4979 37.9785 18.1354L45.8851 10.8516C48.7117 13.92 49.9493 17.6597 51.0404 20.9593C51.9999 23.8591 52.8283 26.3631 54.3494 27.3864C55.5796 28.2148 57.6665 28.3465 60.0812 28.4997C62.3696 28.6442 64.9637 28.8088 67.5645 29.6513L64.2508 39.8779Z" fill="#623D91"/>
<path d="M93.4247 48.5255C93.2977 44.1509 93.0598 36.0078 98.9797 31.0204C101.357 29.0182 104.112 28.1226 106.326 27.4037L107.023 27.176C111.442 25.7126 114.389 24.0229 116.298 21.8567C118.162 19.743 118.914 16.8056 118.084 14.8726L127.964 10.6357C130.46 16.4569 129.046 23.652 124.362 28.9652C121.14 32.6188 116.705 35.2929 110.404 37.3797L109.648 37.627C108.121 38.1235 106.677 38.5925 105.906 39.2415C104.189 40.688 104.066 44.5876 104.172 48.211L93.4247 48.5255Z" fill="#F39325"/>
</svg>
