<svg width="344" height="344" viewBox="0 0 344 344" fill="none" xmlns="http://www.w3.org/2000/svg">
<path d="M215.97 128.03L196.966 133.596L177.963 128.03L183.529 147.034L177.963 166.037L196.966 160.471L215.97 166.037L210.404 147.034L215.97 128.03Z" fill="#F39325"/>
<path d="M124.289 143.649C129.686 132.259 130.758 118.928 127.695 106.687C131.439 103.214 134.286 98.854 135.987 94.5446C139.585 85.4313 139.541 75.8443 139.16 66.004L139.156 65.9013C139.076 63.8305 139 61.8754 139.348 60.2494L128.836 58C128.205 60.9442 128.317 63.799 128.414 66.3178L128.418 66.4199C128.754 75.069 128.819 83.4264 125.988 90.5974C125.289 92.3704 124.432 93.9446 123.471 95.3253C122.697 93.8002 121.848 92.3133 120.924 90.8722C116.731 84.3281 111.769 80.2088 106.175 78.6286C98.841 76.5572 89.2433 79.8312 86.6424 88.0032C84.8183 93.7357 86.9407 100.336 92.3204 105.657C97.7042 110.983 104.691 113.919 111.48 113.723C113.761 113.655 115.935 113.248 117.988 112.566C119.544 121.481 118.444 130.884 114.576 139.046L124.289 143.649ZM114.858 102.226C113.568 102.695 112.313 102.943 111.163 102.977C107.385 103.088 103.134 101.234 99.8797 98.0149C97.9333 96.0886 96.2523 93.254 96.8852 91.2632C97.4771 89.4055 100.691 88.2505 103.253 88.9734C106.24 89.8173 109.141 92.4074 111.873 96.6718C113.009 98.4442 114.005 100.304 114.858 102.226Z" fill="#F39325"/>
<path d="M238.968 263.912C241.559 263.912 244.116 263.42 246.49 262.413C256.785 258.048 260.366 245.977 258.049 236.422C274.321 241.292 289.322 250.109 301.484 262.129L309.041 254.483C293.164 238.792 272.903 228.048 251.121 223.613C248.229 220.296 244.565 217.231 240.197 214.501C225.373 205.232 207.03 201.836 189.867 205.184L191.925 215.735C205.385 213.109 219.705 215.387 231.716 221.984C223.465 223.016 217.574 227.078 215.636 233.436C214.731 236.408 214.772 239.742 215.763 243.626C217.489 250.399 221.206 256.119 226.23 259.731C230.063 262.485 234.562 263.912 238.968 263.912ZM245.13 233.438C246.142 234.993 246.96 236.676 247.478 238.485C248.261 241.214 248.121 244.339 247.096 247.061C246.524 248.58 245.139 251.309 242.294 252.515C239.405 253.741 235.471 253.131 232.507 251.001C229.531 248.862 227.285 245.299 226.181 240.97C225.691 239.044 225.606 237.605 225.921 236.568C227.005 233.011 233.656 232.047 239.369 232.657C241.298 232.864 243.219 233.124 245.13 233.438Z" fill="#623D91"/>
<path d="M268.173 156.989C271.613 156.989 275.063 155.483 278.015 152.668C279.569 151.185 280.795 149.545 281.877 148.1C282.364 147.449 282.824 146.833 283.287 146.265C288.131 140.313 295.9 136.713 303.575 136.895L303.816 126.147C292.755 125.901 281.944 130.882 274.949 139.479C274.347 140.219 273.798 140.952 273.268 141.662C272.358 142.878 271.498 144.027 270.594 144.89C269.545 145.89 268.561 146.29 268.066 146.234C267.225 146.14 265.886 144.912 264.59 143.724C263.57 142.788 262.413 141.728 261.078 140.804C253.664 135.681 242.847 137.067 236.965 143.893L245.109 150.91C247.392 148.261 252.091 147.66 254.965 149.648C255.692 150.15 256.485 150.877 257.325 151.647C259.65 153.78 262.545 156.434 266.872 156.918C267.305 156.966 267.739 156.989 268.173 156.989Z" fill="#F39325"/>
<path d="M171.963 101.969C178.335 99.1522 183.322 92.1465 180.636 85.2994C179.651 82.7887 177.947 81.1372 176.578 79.8102L176.141 79.3843C174.398 77.6663 173.79 75.9866 173.796 75.4632C174.071 75.1958 174.982 74.7107 175.594 74.3848C177.275 73.4899 179.366 72.3766 180.991 70.2185C182.647 68.0182 183.34 65.1244 182.892 62.2797C182.445 59.4343 180.897 56.8932 178.646 55.3076L172.456 64.0964C172.377 64.0407 172.324 63.9856 172.293 63.9466C172.31 63.8996 172.344 63.8304 172.402 63.7531C172.187 64.0198 171.197 64.5472 170.542 64.8959C168.884 65.7788 166.613 66.9875 164.979 69.3001C160.898 75.0722 163.855 82.3694 168.595 87.041L169.097 87.5301C169.654 88.0703 170.496 88.8859 170.629 89.2252C170.631 89.6881 169.498 91.3053 167.617 92.1371L171.963 101.969Z" fill="#623D91"/>
<path d="M232.282 97.9687C234.374 97.9687 236.45 97.3888 238.359 96.0397C240.672 94.4044 241.881 92.1341 242.764 90.4766C243.113 89.8215 243.64 88.8318 243.908 88.6148C243.83 88.6739 243.761 88.7075 243.714 88.7257C243.674 88.6941 243.619 88.6417 243.563 88.5624L252.353 82.3724C250.768 80.1216 248.226 78.5736 245.381 78.1262C242.535 77.6787 239.642 78.3721 237.442 80.0276C235.284 81.6522 234.17 83.7437 233.275 85.4248C232.951 86.0335 232.471 86.9351 232.195 87.222H232.189C231.657 87.222 229.985 86.6126 228.276 84.8778L227.85 84.4411C226.522 83.0712 224.871 81.3666 222.36 80.3817C215.514 77.6955 208.507 82.6828 205.69 89.0556L215.523 93.4019C216.353 91.524 217.965 90.3933 218.457 90.3933C218.458 90.3933 218.46 90.3933 218.46 90.3933C218.774 90.5223 219.589 91.3641 220.129 91.9211L220.618 92.4237C223.745 95.5956 228.047 97.9687 232.282 97.9687Z" fill="#C5C5C5"/>
<path d="M132.354 37.625C126.416 37.625 121.604 32.8121 121.604 26.875C121.604 20.9379 126.416 16.125 132.354 16.125C138.291 16.125 143.104 20.9379 143.104 26.875C143.104 32.8121 138.291 37.625 132.354 37.625Z" fill="#C5C5C5"/>
<path d="M317.125 91.375C311.188 91.375 306.375 86.5621 306.375 80.625C306.375 74.6879 311.188 69.875 317.125 69.875C323.062 69.875 327.875 74.6879 327.875 80.625C327.875 86.5621 323.062 91.375 317.125 91.375Z" fill="#C5C5C5"/>
<path d="M305.017 179.07L292.829 183.204L282.515 175.507L282.68 188.375L272.172 195.806L284.461 199.626L288.282 211.915L295.713 201.408L308.581 201.572L300.884 191.258L305.017 179.07Z" fill="#C5C5C5"/>
<path d="M148.198 164.522C151.426 160.827 154.853 157.231 158.385 153.836L150.934 146.087C147.179 149.698 143.534 153.52 140.102 157.449L148.198 164.522Z" fill="black"/>
<path d="M148.198 164.522C151.426 160.827 154.853 157.231 158.385 153.836L150.934 146.087C147.179 149.698 143.534 153.52 140.102 157.449L148.198 164.522Z" fill="#623D91"/>
<path d="M267.423 121.786C270.651 118.091 274.078 114.496 277.61 111.1L270.158 103.352C266.403 106.963 262.759 110.785 259.327 114.713L267.423 121.786Z" fill="#623D91"/>
<path d="M279.749 39.8779C281.065 39.4519 282.781 39.3431 284.597 39.2282C287.898 39.0193 292.006 38.7592 295.653 36.3049C300.224 33.229 301.855 28.2981 303.166 24.3354C303.989 21.8475 304.766 19.4979 306.021 18.1354L298.115 10.8516C295.288 13.92 294.051 17.6597 292.96 20.9593C292 23.8591 291.172 26.3631 289.651 27.3864C288.42 28.2148 286.334 28.3465 283.919 28.4997C281.63 28.6442 279.036 28.8088 276.435 29.6513L279.749 39.8779Z" fill="#623D91"/>
<path d="M250.575 48.5255C250.702 44.1509 250.94 36.0078 245.02 31.0204C242.643 29.0182 239.888 28.1226 237.674 27.4037L236.977 27.176C232.558 25.7126 229.611 24.0229 227.702 21.8567C225.838 19.743 225.086 16.8056 225.916 14.8726L216.036 10.6357C213.54 16.4569 214.954 23.652 219.638 28.9652C222.86 32.6188 227.295 35.2929 233.596 37.3797L234.352 37.627C235.879 38.1235 237.323 38.5925 238.094 39.2415C239.811 40.688 239.934 44.5876 239.828 48.211L250.575 48.5255Z" fill="#F39325"/>
</svg>
