<svg width="120" height="120" viewBox="0 0 120 120" fill="none" xmlns="http://www.w3.org/2000/svg">
<g clip-path="url(#clip0)">
<path d="M5.59253 6.39187V113.608C5.59253 117.138 8.45425 120 11.9844 120H93.6006C97.1307 120 99.9924 117.138 99.9924 113.608V28.1892L71.8032 0H11.9844C8.45425 0 5.59253 2.86172 5.59253 6.39187Z" fill="#EAECF0"/>
<path d="M77.9597 6.15625V32.6545C77.9597 35.3219 80.1221 37.484 82.7892 37.484H87.2771V120H93.6005C97.1307 120 99.9924 117.138 99.9924 113.608V28.1891L77.9597 6.15625Z" fill="#D3D7DE"/>
<path d="M71.8032 0L99.9924 28.1892H76.633C73.9658 28.1892 71.8035 26.0269 71.8035 23.3597V0H71.8032Z" fill="#00C159"/>
<path d="M104.527 61.9059L100.606 57.9846L109.674 48.9166C110.757 47.8338 112.512 47.8338 113.595 48.9166C114.678 49.9994 114.678 51.7551 113.595 52.8379L104.527 61.9059Z" fill="#676E84"/>
<path d="M101.192 54.2463L49.5058 105.932L42.9229 117.145C41.9376 118.823 43.8286 120.714 45.5067 119.728L56.7189 113.145L108.405 61.4594C109.252 60.6128 109.252 59.2403 108.405 58.3938L104.257 54.2463C103.411 53.3997 102.038 53.3997 101.192 54.2463Z" fill="#00C159"/>
<path d="M45.5066 119.728L56.7189 113.145L49.5057 105.932L42.9228 117.144C41.9378 118.822 43.8285 120.713 45.5066 119.728Z" fill="#676E84"/>
<path d="M92.3767 63.0488L97.2137 58.2118L104.426 65.4237L99.5886 70.2607L92.3767 63.0488Z" fill="#676E84"/>
<path d="M85.3851 46.1177H17.3022C16.3022 46.1177 15.4915 45.307 15.4915 44.3069C15.4915 43.3068 16.3022 42.4961 17.3022 42.4961H85.3851C86.3852 42.4961 87.1959 43.3068 87.1959 44.3069C87.1959 45.307 86.3852 46.1177 85.3851 46.1177Z" fill="#676E84"/>
<path d="M85.3851 62.8638H17.3022C16.3022 62.8638 15.4915 62.0531 15.4915 61.053C15.4915 60.0529 16.3022 59.2422 17.3022 59.2422H85.3851C86.3852 59.2422 87.1959 60.0529 87.1959 61.053C87.1959 62.0531 86.3852 62.8638 85.3851 62.8638Z" fill="#676E84"/>
<path d="M64.7479 79.6108H17.3022C16.3022 79.6108 15.4915 78.8001 15.4915 77.8C15.4915 76.8 16.3022 75.9893 17.3022 75.9893H64.7477C65.7478 75.9893 66.5585 76.8 66.5585 77.8C66.5585 78.8001 65.748 79.6108 64.7479 79.6108Z" fill="#676E84"/>
<path d="M51.3438 96.3569H17.3022C16.3022 96.3569 15.4915 95.5462 15.4915 94.5461C15.4915 93.5461 16.3022 92.7354 17.3022 92.7354H51.3436C52.3436 92.7354 53.1543 93.5461 53.1543 94.5461C53.1543 95.5462 52.3439 96.3569 51.3438 96.3569Z" fill="#676E84"/>
<path d="M53.7918 18.0786H17.3022C16.3022 18.0786 15.4915 17.2679 15.4915 16.2678C15.4915 15.2675 16.3022 14.457 17.3022 14.457H53.7916C54.7917 14.457 55.6024 15.2677 55.6024 16.2678C55.6026 17.2679 54.7919 18.0786 53.7918 18.0786Z" fill="#676E84"/>
<path d="M53.7918 30.0005H17.3022C16.3022 30.0005 15.4915 29.1898 15.4915 28.1897C15.4915 27.1894 16.3022 26.3789 17.3022 26.3789H53.7916C54.7917 26.3789 55.6024 27.1896 55.6024 28.1897C55.6026 29.1898 54.7919 30.0005 53.7918 30.0005Z" fill="#676E84"/>
</g>
<defs>
<clipPath id="clip0">
<rect width="120" height="120" fill="white"/>
</clipPath>
</defs>
</svg>
