<svg width="793" height="591" viewBox="0 0 793 591" fill="none" xmlns="http://www.w3.org/2000/svg">
<path d="M792.792 519.121H0V519.517H792.792V519.121Z" fill="#EBEBEB"/>
<path d="M713.352 544.632H678.977V545.028H713.352V544.632Z" fill="#EBEBEB"/>
<path d="M546.502 536.42H492.418V536.816H546.502V536.42Z" fill="#EBEBEB"/>
<path d="M699.434 529.918H628.828V530.314H699.434V529.918Z" fill="#EBEBEB"/>
<path d="M274.339 537.908H256.676V538.305H274.339V537.908Z" fill="#EBEBEB"/>
<path d="M242.546 537.908H181.676V538.305H242.546V537.908Z" fill="#EBEBEB"/>
<path d="M149.061 531.219H105.141V531.615H149.061V531.219Z" fill="#EBEBEB"/>
<path d="M375.784 448.403H69.6238C67.2253 448.399 64.9266 447.443 63.2321 445.746C61.5376 444.048 60.5859 441.748 60.5859 439.349V8.97441C60.6068 6.58973 61.5677 4.30958 63.2599 2.62924C64.9521 0.948906 67.239 0.00408508 69.6238 0H375.784C378.185 0 380.488 0.953868 382.186 2.65176C383.884 4.34966 384.838 6.6525 384.838 9.05368V439.349C384.838 441.751 383.884 444.054 382.186 445.751C380.488 447.449 378.185 448.403 375.784 448.403ZM69.6238 0.317118C67.3305 0.321318 65.1325 1.23527 63.5124 2.85837C61.8923 4.48148 60.9823 6.68109 60.9823 8.97441V439.349C60.9823 441.643 61.8923 443.842 63.5124 445.466C65.1325 447.089 67.3305 448.003 69.6238 448.007H375.784C378.079 448.003 380.279 447.089 381.901 445.466C383.524 443.844 384.437 441.644 384.441 439.349V8.97441C384.437 6.67964 383.524 4.48006 381.901 2.85741C380.279 1.23476 378.079 0.321309 375.784 0.317118H69.6238Z" fill="#EBEBEB"/>
<path d="M718.761 448.403H412.585C410.185 448.399 407.885 447.444 406.188 445.747C404.491 444.05 403.535 441.749 403.531 439.349V8.97441C403.556 6.58828 404.521 4.30815 406.215 2.62825C407.91 0.948352 410.199 0.00404053 412.585 0H718.761C721.143 0.00825217 723.426 0.954917 725.115 2.63481C726.804 4.3147 727.762 6.59247 727.783 8.97441V439.349C727.783 441.745 726.834 444.043 725.143 445.74C723.452 447.437 721.157 448.395 718.761 448.403ZM412.585 0.317118C410.29 0.321309 408.091 1.23476 406.468 2.85741C404.845 4.48006 403.932 6.67964 403.928 8.97441V439.349C403.932 441.644 404.845 443.844 406.468 445.466C408.091 447.089 410.29 448.003 412.585 448.007H718.761C721.056 448.003 723.256 447.089 724.878 445.466C726.501 443.844 727.414 441.644 727.418 439.349V8.97441C727.414 6.67964 726.501 4.48006 724.878 2.85741C723.256 1.23476 721.056 0.321309 718.761 0.317118H412.585Z" fill="#EBEBEB"/>
<path d="M182.341 189.683C191.134 189.683 199.567 186.19 205.784 179.972C212.002 173.755 215.495 165.322 215.495 156.529C215.495 147.735 212.002 139.302 205.784 133.085C199.567 126.867 191.134 123.374 182.341 123.374H178.266V189.683H182.341Z" fill="#E0E0E0"/>
<path d="M178.237 189.683C196.547 189.683 211.391 174.839 211.391 156.529C211.391 138.218 196.547 123.374 178.237 123.374C159.926 123.374 145.082 138.218 145.082 156.529C145.082 174.839 159.926 189.683 178.237 189.683Z" fill="#F5F5F5"/>
<path d="M176.713 160.684C164.938 160.684 153.646 156.006 145.32 147.68C136.994 139.354 132.316 128.062 132.316 116.287V89.7922C132.316 88.6862 132.756 87.6255 133.538 86.8435C134.32 86.0614 135.381 85.6221 136.487 85.6221C137.592 85.6221 138.653 86.0614 139.435 86.8435C140.217 87.6255 140.657 88.6862 140.657 89.7922V116.303C140.665 125.861 144.464 135.024 151.221 141.784C157.977 148.543 167.14 152.347 176.697 152.359C177.265 152.324 177.834 152.406 178.37 152.599C178.905 152.792 179.396 153.093 179.81 153.483C180.225 153.873 180.556 154.344 180.782 154.866C181.007 155.389 181.124 155.952 181.124 156.521C181.124 157.091 181.007 157.654 180.782 158.176C180.556 158.699 180.225 159.17 179.81 159.56C179.396 159.95 178.905 160.25 178.37 160.444C177.834 160.637 177.265 160.719 176.697 160.684H176.713Z" fill="#E0E0E0"/>
<path d="M99.622 113.132H173.383C174.563 113.132 175.727 112.862 176.786 112.341C177.844 111.82 178.769 111.064 179.489 110.129C180.209 109.195 180.705 108.108 180.938 106.951C181.172 105.795 181.137 104.601 180.836 103.46L174.414 79.2799C173.981 77.6372 173.016 76.1838 171.672 75.1458C170.327 74.1078 168.676 73.5432 166.978 73.54H106.028C104.327 73.5424 102.674 74.1064 101.327 75.1443C99.9793 76.1821 99.0121 77.6359 98.5755 79.2799L92.2332 103.428C91.9245 104.566 91.8815 105.759 92.1075 106.916C92.3335 108.073 92.8225 109.163 93.5366 110.101C94.2508 111.039 95.171 111.8 96.2261 112.325C97.2813 112.851 98.4432 113.127 99.622 113.132Z" fill="#F5F5F5"/>
<path d="M650.532 189.683C659.325 189.683 667.758 186.19 673.976 179.972C680.194 173.755 683.687 165.322 683.687 156.529C683.687 147.735 680.194 139.302 673.976 133.085C667.758 126.867 659.325 123.374 650.532 123.374H646.457V189.683H650.532Z" fill="#E0E0E0"/>
<path d="M646.459 189.683C664.77 189.683 679.614 174.839 679.614 156.529C679.614 138.218 664.77 123.374 646.459 123.374C628.148 123.374 613.305 138.218 613.305 156.529C613.305 174.839 628.148 189.683 646.459 189.683Z" fill="#F5F5F5"/>
<path d="M644.935 160.684C633.161 160.684 621.868 156.006 613.542 147.68C605.217 139.354 600.539 128.062 600.539 116.287V89.7922C600.539 88.6862 600.978 87.6255 601.76 86.8435C602.542 86.0614 603.603 85.6221 604.709 85.6221C605.815 85.6221 606.876 86.0614 607.658 86.8435C608.44 87.6255 608.879 88.6862 608.879 89.7922V116.303C608.888 125.861 612.687 135.024 619.444 141.784C626.2 148.543 635.362 152.347 644.92 152.359C645.488 152.324 646.057 152.406 646.593 152.599C647.128 152.792 647.618 153.093 648.033 153.483C648.448 153.873 648.778 154.344 649.004 154.866C649.23 155.389 649.347 155.952 649.347 156.521C649.347 157.091 649.23 157.654 649.004 158.176C648.778 158.699 648.448 159.17 648.033 159.56C647.618 159.95 647.128 160.25 646.593 160.444C646.057 160.637 645.488 160.719 644.92 160.684H644.935Z" fill="#E0E0E0"/>
<path d="M567.844 113.132H641.605C642.785 113.132 643.949 112.861 645.007 112.341C646.066 111.82 646.991 111.063 647.711 110.129C648.431 109.194 648.927 108.107 649.16 106.951C649.394 105.795 649.359 104.6 649.058 103.46L642.715 79.3111C642.282 77.6684 641.318 76.2151 639.973 75.177C638.628 74.139 636.978 73.5745 635.279 73.5713H574.25C572.549 73.5737 570.896 74.1376 569.549 75.1755C568.201 76.2134 567.234 77.6672 566.797 79.3111L560.455 103.46C560.152 104.595 560.114 105.785 560.342 106.938C560.571 108.091 561.061 109.176 561.774 110.11C562.488 111.044 563.406 111.802 564.458 112.326C565.51 112.85 566.669 113.125 567.844 113.132Z" fill="#F5F5F5"/>
<path d="M212.438 413.616H236.555V320.178H212.438V413.616Z" fill="#E6E6E6"/>
<path d="M147.066 413.6H227.091L239.173 304.242H159.149L147.066 413.6Z" fill="#F0F0F0"/>
<path d="M138.387 413.6H221.059L233.141 304.242H150.485L138.387 413.6Z" fill="#F5F5F5"/>
<path d="M215.084 404.99L225.263 312.867H156.449L146.27 404.99H215.084Z" fill="white"/>
<path d="M200.879 382.648L201.37 378.954C203.923 355.836 189.494 335.239 170.753 335.239L170.325 338.997C167.772 362.099 182.201 382.696 200.958 382.696L200.879 382.648Z" fill="#F5F5F5"/>
<path d="M93.6915 519.121H164.789V413.601H93.6915L93.6915 519.121Z" fill="#E6E6E6"/>
<path d="M100.831 519.12H93.6797V498.777H108.33L100.831 519.12Z" fill="#F0F0F0"/>
<path d="M292.953 519.121H364.051V413.601H292.953V519.121Z" fill="#E6E6E6"/>
<path d="M93.676 506.642H299.184V413.615H93.676V506.642Z" fill="#F0F0F0"/>
<path d="M292.031 519.12H299.182V498.777H284.531L292.031 519.12Z" fill="#F0F0F0"/>
<path d="M99.2244 456.966H293.633V419.419H99.2244V456.966Z" fill="#E6E6E6"/>
<path d="M183.469 443.963H209.393C214.967 443.965 220.482 442.83 225.603 440.627C230.723 438.424 235.339 435.2 239.17 431.151H153.691C157.524 435.198 162.141 438.421 167.261 440.623C172.38 442.826 177.895 443.962 183.469 443.963Z" fill="#F0F0F0"/>
<path d="M99.2244 500.569H293.633V463.023H99.2244V500.569Z" fill="#E6E6E6"/>
<path d="M183.469 487.503H209.393C214.967 487.505 220.482 486.37 225.603 484.167C230.723 481.964 235.339 478.74 239.17 474.691H153.691C157.524 478.738 162.141 481.961 167.261 484.163C172.38 486.366 177.895 487.502 183.469 487.503Z" fill="#F0F0F0"/>
<path d="M286.167 409.304H288.006C288.006 405.514 288.006 395.921 288.197 373.929C288.53 334.052 289.164 331.626 289.164 331.626L284.788 350.035C282.013 370.409 285.596 390.895 286.167 409.304Z" fill="#E6E6E6"/>
<path d="M282.536 347.242C276.194 339.742 262.795 337.554 249.033 335.683C243.626 334.954 263.223 347.306 272.816 356.074C280.269 362.892 285.025 364.779 287.087 371.565C288.133 363.098 287.959 353.759 282.536 347.242Z" fill="#E6E6E6"/>
<path d="M290.891 360.689C297.233 353.189 310.631 351.017 324.394 349.146C329.801 348.417 310.124 360.768 300.61 369.537C293.158 376.355 288.401 378.242 286.34 385.028C285.293 376.561 285.404 367.158 290.891 360.689Z" fill="#E6E6E6"/>
<path d="M288.198 329.801C292.955 320.827 304.784 312.36 318.118 309.189C323.351 307.936 305.989 325.742 299.393 337.238C294.271 346.149 287.485 356.645 286.423 364.193C284.837 349.32 283.473 338.823 288.198 329.801Z" fill="#E6E6E6"/>
<path d="M287.629 413.6C282.016 413.6 277.37 410.794 277.037 407.178L276.102 401.026H299.172L298.22 407.178C297.903 410.794 293.337 413.6 287.629 413.6Z" fill="#F0F0F0"/>
<path d="M300.66 403.388H274.609L273.863 396.522H301.405L300.66 403.388Z" fill="#F0F0F0"/>
<path d="M268.821 272.275L522.848 272.275V40.574L268.821 40.574V272.275Z" fill="#E6E6E6"/>
<path d="M263.114 272.275L520.359 272.275V40.574L263.114 40.574V272.275Z" fill="#F5F5F5"/>
<path d="M510.082 261.906V50.96L273.354 50.96V261.906H510.082Z" fill="#FAFAFA"/>
<path d="M481.052 261.906L387.883 50.96H356.234L449.403 261.906H481.052Z" fill="white"/>
<path d="M440.427 261.906L347.259 50.96H325.473L418.642 261.906H440.427Z" fill="white"/>
<path d="M361.258 261.891V50.9453H349.017V261.891H361.258Z" fill="#E6E6E6"/>
<path d="M442.633 261.891V50.9453H430.392V261.891H442.633Z" fill="#E6E6E6"/>
<path d="M359.059 268.487V43.2393H343.583V268.487H359.059Z" fill="#F5F5F5"/>
<path d="M440.43 268.487V43.2393H424.954V268.487H440.43Z" fill="#F5F5F5"/>
<path d="M274.465 261.908V50.9619H273.371V261.908H274.465Z" fill="#E6E6E6"/>
<path d="M258.801 27.2236H533.995C534.347 27.2277 534.683 27.3694 534.932 27.6183C535.181 27.8672 535.322 28.2036 535.326 28.5555C535.322 28.906 535.18 29.2407 534.931 29.4871C534.681 29.7334 534.345 29.8716 533.995 29.8716H258.801C258.45 29.8716 258.114 29.7334 257.864 29.4871C257.615 29.2407 257.473 28.906 257.469 28.5555C257.473 28.2036 257.615 27.8672 257.863 27.6183C258.112 27.3694 258.449 27.2277 258.801 27.2236Z" fill="#E6E6E6"/>
<path d="M522.846 35.9615C523.319 35.9574 523.771 35.7667 524.103 35.4312C524.436 35.0956 524.622 34.6423 524.622 34.1698V30.3327C524.624 30.0982 524.58 29.8656 524.492 29.6483C524.403 29.431 524.273 29.2333 524.108 29.0667C523.943 28.9002 523.746 28.7679 523.53 28.6777C523.313 28.5875 523.081 28.541 522.846 28.541C522.374 28.541 521.921 28.7276 521.585 29.0602C521.25 29.3928 521.059 29.8444 521.055 30.3169V34.154C521.055 34.6306 521.243 35.088 521.578 35.4266C521.914 35.7651 522.37 35.9574 522.846 35.9615Z" fill="#E6E6E6"/>
<path d="M278.745 35.9615C279.219 35.9574 279.672 35.7673 280.007 35.4322C280.342 35.0971 280.532 34.6438 280.536 34.1698V30.3327C280.536 29.8575 280.348 29.4018 280.012 29.0658C279.676 28.7298 279.22 28.541 278.745 28.541C278.274 28.541 277.822 28.7281 277.489 29.0612C277.156 29.3942 276.969 29.8459 276.969 30.3169V34.154C276.967 34.3893 277.011 34.6227 277.099 34.8409C277.187 35.059 277.317 35.2577 277.482 35.4256C277.647 35.5934 277.844 35.7272 278.06 35.8191C278.277 35.9111 278.509 35.9595 278.745 35.9615Z" fill="#E6E6E6"/>
<path opacity="0.6" d="M259.211 209.995L516.281 209.995V28.5409L259.211 28.5409V209.995Z" fill="#E0E0E0"/>
<path d="M539.559 324.998H495.226C490.514 324.998 486.695 328.817 486.695 333.528V354.046C486.695 358.757 490.514 362.576 495.226 362.576H539.559C544.27 362.576 548.089 358.757 548.089 354.046V333.528C548.089 328.817 544.27 324.998 539.559 324.998Z" fill="#FAFAFA"/>
<path d="M545.219 318.053H489.565C487.98 318.053 486.695 319.338 486.695 320.923V323.238C486.695 324.823 487.98 326.108 489.565 326.108H545.219C546.804 326.108 548.089 324.823 548.089 323.238V320.923C548.089 319.338 546.804 318.053 545.219 318.053Z" fill="#E6E6E6"/>
<path d="M487.598 404.324C487.598 404.324 488.406 430.756 519.198 430.756C549.99 430.756 550.799 404.324 550.799 404.324H487.598Z" fill="#F0F0F0"/>
<path d="M557.809 404.324C557.809 404.324 558.617 430.756 589.409 430.756C620.201 430.756 621.01 404.324 621.01 404.324H557.809Z" fill="#F0F0F0"/>
<path d="M605.757 307.983H544.87C538.39 307.983 533.137 313.237 533.137 319.717V350.858C533.137 357.338 538.39 362.591 544.87 362.591H605.757C612.237 362.591 617.49 357.338 617.49 350.858V319.717C617.49 313.237 612.237 307.983 605.757 307.983Z" fill="#F0F0F0"/>
<path d="M613.558 298.439H537.069C534.897 298.439 533.137 300.2 533.137 302.372V305.575C533.137 307.746 534.897 309.507 537.069 309.507H613.558C615.729 309.507 617.49 307.746 617.49 305.575V302.372C617.49 300.2 615.729 298.439 613.558 298.439Z" fill="#F5F5F5"/>
<path d="M464.403 519.121H472.395V388.088H464.403V519.121Z" fill="#E6E6E6"/>
<path d="M695.153 362.575H651.883V388.071H695.153V362.575Z" fill="#E6E6E6"/>
<path d="M436.735 388.087H651.867V362.591H436.735V388.087Z" fill="#F5F5F5"/>
<path d="M695.153 430.677H651.883V456.173H695.153V430.677Z" fill="#E6E6E6"/>
<path d="M436.735 456.173H651.867V430.677H436.735V456.173Z" fill="#F5F5F5"/>
<path d="M679.536 519.121H687.527V388.088H679.536V519.121Z" fill="#E6E6E6"/>
<path d="M643.891 519.121H651.883V388.088H643.891V519.121Z" fill="#F5F5F5"/>
<path d="M436.735 519.121H444.727V388.088H436.735V519.121Z" fill="#F5F5F5"/>
<path d="M396.398 590.726C566.186 590.726 703.827 582.69 703.827 572.777C703.827 562.864 566.186 554.828 396.398 554.828C226.609 554.828 88.9688 562.864 88.9688 572.777C88.9688 582.69 226.609 590.726 396.398 590.726Z" fill="#F5F5F5"/>
<path d="M412.901 492.324H210.628C207.376 492.278 204.261 491.004 201.908 488.757C199.556 486.51 198.14 483.457 197.944 480.21L179.805 128.924C179.704 127.361 179.927 125.795 180.461 124.323C180.994 122.851 181.825 121.504 182.903 120.369C183.981 119.233 185.282 118.332 186.724 117.722C188.166 117.113 189.719 116.807 191.284 116.826H393.557C396.809 116.868 399.923 118.139 402.276 120.383C404.629 122.627 406.046 125.678 406.242 128.924L424.349 480.21C424.45 481.771 424.227 483.335 423.696 484.806C423.165 486.277 422.337 487.623 421.263 488.759C420.188 489.896 418.892 490.799 417.453 491.412C416.015 492.026 414.465 492.336 412.901 492.324Z" fill="#F39325"/>
<path opacity="0.8" d="M412.901 492.324H210.628C207.376 492.278 204.261 491.004 201.908 488.757C199.556 486.51 198.14 483.457 197.944 480.21L179.805 128.924C179.704 127.361 179.927 125.795 180.461 124.323C180.994 122.851 181.825 121.504 182.903 120.369C183.981 119.233 185.282 118.332 186.724 117.722C188.166 117.113 189.719 116.807 191.284 116.826H393.557C396.809 116.868 399.923 118.139 402.276 120.383C404.629 122.627 406.046 125.678 406.242 128.924L424.349 480.21C424.45 481.771 424.227 483.335 423.696 484.806C423.165 486.277 422.337 487.623 421.263 488.759C420.188 489.896 418.892 490.799 417.453 491.412C416.015 492.026 414.465 492.336 412.901 492.324Z" fill="white"/>
<path d="M373.595 105.378H351.223V106.964H373.595V105.378Z" fill="#F39325"/>
<path d="M343.467 105.378H335.27V106.964H343.467V105.378Z" fill="#F39325"/>
<path d="M421.608 470.03H228.167C225.052 470 222.064 468.791 219.804 466.646C217.545 464.501 216.182 461.58 215.989 458.471L198.675 122.486C198.579 120.99 198.792 119.491 199.303 118.082C199.813 116.673 200.609 115.385 201.641 114.299C202.673 113.212 203.918 112.35 205.298 111.767C206.679 111.184 208.165 110.893 209.663 110.911H403.104C406.219 110.945 409.205 112.158 411.462 114.306C413.718 116.454 415.077 119.376 415.266 122.486L432.58 458.471C432.676 459.964 432.463 461.461 431.953 462.868C431.444 464.275 430.649 465.562 429.619 466.647C428.589 467.732 427.345 468.593 425.967 469.175C424.588 469.757 423.104 470.048 421.608 470.03Z" fill="#F39325"/>
<path d="M421.607 462.31H228.165C227.031 462.271 225.95 461.817 225.129 461.033C224.307 460.25 223.802 459.192 223.71 458.061L206.379 122.091C206.34 121.644 206.396 121.194 206.544 120.77C206.691 120.347 206.927 119.959 207.236 119.634C207.545 119.308 207.92 119.053 208.335 118.883C208.751 118.714 209.197 118.634 209.646 118.65H403.087C404.219 118.693 405.295 119.149 406.113 119.932C406.932 120.715 407.434 121.771 407.527 122.9L424.936 458.869C424.974 459.314 424.918 459.763 424.771 460.185C424.624 460.607 424.389 460.993 424.082 461.318C423.775 461.643 423.403 461.899 422.99 462.07C422.577 462.241 422.133 462.323 421.686 462.31H421.607ZM209.646 119.047C209.251 119.034 208.859 119.104 208.493 119.251C208.127 119.398 207.796 119.621 207.521 119.903C207.256 120.196 207.054 120.539 206.926 120.913C206.798 121.286 206.747 121.682 206.776 122.075L224.09 458.045C224.179 459.074 224.64 460.035 225.387 460.747C226.135 461.46 227.117 461.875 228.149 461.914H421.591C421.983 461.929 422.374 461.861 422.738 461.713C423.101 461.565 423.429 461.342 423.7 461.057C423.971 460.769 424.177 460.426 424.306 460.051C424.434 459.677 424.482 459.279 424.445 458.885L407.146 122.916C407.061 121.888 406.603 120.927 405.858 120.214C405.113 119.501 404.133 119.086 403.103 119.047H209.646Z" fill="white"/>
<path opacity="0.3" d="M353.945 241.098C375.946 218.52 374.514 181.44 350.745 158.277C326.975 135.114 289.871 134.64 267.869 157.217C245.867 179.795 247.3 216.875 271.069 240.038C294.838 263.201 331.943 263.675 353.945 241.098Z" fill="white"/>
<path d="M358.345 199.164C358.789 206.956 357.222 214.731 353.795 221.743C350.085 229.264 344.325 235.583 337.18 239.973C330.035 244.363 321.795 246.646 313.41 246.557C304.72 246.479 296.198 244.152 288.673 239.804C281.149 235.456 274.879 229.233 270.472 221.743C266.365 214.893 264.003 207.14 263.591 199.164C263.2 193.047 264.076 186.916 266.163 181.153C268.251 175.39 271.506 170.12 275.723 165.673C279.941 161.226 285.032 157.697 290.676 155.308C296.32 152.919 302.397 151.72 308.526 151.787C321.282 151.92 333.514 156.881 342.758 165.672C352.002 174.463 357.572 186.431 358.345 199.164Z" fill="white"/>
<path d="M353.744 221.743C350.034 229.264 344.275 235.583 337.13 239.973C329.985 244.364 321.745 246.646 313.359 246.557C304.669 246.479 296.147 244.153 288.623 239.804C281.099 235.456 274.828 229.233 270.422 221.743C282.471 213.422 296.782 208.994 311.425 209.058C326.46 209.115 341.157 213.52 353.744 221.743Z" fill="#F39325"/>
<path d="M325.595 198.063C333.522 189.929 333.003 176.567 324.436 168.218C315.869 159.87 302.498 159.696 294.571 167.83C286.645 175.965 287.164 189.326 295.731 197.675C304.297 206.023 317.668 206.197 325.595 198.063Z" fill="#F39325"/>
<path d="M393.872 339.316H242.401C241.082 339.302 239.817 338.789 238.861 337.88C237.904 336.971 237.328 335.733 237.248 334.416L236.107 312.218C236.067 311.586 236.159 310.954 236.375 310.359C236.591 309.765 236.928 309.221 237.364 308.763C237.8 308.305 238.326 307.941 238.909 307.695C239.492 307.449 240.12 307.327 240.752 307.334H392.223C393.54 307.348 394.803 307.858 395.759 308.764C396.714 309.67 397.292 310.904 397.376 312.218L398.518 334.416C398.56 335.049 398.47 335.683 398.254 336.28C398.039 336.876 397.703 337.421 397.266 337.882C396.83 338.342 396.303 338.707 395.719 338.953C395.135 339.2 394.506 339.323 393.872 339.316Z" fill="white"/>
<path opacity="0.3" d="M347.498 295.078H284.233C282.908 295.068 281.637 294.554 280.677 293.642C279.717 292.729 279.141 291.485 279.064 290.162L278.826 285.406C278.785 284.773 278.874 284.138 279.09 283.542C279.305 282.946 279.642 282.4 280.078 281.94C280.514 281.48 281.041 281.115 281.625 280.868C282.209 280.622 282.838 280.498 283.472 280.506H346.721C348.04 280.52 349.305 281.033 350.262 281.942C351.218 282.851 351.794 284.089 351.874 285.406L352.128 290.162C352.167 290.794 352.076 291.427 351.861 292.022C351.646 292.617 351.311 293.162 350.877 293.622C350.443 294.083 349.919 294.45 349.338 294.7C348.757 294.95 348.131 295.079 347.498 295.078Z" fill="black"/>
<path opacity="0.3" d="M371.026 446.042H276.256C274.012 446.014 271.861 445.139 270.235 443.592C268.609 442.046 267.627 439.941 267.488 437.702L266.933 426.761C266.877 425.686 267.04 424.61 267.414 423.6C267.787 422.59 268.362 421.667 269.104 420.887C269.846 420.106 270.739 419.485 271.728 419.061C272.718 418.637 273.784 418.419 274.861 418.421H369.599C371.843 418.449 373.994 419.323 375.62 420.87C377.246 422.417 378.228 424.521 378.367 426.761L378.922 437.702C378.978 438.774 378.816 439.847 378.444 440.855C378.073 441.863 377.501 442.784 376.762 443.564C376.024 444.344 375.135 444.966 374.149 445.392C373.163 445.818 372.1 446.039 371.026 446.042Z" fill="black"/>
<path d="M396.65 393.003H245.163C243.845 392.986 242.582 392.472 241.626 391.563C240.671 390.655 240.094 389.419 240.01 388.104L238.868 365.905C238.829 365.273 238.92 364.64 239.137 364.045C239.353 363.449 239.689 362.905 240.125 362.445C240.561 361.986 241.087 361.621 241.67 361.373C242.253 361.125 242.881 361 243.514 361.006H394.985C396.304 361.02 397.569 361.533 398.525 362.442C399.482 363.351 400.058 364.589 400.138 365.905L401.295 388.104C401.332 388.735 401.239 389.368 401.022 389.962C400.805 390.556 400.468 391.1 400.033 391.559C399.598 392.018 399.073 392.383 398.491 392.632C397.909 392.88 397.282 393.006 396.65 393.003Z" fill="white"/>
<path d="M261.622 323.316C261.666 324.016 261.564 324.718 261.324 325.378C261.084 326.038 260.711 326.641 260.227 327.15C259.744 327.659 259.16 328.063 258.514 328.336C257.867 328.609 257.171 328.746 256.469 328.738C255.01 328.721 253.613 328.152 252.557 327.146C251.501 326.14 250.865 324.771 250.777 323.316C250.731 322.616 250.83 321.914 251.068 321.254C251.306 320.594 251.678 319.991 252.16 319.482C252.643 318.973 253.225 318.569 253.871 318.295C254.517 318.022 255.212 317.885 255.914 317.893C257.374 317.91 258.773 318.478 259.832 319.484C260.891 320.49 261.53 321.858 261.622 323.316Z" fill="#263238"/>
<path d="M278.317 323.316C278.363 324.015 278.264 324.717 278.026 325.377C277.787 326.037 277.416 326.64 276.933 327.149C276.451 327.659 275.868 328.062 275.222 328.336C274.577 328.609 273.881 328.746 273.18 328.738C271.72 328.725 270.32 328.157 269.264 327.15C268.207 326.143 267.572 324.773 267.487 323.316C267.442 322.616 267.541 321.914 267.779 321.254C268.017 320.594 268.389 319.991 268.871 319.482C269.354 318.973 269.936 318.569 270.582 318.295C271.228 318.022 271.923 317.885 272.625 317.893C274.084 317.907 275.484 318.474 276.541 319.481C277.598 320.488 278.233 321.858 278.317 323.316Z" fill="#263238"/>
<path d="M294.918 323.316C294.964 324.015 294.864 324.717 294.626 325.377C294.388 326.037 294.016 326.64 293.534 327.149C293.051 327.659 292.469 328.062 291.823 328.336C291.177 328.609 290.482 328.746 289.78 328.738C288.32 328.721 286.921 328.153 285.862 327.147C284.804 326.141 284.164 324.773 284.072 323.316C284.029 322.615 284.13 321.913 284.37 321.253C284.61 320.593 284.983 319.99 285.467 319.481C285.951 318.972 286.534 318.568 287.181 318.295C287.827 318.022 288.524 317.885 289.226 317.893C290.684 317.91 292.082 318.479 293.138 319.485C294.194 320.491 294.83 321.86 294.918 323.316Z" fill="#263238"/>
<path d="M311.648 323.315C311.692 324.015 311.591 324.716 311.352 325.374C311.113 326.033 310.741 326.635 310.259 327.144C309.777 327.653 309.196 328.057 308.551 328.331C307.906 328.605 307.212 328.744 306.511 328.738C305.051 328.721 303.651 328.153 302.593 327.147C301.534 326.141 300.895 324.773 300.803 323.315C300.759 322.616 300.86 321.915 301.099 321.257C301.338 320.598 301.71 319.995 302.192 319.487C302.674 318.978 303.255 318.574 303.9 318.3C304.545 318.026 305.239 317.887 305.94 317.893C307.4 317.91 308.8 318.478 309.858 319.484C310.917 320.49 311.556 321.858 311.648 323.315Z" fill="#263238"/>
<path d="M264.43 376.973C264.475 377.673 264.376 378.375 264.138 379.034C263.9 379.694 263.528 380.297 263.046 380.807C262.563 381.316 261.981 381.72 261.335 381.993C260.689 382.267 259.994 382.404 259.292 382.396C257.832 382.378 256.433 381.81 255.374 380.804C254.315 379.799 253.676 378.43 253.584 376.973C253.54 376.272 253.642 375.57 253.882 374.91C254.122 374.25 254.495 373.647 254.979 373.138C255.462 372.629 256.046 372.226 256.692 371.952C257.339 371.679 258.035 371.542 258.737 371.55C260.196 371.568 261.593 372.136 262.649 373.142C263.705 374.148 264.341 375.517 264.43 376.973Z" fill="#263238"/>
<path d="M281.091 376.973C281.134 377.672 281.033 378.373 280.794 379.032C280.555 379.69 280.183 380.293 279.701 380.801C279.219 381.31 278.638 381.714 277.993 381.988C277.348 382.263 276.654 382.401 275.953 382.396C274.493 382.378 273.094 381.81 272.035 380.804C270.977 379.799 270.337 378.43 270.245 376.973C270.199 376.273 270.299 375.571 270.537 374.911C270.775 374.252 271.147 373.648 271.629 373.139C272.112 372.63 272.694 372.226 273.34 371.953C273.986 371.679 274.681 371.542 275.383 371.55C276.843 371.567 278.242 372.136 279.301 373.141C280.359 374.147 280.999 375.516 281.091 376.973Z" fill="#263238"/>
<path d="M297.755 376.973C297.798 377.674 297.697 378.376 297.457 379.035C297.217 379.695 296.844 380.298 296.36 380.807C295.876 381.316 295.293 381.72 294.646 381.993C294 382.267 293.304 382.403 292.602 382.396C291.142 382.382 289.742 381.814 288.685 380.807C287.629 379.801 286.994 378.43 286.909 376.973C286.863 376.273 286.963 375.571 287.201 374.911C287.439 374.252 287.811 373.648 288.293 373.139C288.776 372.63 289.358 372.226 290.004 371.953C290.65 371.679 291.345 371.542 292.047 371.55C293.507 371.567 294.906 372.136 295.965 373.141C297.024 374.147 297.663 375.516 297.755 376.973Z" fill="#263238"/>
<path d="M314.406 376.973C314.452 377.673 314.353 378.375 314.115 379.034C313.876 379.694 313.505 380.297 313.022 380.807C312.54 381.316 311.957 381.72 311.311 381.993C310.666 382.267 309.97 382.404 309.269 382.396C307.809 382.378 306.409 381.81 305.351 380.804C304.292 379.799 303.653 378.43 303.561 376.973C303.517 376.272 303.618 375.57 303.858 374.91C304.098 374.25 304.472 373.647 304.955 373.138C305.439 372.629 306.022 372.226 306.669 371.952C307.316 371.679 308.012 371.542 308.714 371.55C310.173 371.564 311.573 372.131 312.63 373.138C313.687 374.145 314.322 375.516 314.406 376.973Z" fill="#263238"/>
<path d="M331.07 376.973C331.116 377.673 331.017 378.374 330.779 379.034C330.541 379.694 330.169 380.297 329.686 380.806C329.204 381.316 328.621 381.72 327.976 381.993C327.33 382.266 326.634 382.403 325.933 382.395C324.473 382.378 323.073 381.81 322.015 380.804C320.956 379.799 320.317 378.43 320.225 376.973C320.181 376.273 320.282 375.572 320.521 374.914C320.76 374.255 321.132 373.653 321.614 373.144C322.096 372.635 322.677 372.231 323.322 371.957C323.967 371.683 324.661 371.544 325.362 371.55C326.822 371.567 328.222 372.135 329.28 373.141C330.339 374.147 330.978 375.515 331.07 376.973Z" fill="#263238"/>
<path d="M347.735 376.973C347.779 377.674 347.678 378.376 347.438 379.035C347.198 379.695 346.824 380.298 346.341 380.807C345.857 381.316 345.274 381.72 344.627 381.993C343.98 382.267 343.284 382.403 342.582 382.396C341.124 382.378 339.726 381.809 338.67 380.803C337.614 379.797 336.978 378.429 336.89 376.973C336.844 376.273 336.943 375.571 337.181 374.911C337.419 374.252 337.791 373.648 338.274 373.139C338.756 372.63 339.339 372.226 339.984 371.953C340.63 371.679 341.326 371.542 342.027 371.55C343.487 371.567 344.887 372.136 345.945 373.141C347.004 374.147 347.643 375.516 347.735 376.973Z" fill="#263238"/>
<path d="M528.001 192.839C528.398 193.441 528.604 193.759 528.857 194.187L529.571 195.36C530.031 196.153 530.443 196.946 530.839 197.722C531.632 199.308 532.425 200.894 533.059 202.479C534.388 205.628 535.532 208.853 536.484 212.135C538.404 218.62 539.668 225.281 540.258 232.019L540.369 233.271C540.382 233.525 540.382 233.779 540.369 234.032V234.873C540.395 235.975 540.331 237.078 540.178 238.171C539.874 240.196 539.343 242.18 538.593 244.085C537.2 247.488 535.355 250.688 533.107 253.598C528.914 258.968 523.937 263.677 518.345 267.567L513.969 262.446C517.951 257.949 521.478 253.067 524.497 247.875C525.856 245.519 526.921 243.005 527.668 240.391C527.971 239.283 528.147 238.145 528.191 236.997C528.24 236.507 528.24 236.013 528.191 235.523V235.19C528.207 235.042 528.207 234.893 528.191 234.746L528.001 233.636C526.982 227.727 525.54 221.898 523.688 216.195C522.769 213.356 521.643 210.613 520.517 207.934C519.962 206.586 519.328 205.27 518.694 204.001L517.711 202.13L517.219 201.258L516.807 200.561L528.001 192.839Z" fill="#803E3C"/>
<path d="M513.254 267.6L518.994 279.73L523.544 269.471C523.544 269.471 519.501 260.592 514.031 261.416L513.254 267.6Z" fill="#7F3E3B"/>
<path d="M523.099 280.332L527.665 272.848L523.543 269.471L518.992 279.729L523.099 280.332Z" fill="#7F3E3B"/>
<path d="M497.284 560.06C498.471 560.031 499.651 559.871 500.804 559.585C500.862 559.567 500.915 559.534 500.957 559.489C500.998 559.445 501.028 559.39 501.042 559.331C501.051 559.27 501.043 559.207 501.018 559.151C500.992 559.095 500.951 559.047 500.899 559.014C500.439 558.712 496.412 556.112 494.858 556.81C494.686 556.89 494.538 557.015 494.429 557.171C494.321 557.326 494.255 557.508 494.239 557.698C494.191 557.985 494.214 558.279 494.305 558.555C494.396 558.831 494.553 559.081 494.763 559.283C495.482 559.838 496.377 560.114 497.284 560.06ZM499.9 559.125C497.601 559.6 495.857 559.521 495.143 558.903C494.998 558.758 494.891 558.579 494.833 558.383C494.774 558.186 494.767 557.978 494.81 557.777C494.81 557.507 494.969 557.428 495.08 557.381C495.936 557 498.267 558.126 499.9 559.125Z" fill="#F39325"/>
<path d="M500.726 559.585H500.884C500.932 559.554 500.971 559.511 500.999 559.462C501.027 559.412 501.042 559.356 501.043 559.299C501.043 559.141 501.043 555.319 499.584 554.035C499.405 553.874 499.193 553.754 498.963 553.683C498.733 553.612 498.491 553.591 498.252 553.623C498.002 553.625 497.76 553.713 497.567 553.871C497.374 554.03 497.241 554.25 497.19 554.495C496.889 556.001 499.299 558.855 500.567 559.585H500.726ZM498.458 554.21C498.587 554.206 498.714 554.228 498.834 554.274C498.954 554.32 499.063 554.39 499.156 554.479C499.992 555.712 500.425 557.175 500.393 558.665C499.124 557.65 497.618 555.494 497.808 554.59C497.808 554.447 497.919 554.257 498.316 554.21H498.458Z" fill="#F39325"/>
<path d="M482.315 553.591C482.353 553.545 482.377 553.489 482.385 553.43C482.394 553.371 482.386 553.311 482.363 553.256C482.341 553.201 482.304 553.153 482.256 553.117C482.209 553.081 482.152 553.059 482.093 553.052C481.443 553.052 475.751 552.783 474.451 554.178V554.273C474.343 554.41 474.274 554.573 474.249 554.746C474.224 554.918 474.244 555.094 474.308 555.256C474.393 555.528 474.543 555.776 474.744 555.978C474.946 556.179 475.193 556.329 475.466 556.414C477.305 556.984 480.555 554.907 482.331 553.623L482.315 553.591ZM474.927 554.59C475.64 553.829 478.779 553.623 481.126 553.655C478.668 555.335 476.623 556.128 475.592 555.811C475.413 555.757 475.249 555.659 475.117 555.526C474.984 555.393 474.886 555.23 474.831 555.05C474.799 554.989 474.783 554.921 474.783 554.852C474.783 554.783 474.799 554.715 474.831 554.654L474.927 554.59Z" fill="#F39325"/>
<path d="M482.318 553.59C482.342 553.541 482.354 553.487 482.354 553.432C482.354 553.377 482.342 553.323 482.318 553.273C482.238 553.146 480.463 550.102 478.37 549.468C478.069 549.38 477.754 549.354 477.443 549.392C477.132 549.43 476.832 549.532 476.562 549.69C475.801 550.134 475.753 550.657 475.849 550.99C476.261 552.465 480.304 553.765 482.048 553.749C482.103 553.748 482.157 553.733 482.204 553.705C482.251 553.677 482.29 553.638 482.318 553.59ZM476.626 550.419C476.715 550.331 476.816 550.257 476.927 550.197C477.122 550.072 477.343 549.992 477.573 549.962C477.803 549.932 478.037 549.953 478.259 550.023C479.638 550.387 480.922 552.163 481.509 553.035C479.622 552.829 476.752 551.672 476.515 550.784C476.494 550.716 476.494 550.645 476.514 550.577C476.533 550.51 476.572 550.449 476.626 550.403V550.419Z" fill="#F39325"/>
<path d="M499.775 146.397C498.189 154.325 494.764 171.466 500.266 176.73C500.266 176.73 498.11 184.658 483.475 184.658C467.366 184.658 475.785 176.73 475.785 176.73C484.569 174.637 484.347 168.104 482.809 161.984L499.775 146.397Z" fill="#7F3E3B"/>
<path d="M472.947 127.814C473.036 127.828 473.128 127.828 473.217 127.814C473.292 127.776 473.359 127.725 473.414 127.662C473.47 127.598 473.512 127.525 473.538 127.445C473.565 127.365 473.575 127.281 473.569 127.198C473.563 127.114 473.54 127.032 473.502 126.957C473.076 126.053 472.438 125.264 471.644 124.657C470.849 124.05 469.92 123.643 468.936 123.469C468.771 123.455 468.606 123.505 468.477 123.608C468.347 123.711 468.262 123.86 468.238 124.024C468.22 124.19 468.268 124.356 468.372 124.487C468.476 124.617 468.627 124.702 468.793 124.722C469.57 124.871 470.301 125.203 470.924 125.691C471.547 126.18 472.045 126.809 472.376 127.528C472.438 127.622 472.523 127.698 472.623 127.748C472.724 127.798 472.835 127.821 472.947 127.814Z" fill="#263238"/>
<path d="M468.142 134.774C466.894 137.089 465.336 139.223 463.512 141.117C464.006 141.569 464.592 141.908 465.23 142.11C465.868 142.313 466.542 142.374 467.206 142.29L468.142 134.774Z" fill="#630F0F"/>
<path d="M469.335 132.983C469.208 134.045 468.526 134.838 467.844 134.759C467.162 134.68 466.687 133.744 466.813 132.682C466.94 131.619 467.622 130.827 468.399 130.906C469.176 130.985 469.446 131.921 469.335 132.983Z" fill="#263238"/>
<path d="M468.602 131.001L466.16 130.018C466.16 130.018 467.191 132.111 468.602 131.001Z" fill="#263238"/>
<path d="M496.318 550.579L483.38 553.591L475.516 523.846L488.454 520.833L496.318 550.579Z" fill="#7F3E3B"/>
<path d="M516.17 559.267H502.898L503.929 528.522H517.216L516.17 559.267Z" fill="#7F3E3B"/>
<path d="M501.834 557.729H516.754C517.013 557.726 517.264 557.818 517.459 557.988C517.655 558.157 517.782 558.392 517.816 558.648L519.513 570.445C519.547 570.743 519.517 571.045 519.425 571.331C519.333 571.617 519.182 571.88 518.982 572.104C518.781 572.327 518.535 572.505 518.26 572.626C517.986 572.748 517.689 572.809 517.388 572.807C512.188 572.728 509.682 572.411 503.118 572.411C499.075 572.411 493.177 572.839 487.611 572.839C482.046 572.839 481.729 567.321 484.059 566.83C494.461 564.578 496.11 561.502 499.614 558.553C500.233 558.024 501.02 557.732 501.834 557.729Z" fill="#263238"/>
<path d="M482.239 551.609L495.795 545.377C496.026 545.267 496.288 545.246 496.533 545.316C496.779 545.386 496.99 545.543 497.127 545.758L503.612 555.779C503.764 556.037 503.859 556.323 503.893 556.621C503.927 556.918 503.898 557.219 503.809 557.504C503.719 557.789 503.571 558.053 503.373 558.277C503.175 558.502 502.933 558.682 502.661 558.807C497.904 560.9 495.494 561.677 489.532 564.42C485.87 566.101 478.433 569.97 473.391 572.348C468.349 574.726 465.749 569.795 467.651 568.368C476.166 562.026 478.608 557.475 480.558 553.337C480.888 552.575 481.486 551.96 482.239 551.609Z" fill="#263238"/>
<path opacity="0.2" d="M475.516 523.846L479.733 539.797L492.513 536.166L488.47 520.833L475.516 523.846Z" fill="black"/>
<path opacity="0.2" d="M517.213 528.522H503.926L503.402 544.378H516.69L517.213 528.522Z" fill="black"/>
<path d="M523.24 179.742C528.758 180.963 534.656 200.798 534.656 200.798L519.054 217.4C519.054 217.4 506.1 198.753 508.748 191.903C511.427 184.752 516.66 178.315 523.24 179.742Z" fill="#263238"/>
<path opacity="0.4" d="M514.429 192.379C511.638 189.827 509.751 190.588 508.467 192.617C507.199 198.516 514.714 210.867 517.743 215.545C519.138 209.963 520.739 198.198 514.429 192.379Z" fill="black"/>
<path d="M453.332 180.139C453.332 180.139 446.989 182.358 459.674 260.29H513.584C512.68 238.345 512.648 224.804 523.097 179.742C515.543 178.184 507.886 177.177 500.186 176.73C492.036 176.142 483.854 176.142 475.704 176.73C465.255 177.697 453.332 180.139 453.332 180.139Z" fill="#263238"/>
<path opacity="0.4" d="M452.84 210.043C453.189 213.833 453.648 218.098 454.251 222.918C458.675 218.939 462.29 207.618 460.958 201.021C457.798 203.587 455.058 206.631 452.84 210.043Z" fill="black"/>
<path d="M458.614 198.199C455.705 205.52 452.429 212.691 448.799 219.683C445.211 226.928 440.965 233.828 436.114 240.296L435.099 241.548L434.592 242.167C434.418 242.373 434.275 242.563 434.005 242.849C433.051 243.89 431.988 244.825 430.834 245.639C428.795 247.051 426.563 248.162 424.207 248.937C420.097 250.25 415.831 251.007 411.522 251.189C403.451 251.51 395.372 250.79 387.484 249.048L388.356 242.389C392.003 242.389 395.825 242.389 399.456 242.088C403.102 241.908 406.735 241.506 410.333 240.882C413.674 240.361 416.942 239.446 420.068 238.155C421.331 237.616 422.51 236.901 423.572 236.031C423.978 235.691 424.344 235.308 424.666 234.889C424.666 234.889 424.857 234.635 424.983 234.461L425.348 233.938L426.093 232.891C430.072 226.746 433.617 220.329 436.701 213.69C439.872 206.951 443.043 199.959 445.945 193.077L458.614 198.199Z" fill="#803E3C"/>
<path d="M453.332 180.138C446.72 181.724 438.602 199.863 438.602 199.863L452.301 220C452.301 220 470.551 197.025 468.379 190.017C466.159 182.707 461.402 178.172 453.332 180.138Z" fill="#263238"/>
<path d="M392.16 243.402L380.728 238.122L379.586 249.491C379.586 249.491 389.099 252.297 393.856 249.491L392.16 243.402Z" fill="#7F3E3B"/>
<path d="M373.895 236.981L372.801 245.639L379.587 249.492L380.729 238.123L373.895 236.981Z" fill="#7F3E3B"/>
<path d="M505.514 133.76C503.088 146.715 502.343 152.264 494.923 158.147C483.824 166.994 468.364 161.191 466.874 147.777C465.51 135.695 469.696 116.541 483.126 112.894C486.084 112.078 489.202 112.033 492.183 112.764C495.163 113.495 497.907 114.978 500.152 117.07C502.397 119.162 504.069 121.795 505.007 124.717C505.946 127.638 506.121 130.752 505.514 133.76Z" fill="#7F3E3B"/>
<path d="M477.053 136.487C476.308 143.098 476.022 160.27 490.546 160.809C508.321 161.459 513.648 146.27 512.063 140.197C521.322 132.665 522.654 119.711 512.253 109.801C501.851 99.8912 478.956 105.425 472.613 115.081C464.574 127.052 477.053 136.487 477.053 136.487Z" fill="#263238"/>
<path d="M494.857 113.656C494 106.679 494.666 101.875 501.199 101.875C507.732 101.875 516.642 104.238 519.909 110.913C523.175 117.588 523.445 128.037 514.328 126.975C505.21 125.912 495.887 121.996 494.857 113.656Z" fill="#F39325"/>
<path d="M504.977 111.974C503.392 103.666 510.828 80.2625 528.888 78.6769C537.26 77.9634 541.129 86.9695 536.816 88.46C544.744 88.3648 549.818 98.8455 542.429 100.415C548.264 104.157 546.821 111.831 538.497 115.605C532.297 118.459 507.118 123.486 504.977 111.974Z" fill="#263238"/>
<path d="M524.271 120.9C518.452 120.9 512.379 120.044 508.605 117.523C507.55 116.887 506.662 116.009 506.014 114.961C505.366 113.913 504.977 112.726 504.879 111.498C504.875 111.394 504.91 111.291 504.977 111.212C505.045 111.133 505.14 111.082 505.244 111.07C505.296 111.063 505.35 111.068 505.401 111.083C505.451 111.098 505.498 111.123 505.539 111.158C505.579 111.192 505.612 111.234 505.635 111.282C505.658 111.33 505.67 111.382 505.672 111.434C505.768 112.543 506.123 113.613 506.71 114.558C507.297 115.503 508.098 116.296 509.049 116.873C516.232 121.63 532.833 120.044 538.002 118.459C542.473 117 545.502 114.162 546.105 110.895C546.292 109.697 546.144 108.47 545.677 107.35C545.209 106.23 544.441 105.262 543.457 104.553C543.419 104.517 543.388 104.474 543.368 104.427C543.347 104.379 543.336 104.328 543.336 104.276C543.336 104.224 543.347 104.172 543.368 104.124C543.388 104.077 543.419 104.034 543.457 103.998C543.531 103.925 543.63 103.885 543.734 103.885C543.838 103.885 543.937 103.925 544.012 103.998C545.118 104.806 545.979 105.905 546.497 107.173C547.015 108.442 547.17 109.829 546.945 111.181C546.295 114.748 543.076 117.793 538.319 119.347C533.729 120.504 529.003 121.026 524.271 120.9Z" fill="#263238"/>
<path d="M473.01 134.775C471.534 136.846 470.925 139.412 471.314 141.926C471.837 145.256 475.072 145.478 477.418 143.353C479.765 141.228 481.81 137.391 480.082 134.632C479.698 134.036 479.168 133.549 478.542 133.216C477.916 132.882 477.215 132.715 476.506 132.729C475.798 132.744 475.104 132.939 474.492 133.297C473.88 133.655 473.37 134.164 473.01 134.775Z" fill="#7F3E3B"/>
<path d="M473.914 260.29C473.914 260.29 481.62 351.445 489.627 402.818C496.08 444.313 501.186 541.303 501.186 541.303H519.293C519.293 541.303 525.731 447.215 522.465 406.18C514.172 302.324 532.676 293.857 513.633 260.306L473.914 260.29Z" fill="#F39325"/>
<path opacity="0.4" d="M496.714 294.745C489.538 302.277 483.746 311.015 479.605 320.558C481.714 341.044 484.22 363.781 486.883 383.696C497.814 355.399 501.201 324.746 496.714 294.745Z" fill="black"/>
<path d="M461.243 259.718C461.243 259.718 444.515 359.277 441.883 404.149C448.447 445.643 475.307 533.358 475.307 533.358L491.781 527.38C491.781 527.38 482.664 431.738 472.754 405.56C495.063 330.451 511.458 311.455 506.686 260.289C495.254 260.289 461.243 259.718 461.243 259.718Z" fill="#F39325"/>
<path d="M473.104 537.736L495.365 531.695L494.097 522.815L470.266 529.269L473.104 537.736Z" fill="#263238"/>
<path d="M498.693 541.668H521.764L522.969 533.581L498.566 532.757L498.693 541.668Z" fill="#263238"/>
<path d="M514.423 257.119L516.849 261.955C517.039 262.335 516.595 262.716 515.977 262.716H459.403C458.928 262.716 458.515 262.478 458.484 262.161L457.992 257.404C457.992 257.071 458.389 256.786 458.912 256.786H513.535C513.699 256.763 513.866 256.782 514.021 256.84C514.176 256.898 514.314 256.994 514.423 257.119Z" fill="#F39325"/>
<path opacity="0.5" d="M514.423 257.119L516.849 261.955C517.039 262.335 516.595 262.716 515.977 262.716H459.403C458.928 262.716 458.515 262.478 458.484 262.161L457.992 257.404C457.992 257.071 458.389 256.786 458.912 256.786H513.535C513.699 256.763 513.866 256.782 514.021 256.84C514.176 256.898 514.314 256.994 514.423 257.119Z" fill="black"/>
<path d="M507.085 263.207H508.544C508.845 263.207 509.067 263.049 509.052 262.875L508.354 256.532C508.354 256.342 508.084 256.199 507.799 256.199H506.324C506.039 256.199 505.817 256.342 505.833 256.532L506.515 262.875C506.546 263.081 506.8 263.207 507.085 263.207Z" fill="#F39325"/>
<path d="M487.453 217.035C487.278 217.033 487.108 216.974 486.969 216.869C486.829 216.763 486.726 216.616 486.676 216.449C481.507 197.326 470.82 181.566 465.635 179.187C465.232 178.94 464.748 178.86 464.287 178.965C464.192 179.016 464.087 179.046 463.979 179.054C463.871 179.063 463.762 179.049 463.66 179.014C463.558 178.979 463.464 178.923 463.384 178.85C463.304 178.777 463.239 178.688 463.195 178.59C463.151 178.491 463.127 178.384 463.125 178.276C463.123 178.168 463.144 178.06 463.185 177.96C463.227 177.86 463.288 177.77 463.366 177.695C463.444 177.619 463.536 177.561 463.637 177.523C464.071 177.363 464.534 177.301 464.994 177.339C465.454 177.377 465.9 177.516 466.301 177.744C471.787 180.345 482.633 195.884 488.055 215.434C491.94 215.434 497.933 214.911 499.392 214.784C501.2 212.627 514.487 196.01 509.524 177.824C509.495 177.724 509.487 177.619 509.5 177.516C509.512 177.413 509.545 177.313 509.597 177.223C509.649 177.133 509.718 177.054 509.801 176.991C509.884 176.928 509.978 176.882 510.079 176.857C510.281 176.803 510.496 176.831 510.677 176.935C510.858 177.039 510.991 177.21 511.046 177.412C516.58 197.644 500.534 215.894 500.359 216.068C500.298 216.145 500.221 216.209 500.133 216.255C500.046 216.301 499.95 216.329 499.852 216.338C499.773 216.338 491.861 217.035 487.453 217.035Z" fill="#F39325"/>
<path d="M513.726 228.228C505.085 212.039 501.549 210.897 500.011 205.697C501.176 202.788 502.839 200.106 504.926 197.769C503.88 197.467 501.628 197.023 500.169 196.754C500.328 196.04 500.502 195.343 500.661 194.661C499.074 194.483 497.468 194.558 495.904 194.883V193.297C493.89 192.859 491.822 192.726 489.768 192.901C489.948 193.651 490.122 194.413 490.291 195.184C488.706 195.485 486.295 195.977 485.138 196.31C487.387 198.857 489.039 201.875 489.974 205.142C485.312 213.149 467.205 264.617 496.665 268.565C526.125 272.513 522.352 244.432 513.726 228.228Z" fill="#F39325"/>
<path opacity="0.4" d="M513.726 228.228C505.085 212.039 501.549 210.897 500.011 205.697C501.176 202.788 502.839 200.106 504.926 197.769C503.88 197.467 501.628 197.023 500.169 196.754C500.328 196.04 500.502 195.343 500.661 194.661C499.074 194.483 497.468 194.558 495.904 194.883V193.297C493.89 192.859 491.822 192.726 489.768 192.901C489.948 193.651 490.122 194.413 490.291 195.184C488.706 195.485 486.295 195.977 485.138 196.31C487.387 198.857 489.039 201.875 489.974 205.142C485.312 213.149 467.205 264.617 496.665 268.565C526.125 272.513 522.352 244.432 513.726 228.228Z" fill="white"/>
<path d="M488.77 203.605C488.586 204.421 488.506 205.258 488.532 206.094C488.532 206.681 490.118 207.077 491.878 207.252C493.638 207.426 501.026 207.711 500.789 206.887C500.551 206.062 501.153 204.937 501.185 204.239C501.217 203.541 498.252 203.51 495.762 203.605C493.273 203.7 489.261 202.717 488.77 203.605Z" fill="#F39325"/>
<path d="M471.632 263.207H473.09C473.376 263.207 473.598 263.049 473.582 262.875L472.9 256.532C472.9 256.342 472.631 256.199 472.329 256.199H470.918C470.633 256.199 470.411 256.342 470.427 256.532L471.108 262.875C471.077 263.081 471.33 263.207 471.632 263.207Z" fill="#F39325"/>
</svg>
