<svg width="1085" height="803" viewBox="0 0 1085 803" fill="none" xmlns="http://www.w3.org/2000/svg">
<path d="M214 636.2C209.5 669.4 196.1 796.6 278.8 886.8C303.5 913.7 337.2 937.7 395.4 958.1C530.8 1005.4 656.4 983 877.1 934.3C1027.1 901.2 1157.6 870 1263.7 843.6C1236.8 788 1164.5 657.5 1011 562.8C831.9 452.4 655.3 460.4 596.2 465.7C468.8 522.5 341.4 579.4 214 636.2Z" fill="#F39325"/>
<path d="M653.5 527.2C707 526.7 760.8 535.2 812 551.6C837.7 559.7 862.7 570.1 886.8 582.1C898.9 588.1 910.6 594.7 922.2 601.7L926.5 604.3C927.9 605.2 929.3 606.1 930.8 607C933.6 608.8 936.5 610.6 939.3 612.5C944.9 616.3 950.5 620 956 624C967 631.8 977.5 640.2 987.9 648.9L995.6 655.5C996.9 656.6 998.1 657.7 999.4 658.9L1003.1 662.3C1008.1 666.8 1013 671.5 1017.8 676.2C1027.3 685.7 1036.5 695.6 1045.4 705.7L1051.9 713.4C1054.1 716 1056.2 718.6 1058.3 721.2L1061.4 725.2L1064.5 729.2C1066.5 731.9 1068.6 734.5 1070.6 737.3C1086.7 758.9 1100.9 781.8 1113.4 805.6C1119.6 817.5 1125.4 829.6 1130.7 841.9C1136 854.2 1140.8 866.7 1144.9 879.5C1124.1 830.2 1097.1 783.9 1064.4 742C1062.4 739.4 1060.3 736.8 1058.2 734.2L1055.1 730.3L1051.9 726.5C1049.7 724 1047.7 721.4 1045.5 718.9L1038.9 711.4C1030 701.6 1020.8 692.1 1011.3 682.8C1001.7 673.7 991.9 664.7 981.7 656.3C971.5 647.9 961.1 639.7 950.2 632.1C944.9 628.1 939.3 624.5 933.9 620.8C931.2 618.9 928.3 617.2 925.6 615.4C924.2 614.5 922.8 613.6 921.4 612.7L917.2 610.1C911.6 606.6 905.8 603.3 900.1 600L891.4 595.2C888.5 593.6 885.5 592.1 882.6 590.5C870.9 584.4 858.9 578.7 846.7 573.4L837.5 569.6L828.3 565.9C822.1 563.5 815.9 561.2 809.6 559C759.5 541.4 706.9 530.8 653.5 527.2Z" fill="#A96955"/>
<path d="M858.7 693.5C882.6 703.8 904.9 717.7 925.2 734.3L929 737.4C930.3 738.4 931.5 739.5 932.7 740.6L940 747.2C942.4 749.5 944.7 751.8 947 754.1C948.2 755.3 949.4 756.4 950.5 757.6L953.9 761.2L957.3 764.8C958.4 766 959.5 767.2 960.6 768.5L967 776C968.1 777.2 969.1 778.5 970.1 779.8L973.1 783.7L976.1 787.6C977.1 788.9 978.1 790.2 979 791.6C982.7 797.1 986.5 802.4 989.8 808.1L994.9 816.5L999.6 825.1C1005.7 836.7 1011 848.8 1015.5 861.1C1020 873.4 1023.6 886 1026.3 898.8C1028.9 911.6 1030.9 924.5 1031.6 937.5C1028.7 924.8 1025.5 912.3 1021.6 900.1C1017.7 887.8 1013.3 875.8 1008.2 864C1003.2 852.2 997.5 840.8 991.3 829.6L986.5 821.3L981.4 813.2C978.2 807.7 974.4 802.6 970.8 797.3C963.3 787 955.5 776.9 947 767.4L943.8 763.8C942.7 762.6 941.6 761.5 940.5 760.3C938.3 758 936.1 755.6 933.9 753.4L927.1 746.7C926 745.6 924.8 744.5 923.6 743.4L920.1 740.1C910.7 731.4 900.8 723.2 890.6 715.4C880.4 707.7 869.6 700.5 858.7 693.5Z" fill="#A96955"/>
<path d="M650.3 689.2C675.9 705.7 699.4 725.6 720.6 747.7C723.2 750.5 725.9 753.3 728.5 756.1C731 759 733.6 761.8 736.1 764.7C741.1 770.5 745.9 776.5 750.6 782.6L754.1 787.2C755.3 788.7 756.3 790.3 757.5 791.9L764.2 801.3C765.3 802.8 766.3 804.5 767.4 806.1L770.5 810.9C772.6 814.1 774.7 817.3 776.7 820.6C784.7 833.7 791.9 847.3 798.6 861.1C805 875 810.9 889.2 815.9 903.7C825.9 932.6 832.9 962.6 836.2 992.9C828.8 963.4 819.8 934.5 808.6 906.5C802.9 892.6 796.7 878.8 790 865.3C786.5 858.7 783.2 851.9 779.4 845.4L776.7 840.5C775.8 838.9 774.9 837.2 773.9 835.6L768.1 825.9C752.5 800.2 734.6 775.9 714.9 753.1C709.9 747.4 704.9 741.8 699.7 736.3C694.6 730.8 689.2 725.4 683.9 720.1C678.5 714.8 673 709.6 667.4 704.5C664.6 702 661.8 699.4 658.9 696.9C656 694.1 653.1 691.7 650.3 689.2Z" fill="#A96955"/>
<path d="M596.2 465.7C592 465.4 589.1 465.1 587.7 464.9C578.3 463.5 557.8 447.3 557.1 423.1C556.4 399 557.1 365.5 557.1 365.5L422.6 361.7C422.6 361.7 432.2 461.1 397.6 465.9C396.6 466 395.6 466.2 394.6 466.3C411.8 481.3 440.1 499.7 478.8 503.9C534.3 509.7 576 482.7 596.2 465.7Z" fill="#A96955"/>
<path d="M341.5 190.8C336.3 201.6 359.3 290.4 371.5 298.4C369.7 269.1 368 239.8 366.2 210.5C363.7 206.8 346.4 180.5 341.5 190.8Z" fill="#A96955"/>
<path d="M611.1 81.1001L371.7 88.3001L366.4 211C366.4 211 366.3 210.8 366.1 210.6C367.9 239.9 369.6 269.2 371.4 298.5C371.6 298.7 371.9 298.8 372.1 298.9C375.1 311.3 380.8 329.5 392.3 349.1C401.6 364.8 435.7 422.8 485.9 423.3C516.8 423.6 539.4 402 559.8 382.5C590.2 353.5 603.8 319.5 613.3 295.7C615.3 251.6 615.3 187.1 615.3 187.1L611.1 81.1001Z" fill="black"/>
<path d="M633.3 192.2C616 193.6 616 203.2 616 203.2L615.3 186.9C615.3 186.9 615.3 251.5 613.3 295.5C613.4 295.3 613.5 295.1 613.6 294.8C619.7 279.5 613.5 286 629.4 243.5C635.2 228.2 650.6 190.8 633.3 192.2Z" fill="#A96955"/>
<path d="M894.4 637.7C849 598.8 732.4 483.6 707.2 477.1C685.7 471.6 620.6 467.6 596.2 465.7C576 482.7 534.2 509.8 478.7 503.8C440 499.6 411.8 481.3 394.5 466.2C359.6 469.8 302.4 456 275.9 472.1C248.6 488.6 57.7998 651.4 13.8998 706.8C-30.0002 762.2 48.4998 822.8 48.4998 822.8L152.9 821.6C152.9 821.6 111.2 758.3 97.0998 752.9C97.0998 752.9 254.4 655 271 648.5L334.3 860L647.5 852.1L710.9 649.9C710.9 649.9 848.4 748.5 875.1 755.7C875.1 755.7 846.3 811.9 813.2 835.6L938.5 830.6C938.5 830.6 975.9 779.5 981.7 762.2C987.3 745 939.8 676.6 894.4 637.7Z" fill="#623D91"/>
<path d="M594.9 122.2C587.6 119.7 578.6 140.6 564.3 139.2C553.7 138.2 553 126.1 541.6 122.2C524.4 116.3 513.9 140.7 491.2 140.9C460.5 141.1 450.3 106.2 425 108.5C400 110.8 384.8 147.1 381.1 156C365.8 192.6 375.1 226.4 386.1 266.2C393.7 293.8 405.9 337.6 434.3 345.4C445.5 348.5 455.2 346.1 455.2 346.1C474.4 341.4 475.6 324.5 489 323.1C503.9 321.5 508.9 341.5 532.9 345.4C532.9 345.4 543.2 347.1 555.2 344C581.7 337.1 598.8 262.4 599.1 163.3C599.2 158.6 603.7 125.1 594.9 122.2Z" fill="#A96955"/>
<path d="M433.4 241C441.242 241 447.6 234.643 447.6 226.8C447.6 218.958 441.242 212.6 433.4 212.6C425.557 212.6 419.2 218.958 419.2 226.8C419.2 234.643 425.557 241 433.4 241Z" fill="black"/>
<path d="M541.4 241C549.242 241 555.6 234.643 555.6 226.8C555.6 218.958 549.242 212.6 541.4 212.6C533.557 212.6 527.2 218.958 527.2 226.8C527.2 234.643 533.557 241 541.4 241Z" fill="black"/>
<path d="M600 751.3L438.7 777.9L403.3 563L505 546.3L574.7 598.3L600 751.3Z" fill="#F39325"/>
<path d="M575.9 597.9L515.2 607.9L505.1 546.2" fill="#D4EDFC"/>
<path d="M496.978 576.343L431.362 587.156L432.305 592.879L497.921 582.066L496.978 576.343Z" fill="#D4EDFC"/>
<path d="M500.573 598.349L434.958 609.162L435.901 614.885L501.516 604.072L500.573 598.349Z" fill="#D4EDFC"/>
<path d="M558.313 614.837L439.12 634.479L440.063 640.202L559.257 620.56L558.313 614.837Z" fill="#D4EDFC"/>
<path d="M562.511 640.133L443.317 659.775L444.26 665.498L563.454 645.856L562.511 640.133Z" fill="#D4EDFC"/>
<path d="M566.609 665.446L447.416 685.088L448.359 690.811L567.552 671.169L566.609 665.446Z" fill="#D4EDFC"/>
<path d="M570.823 690.84L451.629 710.482L452.572 716.205L571.766 696.563L570.823 690.84Z" fill="#D4EDFC"/>
<path d="M575.02 716.137L455.827 735.779L456.77 741.502L575.964 721.86L575.02 716.137Z" fill="#D4EDFC"/>
<path d="M554.9 292.4C545.7 303 536.1 311.7 522 309.1C513.7 307.6 505.6 303.8 498 299.9C493.4 297.5 489.9 297.5 485.5 299.5C475.2 304 464.4 306.3 453.1 306.8C441 307.3 433 301.7 426.6 290.4C429.5 291.6 431.4 292.3 433.1 293.2C441.2 297.2 448.8 296.2 456.3 291.6C459.4 289.7 462.8 288.3 465.8 286.2C472.8 281.4 479.7 281.4 486.8 285.5C490.2 287.5 493.5 287.9 496.9 285.6C506.3 279.2 514.6 280.5 521.8 289.1C529 297.7 537.9 297.9 547.6 294.5C549.9 293.8 551.9 293.3 554.9 292.4Z" fill="black"/>
<path d="M518.9 190.6C526.3 189.6 537.5 188.9 550.6 191.7C567.6 195.3 579.7 203 586.2 207.9C571.1 203.2 558.5 201.9 549.5 201.8C533.5 201.5 519.8 204.4 517.1 198.9C515.9 196.3 517.4 193 518.9 190.6Z" fill="black"/>
<path d="M455.2 190.9C447.8 189.9 436.6 189.2 423.5 192C406.5 195.6 394.4 203.3 387.9 208.2C403 203.5 415.6 202.2 424.6 202.1C440.6 201.8 454.3 204.7 457 199.2C458.3 196.7 456.8 193.4 455.2 190.9Z" fill="black"/>
<path d="M370.2 235.6C369.5 233.3 368.3 229.3 367.3 224.3C366.5 220.5 364.3 208.3 365.7 177.3C366.1 168.7 366.3 168.1 366.2 164.2C365.8 153.3 363.3 149.6 361.8 138.7C360.6 129.8 359.8 120.7 360.7 111.7C361.5 103.7 364.1 96.2001 367 88.8001C371.4 77.5001 377.9 67.7001 388 60.6001C388.4 60.4001 388.7 60.2001 389.1 59.9001C389 59.7001 389 59.5001 388.9 59.3001C388.2 59.1001 387.6 58.8001 386.9 58.7001C385 58.5001 383.2 58.5001 381.3 58.2001C380.6 58.1001 380 57.6001 379.3 57.2001C379.7 56.7001 380 56.0001 380.6 55.6001C384.7 52.8001 389.1 50.3001 393 47.1001C398.6 42.6001 403.9 37.8001 409.1 32.9001C414.5 27.8001 420.9 24.6001 427.8 22.2001C441.8 17.3001 456.3 15.4001 471.1 14.7001C482.1 14.2001 493.1 14.3001 503.9 16.1001C510.3 17.1001 516.6 18.7001 522.9 20.4001C534.4 23.4001 545.9 26.2001 557.2 29.9001C571.1 34.5001 583.6 41.7001 593.7 52.6001C600.1 59.4001 604.6 67.5001 608.5 75.9001C616.5 93.6001 620 112.4 621.1 131.7C621.9 147.5 620.8 163.3 618.4 178.9C616.3 192.6 613.2 206.2 608.4 219.3C607.7 221.2 606.7 223 605.9 224.9C605.7 224.9 605.4 224.9 605.2 224.8C605 223.6 604.7 222.4 604.7 221.2C604.4 209.5 604.5 197.8 603.7 186.1C602.9 173.4 601.5 160.8 600 148.2C599.3 141.9 598.2 135.5 596.4 129.5C591.6 113.8 580.4 105.1 564.5 102.1C557.3 100.7 550.2 101 543.3 103.5C540.3 104.6 537.4 106.4 534.9 108.5C529.9 112.7 524 115.1 518.1 117.4C497.2 125.5 475.7 131.6 453.8 136.7C451.6 137.2 449.3 137.6 447.1 138.2C444.1 138.9 441.8 138.1 439.9 135.7C437.4 132.4 434.8 129.2 432.2 125.9C431.1 124.5 430.1 123.2 429.1 121.7C428 120.1 427.1 119.8 425.6 121.3C422.6 124.4 418.9 125.9 414.5 124.7C412.2 124.1 410.6 122.7 409.5 120.6C408.9 119.5 408.4 118.3 407.9 117.1C406.3 113.9 404.6 113.3 401.3 114.9C397.3 116.8 394.4 119.7 392.3 123.5C386.7 133.5 385.1 143.9 385.1 143.9C382.9 158.6 381.6 153 377 177.6C374.5 191.4 371.6 211 370.2 235.6Z" fill="black"/>
<path d="M490.8 162.2C535.59 162.2 571.9 125.89 571.9 81.1C571.9 36.3097 535.59 0 490.8 0C446.009 0 409.7 36.3097 409.7 81.1C409.7 125.89 446.009 162.2 490.8 162.2Z" fill="black"/>
</svg>
