<svg width="51" height="52" viewBox="0 0 51 52" fill="none" xmlns="http://www.w3.org/2000/svg">
<path d="M49.4705 31.5886L44.7828 27.923C44.9282 26.6437 44.9282 25.3519 44.7828 24.0725L49.4748 20.4048C50.3541 19.6967 50.5891 18.455 50.0294 17.4744L45.1526 9.04463C44.5909 8.05791 43.3946 7.627 42.3328 8.02892L36.8077 10.2517C35.7695 9.49845 34.6574 8.85269 33.4885 8.32436L32.6406 2.4551C32.4877 1.32832 31.521 0.490812 30.3839 0.500076H20.6089C19.4813 0.493303 18.5223 1.32145 18.3649 2.43807L17.515 8.32426C16.3497 8.85767 15.2393 9.50393 14.2 10.2538L8.66004 8.02673C7.60917 7.61246 6.41396 8.03819 5.86143 9.02332L0.980289 17.4681C0.405645 18.4502 0.642216 19.7056 1.53491 20.4112L6.22261 24.0768C6.07589 25.3561 6.07589 26.648 6.22261 27.9273L1.53063 31.5929C0.649886 32.3 0.413813 33.5425 0.973914 34.5233L5.84868 42.9553C6.40968 43.9427 7.60668 44.3739 8.66851 43.971L14.1935 41.7483C15.2326 42.5019 16.3455 43.1484 17.5149 43.6778L18.3648 49.5428C18.5145 50.6665 19.4752 51.5045 20.6088 51.4999H30.3838C31.5135 51.5089 32.4756 50.6805 32.6341 49.5619L33.4841 43.6757C34.6493 43.1421 35.7596 42.4958 36.7991 41.7462L42.3453 43.9753C43.3962 44.3886 44.5908 43.9632 45.1439 42.9787L50.0399 34.5C50.5881 33.5209 50.3471 32.2891 49.4705 31.5886ZM25.4964 36.6249C19.6284 36.6249 14.8714 31.8679 14.8714 25.9999C14.8714 20.1318 19.6283 15.3749 25.4964 15.3749C31.3644 15.3749 36.1213 20.1318 36.1213 25.9999C36.1143 31.8651 31.3614 36.6179 25.4964 36.6249Z" fill="#323232"/>
</svg>
