<svg width="301" height="111" viewBox="0 0 301 111" fill="none" xmlns="http://www.w3.org/2000/svg">
<path d="M1.37885 99.9111C1.45024 98.7813 1.87857 97.934 2.23552 97.3691C1.37885 97.6516 1.0219 98.2871 0.807732 99.9817C0.593564 102.029 0.165228 107.537 0.0224493 108.737C-0.120329 109.938 0.450785 110.573 0.807732 110.926C0.950511 111.067 1.16468 110.997 1.37885 110.785C0.879122 110.149 0.664953 109.514 0.593564 109.02C0.450785 108.314 1.16468 102.594 1.37885 99.9111Z" fill="#F39325"/>
<path d="M7.09161 98.2866L5.59244 96.3096C5.59244 96.3096 4.16465 97.0157 2.80825 97.2275C2.59409 97.2275 2.45131 97.2981 2.23714 97.3687C1.8088 97.9336 1.45185 98.7103 1.38047 99.9106C1.1663 102.594 0.452404 108.313 0.666572 109.16C0.737961 109.655 0.952129 110.29 1.45185 110.926C1.95158 110.573 2.59409 109.655 3.09381 108.737C3.8077 107.325 6.30633 103.229 6.87745 101.676C7.37717 100.052 7.09161 98.2866 7.09161 98.2866Z" fill="#2D2F7B"/>
<path d="M27.7219 80.6377C28.0075 79.508 28.5072 78.8019 29.0069 78.3076C28.0789 78.4488 27.6505 79.0137 27.1508 80.7083C26.5797 82.6854 25.2233 88.0517 24.9378 89.252C24.6522 90.4524 25.0091 91.0878 25.3661 91.5821C25.4375 91.7233 25.6516 91.7233 25.9372 91.5821C25.5803 90.876 25.4375 90.2405 25.4375 89.6757C25.4375 88.7577 27.0794 83.2502 27.7219 80.6377Z" fill="#F39325"/>
<path d="M33.5759 80.0004L32.4337 77.8115C32.4337 77.8115 30.8631 78.2352 29.5781 78.2352C29.3639 78.2352 29.1497 78.2352 29.007 78.2352C28.5072 78.7294 28.0075 79.4355 27.722 80.5653C27.0795 83.1778 25.4375 88.6853 25.4375 89.5326C25.4375 90.0975 25.5089 90.7329 25.9372 91.439C26.5083 91.1566 27.2936 90.3799 27.9361 89.5326C28.8642 88.2616 32.0053 84.59 32.862 83.1778C33.5759 81.7656 33.5759 80.0004 33.5759 80.0004Z" fill="#2D2F7B"/>
<path d="M7.09027 93.5566C6.80471 93.9097 4.8772 97.3695 4.44886 98.1462C4.37747 98.2874 4.30608 98.4287 4.30608 98.5699C4.23469 98.9935 4.30608 99.6996 5.16276 100.264C5.66248 100.618 6.37637 100.476 6.73332 99.982L10.2314 95.3925L7.09027 93.5566Z" fill="#A96955"/>
<path d="M34.3618 75.3398C34.0763 75.6223 31.5776 78.7291 31.0065 79.4352C30.9351 79.5764 30.8637 79.647 30.7924 79.7882C30.6496 80.1413 30.5782 80.918 31.2921 81.624C31.7204 82.0477 32.4343 82.0477 32.8627 81.624L36.6463 77.3169L34.3618 75.3398Z" fill="#A96955"/>
<path d="M39.1436 58.8887C39.1436 57.9001 44.7834 58.2532 49.7093 57.6883C52.2793 57.4059 53.8498 60.4421 51.9937 62.3485L37.0733 77.5294C36.7878 77.8825 36.2881 77.9531 35.8597 77.8118C35.2886 77.6 34.4319 77.247 33.6466 76.6821C33.2183 76.3291 33.1469 75.6936 33.4325 75.2699L40.2859 65.5965L34.0036 67.3617L10.3023 96.382C9.94538 96.8762 9.23149 96.9468 8.66037 96.6644C7.94648 96.2408 7.01842 95.6053 6.4473 94.8286C6.09035 94.4755 6.09035 93.9107 6.37591 93.487C9.01732 89.5329 23.2238 67.9972 23.8663 65.7377C24.5802 63.2664 27.3644 58.7474 29.863 58.6062C32.5044 58.465 39.1436 58.8887 39.1436 58.8887Z" fill="#2D2F7B"/>
<path d="M43.8577 65.5253L42.2871 63.6895H46.4991V65.5253H43.8577Z" fill="#2D2F7B"/>
<path d="M42.2867 63.6895L43.8573 65.5253H40.502V63.6895H42.2867Z" fill="#2D2F7B"/>
<path d="M36.22 65.3131L36.0059 65.1719H36.22V65.3131Z" fill="#2D2F7B"/>
<path d="M36.0042 65.1719L36.2183 65.3131V67.0077H34.4336V65.1719H36.0042Z" fill="#2D2F7B"/>
<path d="M70.27 14.4042L82.2634 5.15445C82.3348 5.08384 82.4062 5.01323 82.4062 4.94262L83.6912 0.847306C83.6912 0.706089 83.834 0.63548 83.9054 0.564871L84.762 0.0706089C84.8334 0 84.9048 0 84.9762 0L87.5462 0.211827C87.7604 0.211827 87.9032 0.353044 87.9746 0.564871L88.1887 1.76522C88.1887 1.90644 88.1887 1.97705 88.1173 2.11827L87.7604 2.61253C87.689 2.75375 87.6176 2.96557 87.7604 3.10679C87.8318 3.24801 87.8318 3.45983 87.689 3.60105C87.2607 4.09531 86.1898 5.08384 84.4765 5.86054C84.4051 5.86054 84.3337 5.93114 84.3337 6.00175L73.5539 17.5816C73.4111 17.7934 73.0542 17.7934 72.9114 17.5816L70.27 15.0397C70.0558 14.8985 70.0558 14.5454 70.27 14.4042Z" fill="#A96955"/>
<path d="M4.09581 63.6191L23.0854 66.5141L19.159 91.5803L7.16555 89.7444L1.24023 81.4126L4.09581 63.6191Z" fill="#623D91"/>
<path d="M1.09375 81.4131L8.30408 82.5428L7.16185 89.7449" fill="#D4EDFC"/>
<path d="M9.28558 86.0347L9.17578 86.7324L16.9352 87.927L17.045 87.2293L9.28558 86.0347Z" fill="#D4EDFC"/>
<path d="M9.64879 83.4244L9.53906 84.1221L17.2984 85.3159L17.4082 84.6182L9.64879 83.4244Z" fill="#D4EDFC"/>
<path d="M3.8305 79.523L3.7207 80.2207L17.7581 82.3818L17.8679 81.6841L3.8305 79.523Z" fill="#D4EDFC"/>
<path d="M4.27574 76.6002L4.16602 77.2979L18.2034 79.4575L18.3132 78.7598L4.27574 76.6002Z" fill="#D4EDFC"/>
<path d="M4.73675 73.6129L4.62695 74.3105L18.6644 76.4716L18.7742 75.7739L4.73675 73.6129Z" fill="#D4EDFC"/>
<path d="M5.18402 70.6929L5.07422 71.3906L19.1116 73.5517L19.2214 72.854L5.18402 70.6929Z" fill="#D4EDFC"/>
<path d="M5.71129 67.7115L5.60156 68.4092L19.639 70.5688L19.7487 69.8712L5.71129 67.7115Z" fill="#D4EDFC"/>
<path d="M5.94727 60.7232L25.5793 56.416L31.4333 82.2589L19.0115 85.0126L10.0878 79.1521L5.94727 60.7232Z" fill="#F39325"/>
<path d="M10.0176 79.2226L17.3707 77.5986L19.0126 85.0126" fill="#D4EDFC"/>
<path d="M27.6885 78.8348L19.6758 80.6025L19.8312 81.2917L27.8439 79.524L27.6885 78.8348Z" fill="#D4EDFC"/>
<path d="M27.126 76.2147L19.1133 77.9824L19.2687 78.6716L27.2814 76.9038L27.126 76.2147Z" fill="#D4EDFC"/>
<path d="M26.4028 73.1738L11.9102 76.3711L12.0656 77.0602L26.5582 73.8629L26.4028 73.1738Z" fill="#D4EDFC"/>
<path d="M25.6762 70.0752L11.1836 73.2725L11.339 73.9616L25.8316 70.7643L25.6762 70.0752Z" fill="#D4EDFC"/>
<path d="M24.9653 67.0429L10.4727 70.2402L10.6281 70.9294L25.1207 67.7321L24.9653 67.0429Z" fill="#D4EDFC"/>
<path d="M24.3227 63.999L9.83008 67.1963L9.98549 67.8854L24.4781 64.6881L24.3227 63.999Z" fill="#D4EDFC"/>
<path d="M23.6118 60.9668L9.11914 64.1641L9.27456 64.8532L23.7672 61.6559L23.6118 60.9668Z" fill="#D4EDFC"/>
<path d="M52.6367 28.5976L69.7702 14.4052C70.1271 14.1228 70.6268 14.1228 70.9124 14.4052C71.6263 15.0407 72.8399 16.1704 73.411 17.2295C73.6252 17.5826 73.5538 18.0768 73.1969 18.3593L55.4923 35.0936L52.6367 28.5976Z" fill="#623D91"/>
<path d="M55.4928 28.3144C55.4928 28.3144 58.4911 31.2799 57.92 36.505C57.7773 38.0584 57.1347 39.4706 56.2067 40.6709L41.2149 59.8059C40.858 60.2296 40.3582 60.512 39.7871 60.5826C37.5741 60.8651 31.7201 61.3593 27.5795 60.0178C27.2226 59.8765 27.0798 59.5235 27.294 59.2411L40.9294 35.5165L49.2105 25.9843C49.2105 25.9843 53.1369 24.6427 55.4928 28.3144Z" fill="#623D91"/>
<path d="M36.7161 53.3096C36.6448 53.3096 36.5734 53.3096 36.5734 53.239C36.4306 53.1684 36.4306 52.9566 36.502 52.886C36.6447 52.7448 49.5662 35.5162 50.4229 33.3979C51.2082 31.4915 49.352 30.0087 49.2807 29.9381C49.1379 29.8675 49.1379 29.6557 49.2093 29.5144C49.2807 29.3732 49.4948 29.3732 49.6376 29.4438C49.6376 29.4438 51.9221 31.2797 50.994 33.6098C50.0659 35.7986 37.5014 52.5329 37.0017 53.239C36.9303 53.3096 36.8589 53.3096 36.7161 53.3096Z" fill="#9D7EB8"/>
<path d="M36.2881 53.5226L30.0058 61.2896C30.0058 61.2896 29.0777 66.3028 28.2924 67.0089C27.5072 67.715 25.2227 68.1387 24.5802 67.0089C24.0805 66.0204 23.8663 64.9613 23.7949 64.7494L25.8652 65.5967C25.8652 65.5967 25.7938 65.3143 25.7938 64.8907C25.7938 64.82 25.7938 64.82 25.7938 64.7494C25.7224 64.3964 25.651 63.9727 25.651 63.4079C25.5797 62.49 25.7224 61.3602 26.4363 60.8659C27.7927 59.8068 28.1497 59.6656 28.1497 59.6656L31.7905 51.828C31.6477 51.6868 34.2178 53.3108 36.2881 53.5226Z" fill="#A96955"/>
<path d="M8.30428 50.9078C7.94733 50.9784 7.73316 51.3315 7.94733 51.6845C8.66122 53.1673 10.8029 56.3447 15.229 55.3562C20.8688 54.0852 38.145 41.1638 42.0001 37.6333C45.9265 34.1029 51.0665 29.7251 53.6365 30.3606C56.1352 30.9961 54.636 29.5133 52.9226 28.3836C51.5662 27.4657 50.8523 26.2653 51.2093 25.9123C51.2093 25.9123 51.2807 25.8417 51.2093 25.7711C51.2093 25.7004 51.1379 25.7004 51.1379 25.7004C49.9957 25.5592 47.3543 25.5592 43.8562 27.4657C39.1445 30.0076 16.2285 38.7631 8.58983 36.2212C8.30428 36.1506 8.01872 36.2918 7.94733 36.5742C7.66177 38.2688 7.16205 43.7057 11.6596 49.7781C11.5882 49.7781 9.87484 50.6254 8.30428 50.9078Z" fill="#F39325"/>
<path d="M56.2074 19.3458L51.7099 25.63C51.4243 26.0536 51.4243 26.6185 51.7813 26.9715C52.3524 27.607 53.4232 28.5249 54.4941 28.7368C54.851 28.8074 55.208 28.6662 55.3508 28.3837L57.7066 24.7827C57.778 24.7121 58.2777 18.9927 56.2074 19.3458Z" fill="#A96955"/>
<path d="M57.4934 14.1217C57.5648 14.1923 61.3484 21.465 61.3484 21.465L57.1364 23.5126L52.5675 17.1578C52.4961 17.1578 55.9228 12.7095 57.4934 14.1217Z" fill="#A96955"/>
<path d="M54.3507 17.2982C54.2793 17.5101 54.2793 17.7219 54.4221 17.8631L56.5637 21.3229C56.5637 21.3935 56.6351 21.3935 56.7065 21.4641C56.9921 21.676 57.8488 22.3821 58.4913 21.4641C59.0624 20.6875 59.5621 19.9814 60.1332 19.6989C60.4902 19.5577 60.8471 19.6989 61.0613 19.9814C61.4182 20.6874 62.0607 22.029 62.4891 23.3706C62.5604 23.7236 62.4177 24.0767 62.1321 24.2179C61.2754 24.5709 59.5621 25.2064 58.0629 25.4182C57.8488 25.4182 57.5632 25.3476 57.4204 25.1358C56.7779 24.2885 54.9218 21.8172 54.3507 21.1817C53.7796 20.6168 52.7087 20.8287 52.209 20.9699C51.9948 21.0405 51.8521 20.9699 51.6379 20.8993C51.1382 20.6168 50.2815 19.9108 51.0668 18.6398C51.2809 18.3574 51.1382 17.9337 50.8526 17.7219C50.2815 17.3688 49.7104 16.7334 50.2815 15.6036C50.8526 14.5445 51.852 14.4033 52.5659 14.4739C52.8515 14.5445 53.2084 14.3327 53.2798 14.0502C53.3512 13.909 53.4226 13.8384 53.6368 13.7678C53.9937 13.6972 54.2079 13.3441 54.1365 12.9911C53.9937 12.3556 54.1365 11.5789 55.136 11.014C56.9921 10.0255 58.5626 11.6495 58.991 12.9911C59.4193 14.3327 57.349 15.3212 56.064 15.4624C55.0646 15.7448 54.5648 16.804 54.3507 17.2982Z" fill="black"/>
<path d="M55.0644 22.4534C55.0644 22.4534 54.2792 20.1233 53.2083 20.194C52.1375 20.2646 51.3522 21.3237 52.6372 22.4534C54.2078 23.8656 55.0644 22.4534 55.0644 22.4534Z" fill="#A96955"/>
<path d="M87.5453 2.33008H85.1895V3.60104H87.5453V2.33008Z" fill="#F39325"/>
<path d="M62.4877 84.2361L62.5591 84.0948C62.5591 83.7418 62.2735 83.53 61.631 83.53C60.8457 83.0357 60.0605 82.259 59.1324 81.1293C58.2043 79.9995 57.7046 79.0816 57.4904 78.5167C57.3477 78.2343 57.3477 78.0225 57.3477 77.9519C57.3477 77.74 57.419 77.5988 57.5618 77.5282C57.7046 77.4576 57.9188 77.3164 58.1329 77.2458C58.3471 77.1752 58.4899 77.1046 58.6327 77.0339C59.2752 76.6103 59.7749 76.3985 60.1318 76.3985C60.4888 76.3985 60.8457 76.6103 61.0599 77.1046C61.5596 78.0225 62.4163 78.7992 63.5585 79.364C64.7008 79.9289 65.9858 80.282 67.3422 80.282C68.6272 80.282 69.698 80.0701 70.6975 79.6465C71.6255 79.2228 72.1252 78.5873 72.1252 77.74C72.1252 77.1046 71.8397 76.3985 71.2686 75.4806C71.1972 75.2687 71.0544 75.0569 70.9116 74.9157C70.6975 74.7039 70.4833 74.5626 70.2691 74.3508C69.698 73.9272 69.0555 73.3623 68.3416 72.6562C67.7705 72.4444 67.128 72.1619 66.5569 71.8089L65.4146 71.244C64.4866 70.8204 63.4871 70.1143 62.3449 69.1258C61.2027 68.1372 60.4174 67.2899 59.9891 66.4426C59.2038 65.6659 58.7754 64.5362 58.7754 62.9828C58.7754 61.2882 59.2038 59.6642 59.9891 58.1814C60.4174 57.1929 61.4882 55.7101 63.2016 53.6624C64.9149 51.6148 66.1285 50.3438 66.9852 49.8495L68.413 48.508C68.4844 48.3667 68.4844 48.2961 68.5558 48.2961C68.6272 48.2961 68.6986 48.2961 68.6986 48.2961C68.8413 48.2255 69.1983 48.0843 69.8408 47.8019C70.4833 47.5194 71.1972 47.0252 71.9111 46.3897C74.1241 45.3306 76.123 44.5539 77.9078 44.0596C79.6211 43.636 81.1203 43.3535 82.2625 43.3535C83.6903 43.4241 85.0467 43.9184 86.2603 44.9069C87.4739 45.8248 88.1878 46.9546 88.402 48.1549C88.4734 48.508 88.5448 48.7904 88.5448 49.0022C88.5448 50.3438 87.9737 51.8266 86.9028 53.5212C85.832 55.2158 84.6184 56.3456 83.4048 57.0516C82.8336 57.3341 82.3339 57.4047 81.8342 57.4047C81.1917 57.4047 80.692 57.2635 80.335 56.9104C79.9781 56.5574 79.7639 56.1337 79.8353 55.6395C79.8353 55.2864 79.9781 54.9334 80.1922 54.5097C80.4064 54.0861 80.9775 53.38 81.8342 52.4621C83.1192 50.6262 83.6903 49.3553 83.6903 48.508C83.6903 47.9431 83.3334 47.6607 82.6909 47.5194C82.2625 47.3782 81.1917 47.59 79.407 48.0137C77.6222 48.4374 76.7655 48.7198 76.7655 48.9316C76.7655 49.0022 76.7655 49.0022 76.7655 49.1434C76.7655 49.2141 76.6942 49.2847 76.5514 49.214C76.4086 49.1434 75.3378 49.7789 73.4103 50.9793C71.4827 52.2502 70.4833 52.9563 70.4119 53.0975C70.3405 53.3094 70.2691 53.4506 69.9836 53.6624C69.7694 53.8742 69.4838 54.0155 69.1269 54.1567C68.4844 54.5803 67.8419 55.0746 67.3422 55.7807C66.8424 56.4868 66.1285 57.5459 65.2719 59.0287C64.8435 59.6642 64.4866 60.2996 64.201 61.0763C63.9155 61.7824 63.7727 62.4885 63.7727 63.0534C63.7727 63.477 63.8441 63.8301 63.9155 64.1125C64.0582 64.6774 64.4866 65.1717 65.1291 65.5953C65.7716 66.019 66.9852 66.7957 68.8413 67.9254C70.6975 68.9845 72.4108 70.1143 73.91 71.3146C75.4092 72.515 76.3372 73.4329 76.6942 74.139C77.2653 74.9863 77.5508 76.0454 77.5508 77.387C77.5508 78.4461 77.4081 79.4347 77.1225 80.3526C76.7655 81.0587 76.3372 81.6941 75.8375 82.259C75.3378 82.8239 74.838 83.1063 74.4811 83.1063C74.1241 83.2475 73.7672 83.3181 73.553 83.53C73.2675 83.6712 73.0533 83.8124 72.9105 83.883C72.4822 84.1654 71.34 84.3773 69.4838 84.6597C67.6991 84.9421 66.1285 85.0834 64.9149 85.0128L62.4877 84.2361Z" fill="#623D91"/>
<path d="M85.8307 80C85.1168 79.1527 84.6171 78.5172 84.4743 77.8818C84.4743 77.8112 84.4029 77.7405 84.3316 77.6699C84.2602 77.5993 84.1888 77.5287 84.1888 77.4581C84.046 77.3169 83.9746 76.752 83.9746 75.6929C83.9746 74.8456 84.046 73.9277 84.1174 72.9391C84.1888 72.0212 84.3316 71.2445 84.4743 70.6797L85.4738 67.7847L86.2591 65.5958L87.7582 62.4184L85.5452 61.8536C85.2596 61.7829 85.0455 61.7123 84.9027 61.5005C84.7599 61.2887 84.6885 61.0769 84.6885 60.9356C84.6885 60.6532 84.8313 60.2295 85.1882 59.6647C85.4738 59.0998 85.7593 58.8174 85.9021 58.8174C86.0449 58.888 86.3305 58.888 86.7588 58.888C87.8296 58.888 88.6863 58.8174 89.2574 58.7468C89.6144 58.6055 89.8999 58.3231 90.0427 57.8995C90.2569 57.4758 90.3997 57.1934 90.6138 56.9109C90.828 56.6285 90.9708 56.3461 91.1849 55.993C91.3277 55.7812 91.4705 55.4281 91.6847 55.0045C91.8988 54.5808 92.2558 54.016 92.6127 53.4511C92.6841 53.3099 92.8269 53.0981 93.1124 52.6744C93.398 52.2507 93.6836 51.8977 94.0405 51.6153C94.2547 51.4034 94.5402 51.2622 94.8972 51.121C95.2541 50.9798 95.6111 50.9092 95.968 50.9092C96.6105 50.9092 97.1816 51.121 97.5386 51.4741C97.8955 51.9683 98.0383 52.392 98.0383 52.6038C98.0383 52.8862 97.8955 53.3099 97.61 53.7335C97.3958 54.1572 97.0389 54.7221 96.5391 55.4988C96.1108 56.1342 95.7539 56.6991 95.5397 57.0522C95.1827 57.5464 94.9686 57.8995 94.9686 58.1113C94.9686 58.3937 95.1827 58.4643 95.6825 58.4643C96.1822 58.4643 97.0389 58.3231 98.2525 58.1113C98.4667 58.0407 98.6808 58.0407 99.0378 58.0407C99.8944 58.0407 100.537 58.3231 100.894 58.8174C101.251 59.3116 101.465 59.9471 101.465 60.7238C101.465 61.2181 101.322 61.5711 100.965 61.6417C100.608 61.7829 99.823 61.7829 98.6094 61.7829C97.4672 61.9948 96.2536 62.0654 94.9686 62.0654C94.7544 62.0654 94.4688 62.0654 94.2547 62.0654C93.9691 62.0654 93.6836 62.136 93.398 62.2066C93.1124 62.2772 92.8983 62.4184 92.7555 62.5596C92.6127 62.7009 92.4699 62.9127 92.3272 63.2657C92.1844 63.4069 91.9702 63.76 91.5419 64.5367C91.0422 65.5958 90.6852 66.2313 90.5424 66.4431C89.6144 69.1969 88.8291 72.0918 88.3294 74.9868C88.258 75.1986 88.258 75.4811 88.258 75.8341C88.258 76.3284 88.4008 76.6108 88.7577 76.8226C89.0433 77.0345 89.6858 77.1051 90.6138 77.1051C91.6133 77.1051 92.6127 76.9638 93.5408 76.752C94.6116 76.2578 95.4683 75.9047 96.0394 75.5517C96.3964 75.3398 96.6819 75.1986 96.9675 75.0574C97.253 74.9162 97.4672 74.775 97.5386 74.7044C97.6814 74.4219 97.9669 74.4219 98.2525 74.8456C98.6094 75.1986 98.895 75.6223 99.0378 76.1165C99.0378 76.752 98.895 77.3875 98.6808 77.8818C98.3953 78.376 97.7528 78.9409 96.7533 79.5764C95.6111 80.2825 94.3974 80.8473 93.1124 81.1298C91.8274 81.4828 90.6852 81.624 89.6144 81.624C88.9719 81.624 88.4007 81.5534 87.901 81.4828C87.2585 81.3416 86.616 80.8473 85.8307 80Z" fill="#623D91"/>
<path d="M102.608 79.3624C102.108 79.0093 101.822 78.7975 101.822 78.7269C101.822 78.5857 101.751 78.3738 101.608 78.0914C101.465 77.809 101.251 77.5971 101.108 77.3853C100.823 77.1029 101.037 76.1144 101.68 74.561C102.393 72.937 103.322 71.1011 104.464 68.9123C104.678 68.7004 104.963 68.3474 105.32 67.7825C105.677 67.2176 105.892 66.9352 106.034 66.8646C106.034 66.7234 106.106 66.5822 106.177 66.4409C106.32 66.2997 106.391 66.2291 106.534 66.2291L106.962 65.3818C107.105 65.0288 107.819 64.2521 109.104 63.0517C110.389 61.7808 111.389 61.0041 112.102 60.5098C112.816 60.0155 113.53 59.8037 114.387 59.8037C115.244 59.8037 116.029 60.0862 116.671 60.5804L118.171 61.8514C119.241 62.7693 119.884 63.2636 120.027 63.4048L122.097 65.17L121.169 67.9237C120.812 68.9123 120.669 69.8302 120.669 70.6775C120.669 72.0897 121.026 73.3606 121.811 74.561C122.026 74.9846 122.24 75.2671 122.525 75.4789C122.811 75.6907 123.239 75.8319 123.739 75.9025C124.524 76.0438 124.953 76.4674 124.953 77.1029C124.953 77.8796 124.81 78.5151 124.524 78.8681C124.239 79.2918 123.882 79.5036 123.453 79.6448C122.882 79.7154 122.454 79.786 122.24 79.786C121.169 79.786 120.169 79.5036 119.313 78.9387C118.456 78.3738 117.671 77.4559 117.028 76.185C116.886 75.9731 116.671 75.5495 116.457 74.9846C116.243 74.4197 116.1 73.9961 116.029 73.7843C115.743 74.1373 115.315 74.6316 114.744 75.1964C110.96 79.0093 107.89 80.8452 105.535 80.8452C104.749 80.8452 104.035 80.6333 103.393 80.2803C103.393 79.9978 103.107 79.7154 102.608 79.3624ZM109.961 73.7137C110.175 73.5724 110.318 73.3606 110.532 73.2194C110.746 73.0076 110.96 72.7957 111.246 72.5839C112.245 71.7366 113.102 71.0305 113.673 70.4657C114.244 69.9008 114.815 69.1947 115.386 68.418L116.6 66.4409C116.243 65.6642 115.886 65.0994 115.601 64.8169C115.315 64.5345 115.029 64.3933 114.744 64.3933C114.03 64.3933 113.102 65.0288 111.96 66.2997C110.889 67.5707 109.532 69.5477 107.962 72.1603C107.534 72.7957 107.248 73.5018 106.962 74.2079C106.677 74.914 106.534 75.4083 106.463 75.6201C107.105 75.7613 108.247 75.1258 109.961 73.7137Z" fill="#623D91"/>
<path d="M142.157 76.1863C142.157 75.4802 142.229 74.8447 142.3 74.1386C142.371 73.3619 142.443 72.797 142.443 72.444V72.1616V71.5967C142.3 70.8906 142.086 70.5376 141.729 70.5376C141.086 70.5376 139.873 71.173 138.088 72.444C136.303 73.715 134.447 75.1977 132.52 76.963C131.949 77.5984 131.449 78.1633 131.02 78.7282C130.664 79.2224 130.378 79.5049 130.164 79.5755C129.95 79.7167 129.664 79.7167 129.307 79.7167C128.807 79.6461 128.236 79.2931 127.522 78.587C126.88 77.8809 126.452 77.2454 126.166 76.7511C126.166 75.7626 126.38 74.7741 126.737 73.8562C127.094 72.9383 127.665 71.7379 128.379 70.3257C128.736 69.2666 129.164 68.1369 129.664 67.0777C130.235 65.8068 130.592 64.8182 130.878 64.1828C131.092 63.4767 131.306 62.8412 131.377 62.0645C131.377 61.9939 131.377 61.9939 131.306 61.9939C131.306 61.8527 131.377 61.7114 131.449 61.6408C131.592 61.4996 131.663 61.4996 131.806 61.4996C131.877 61.3584 132.091 61.3584 132.448 61.3584C133.376 61.3584 134.233 61.6408 134.947 62.1351C135.661 62.6294 136.018 63.4061 136.018 64.4652C136.018 65.0301 135.946 65.5243 135.732 66.0186C135.518 66.5128 135.161 67.2895 134.59 68.4193L134.019 69.6196C133.876 69.8315 133.733 70.1845 133.519 70.6082C133.305 71.0318 133.162 71.3143 133.162 71.3849C134.09 70.7494 135.161 69.9727 136.446 68.9135C138.302 67.4308 139.801 66.301 140.944 65.5243C142.086 64.7476 143.014 64.324 143.514 64.324C144.013 64.324 144.656 64.6064 145.513 65.1007C146.369 65.5949 146.869 66.0892 147.012 66.5128C147.012 66.7953 147.012 67.1483 146.94 67.6426C146.869 68.1369 146.869 68.6311 146.798 68.9842L146.869 70.6788C146.94 70.9612 146.94 71.3849 146.94 72.0203C146.94 73.1501 146.869 73.9974 146.726 74.4917C146.798 74.5623 146.798 74.5623 146.869 74.6329C146.94 74.7035 146.94 74.7741 146.94 74.7741L146.869 74.9153C146.94 75.2683 147.083 75.8332 147.44 76.6805C147.797 77.4572 148.011 77.9515 148.011 78.0221C148.011 78.4457 147.726 78.8694 147.226 79.3637C146.726 79.8579 146.155 80.1404 145.727 80.211C143.299 79.9991 142.157 78.7282 142.157 76.1863Z" fill="#623D91"/>
<path d="M165.858 82.0457C165.43 81.6926 165.073 81.3396 164.859 80.9159C164.645 80.4217 164.573 79.9274 164.502 79.4332C164.43 78.9389 164.359 78.3034 164.359 77.4561L164.288 75.6203L162.003 77.6679C159.719 79.7862 157.506 80.9159 155.578 80.9159C155.007 80.7747 154.222 80.3511 153.365 79.4332C152.437 78.5858 151.866 77.8092 151.652 77.1737C151.509 76.8912 151.438 76.397 151.438 75.8321C151.438 74.4199 151.794 72.7959 152.508 70.8189C153.222 68.8418 154.15 67.2884 155.293 66.0881C156.078 64.8877 157.077 63.9698 158.22 63.3343C159.362 62.6989 160.504 62.4164 161.718 62.4164C162.788 62.4164 163.788 62.6282 164.645 63.1225C165.144 63.4049 165.573 63.4756 165.93 63.4756C166.287 63.4756 166.501 63.2637 166.643 62.7695C166.715 62.5576 166.929 61.8515 167.286 60.5806L167.857 58.8154C168.642 56.4147 169.356 54.5082 169.927 53.0254C170.499 51.5426 171.212 49.9893 172.069 48.224C172.426 47.4473 172.854 46.8825 173.211 46.5294C173.64 46.1764 173.997 46.0352 174.282 46.0352C174.782 46.0352 175.282 46.1764 175.853 46.5294C176.424 46.8119 176.781 47.2355 176.995 47.7298C177.138 48.0122 177.138 48.2946 177.138 48.6477C177.138 49.0713 176.995 49.495 176.781 49.9186C175.853 51.5426 174.639 54.2258 173.283 57.9681C171.855 61.7103 170.784 64.8877 169.999 67.6415C169.713 68.63 169.499 69.9716 169.356 71.7368C169.213 73.502 169.142 75.1966 169.142 76.8912C169.142 78.5152 169.213 79.5038 169.285 79.8568C169.356 80.0686 169.428 80.3511 169.428 80.7041C169.428 81.3396 169.213 81.7632 168.785 81.9751C168.357 82.1869 167.786 82.3987 167.143 82.4693C166.715 82.54 166.287 82.3987 165.858 82.0457ZM160.932 74.1375C162.003 73.3608 162.86 72.6547 163.36 72.0192C163.859 71.3837 164.216 70.607 164.573 69.6891C164.645 69.4773 164.716 69.2655 164.716 68.9124C164.716 68.277 164.43 67.6415 163.788 67.1472C163.431 66.8648 163.003 66.7236 162.503 66.7236C161.718 66.7236 160.932 67.1472 160.076 67.9239C159.148 68.7712 158.362 69.7597 157.791 70.8189C157.22 71.878 156.72 73.3608 156.292 75.1966C156.221 75.4791 156.221 75.6909 156.435 75.8321C156.578 75.9733 156.792 76.0439 157.149 76.0439C157.434 76.0439 157.791 75.9733 158.22 75.7615C158.933 75.4791 159.861 74.9142 160.932 74.1375Z" fill="#623D91"/>
<path d="M185.92 79.9983C185.706 79.504 185.492 78.6567 185.206 77.5976C185.135 77.3858 185.064 77.0327 185.064 76.6091C185.064 76.1854 185.064 75.903 185.064 75.6911C184.921 76.0442 184.707 76.3972 184.492 76.7503C184.278 77.1033 184.064 77.3858 183.85 77.527C182.993 78.3743 182.137 79.0098 181.28 79.3628C180.138 80.0689 179.067 80.4219 178.282 80.4219C177.282 80.4219 176.354 79.9277 175.64 79.0098C174.498 78.0918 173.855 76.9621 173.855 75.6205C173.855 75.4087 173.927 75.1263 173.998 74.5614C174.07 73.2198 174.284 71.9489 174.569 70.6779C174.855 69.407 175.497 67.8536 176.354 65.9471L177.996 62.6991L178.853 61.0045C179.067 60.9339 179.352 60.8633 179.709 60.8633C180.281 60.8633 180.852 61.0045 181.351 61.2163C181.851 61.4282 182.137 61.7106 182.208 62.0636C182.351 62.2049 182.351 62.4873 182.351 62.9109C182.351 64.0407 181.851 65.5941 180.852 67.5711L180.423 68.6303C179.781 70.1836 179.281 71.384 178.995 72.3019C178.71 73.1492 178.567 73.9259 178.567 74.4908C178.567 75.0557 178.781 75.4793 179.21 75.6205C179.424 75.7617 179.638 75.7618 179.852 75.7618C180.566 75.7618 181.494 75.1969 182.494 74.0671C183.564 72.9374 184.635 71.031 185.706 68.4184C186.206 67.1475 186.563 65.8765 186.634 64.6056C186.563 64.1819 186.706 63.7582 186.991 63.264C187.277 62.7697 187.705 62.4167 188.133 62.1342C188.276 61.9224 188.49 61.7106 188.704 61.64C188.99 61.4988 189.133 61.4988 189.204 61.64L190.061 61.5694C190.204 61.4988 190.346 61.7106 190.561 62.0636C190.775 62.4167 190.989 62.6285 191.06 62.6991C191.417 62.9816 191.631 63.5464 191.631 64.4643C191.631 65.6647 191.203 67.2887 190.275 69.407C189.561 70.8897 189.133 71.9489 188.847 72.7962C188.633 73.5729 188.49 74.3496 188.419 75.0557C188.419 75.8324 188.49 76.3972 188.633 76.8209C188.776 77.2445 189.061 77.6682 189.633 78.0918C190.204 78.5155 190.489 79.4334 190.346 80.9162C190.275 81.1986 190.061 81.3398 189.775 81.4811C189.418 81.6223 189.061 81.6929 188.562 81.6929C187.776 81.6929 187.062 81.4811 186.491 81.128C186.42 80.9162 186.134 80.4925 185.92 79.9983Z" fill="#623D91"/>
<path d="M191.488 94.1204C191.131 94.1204 190.845 93.9792 190.631 93.6261C190.56 93.5555 190.417 93.3437 190.131 92.9907C189.846 92.567 189.703 92.0021 189.703 91.2254C189.703 91.0842 189.775 90.8018 189.846 90.3781C190.274 88.8247 190.417 87.7656 190.417 87.2007C190.417 86.9889 190.488 86.7771 190.56 86.424C190.631 86.071 190.703 85.7886 190.703 85.4355C190.845 85.1531 190.988 84.8 191.131 84.2352C191.274 83.7409 191.345 83.2466 191.345 82.823C191.345 82.6112 191.416 82.3993 191.559 82.1875C191.702 81.9757 191.845 81.7638 192.059 81.6226C192.059 81.4108 192.13 81.0578 192.202 80.6341C192.345 80.2104 192.416 79.8574 192.416 79.6456C192.63 78.6571 193.344 76.327 194.558 72.6553C195.843 68.9836 196.842 66.0181 197.77 63.7586C198.198 62.7701 198.555 61.7815 198.841 60.9342C199.127 60.0869 199.269 59.4514 199.269 59.0984C199.269 58.9572 199.341 58.816 199.412 58.6747C199.483 58.5335 199.626 58.3923 199.912 58.1805C200.197 57.8981 200.626 57.7568 201.054 57.7568C201.697 57.7568 202.268 57.9687 202.839 58.3217C203.124 58.7454 203.267 59.0984 203.41 59.3808C203.553 59.6633 203.553 60.0163 203.553 60.3694C203.553 60.5106 203.481 60.793 203.41 61.4285C203.41 62.2052 203.196 62.9113 202.767 63.4762C202.339 64.1116 202.125 64.3941 202.196 64.3235C203.981 63.2643 205.694 62.6995 207.194 62.6995C208.835 62.6995 210.192 63.2643 211.191 64.3941C212.191 65.5238 212.691 66.8654 212.691 68.4894C212.691 69.1249 212.405 70.0428 211.834 71.2431C211.263 72.4435 210.763 73.2202 210.406 73.5732C210.192 73.5732 209.906 73.9263 209.549 74.703C209.121 75.2678 208.264 75.9033 207.051 76.5388C205.837 77.1743 204.98 77.3861 204.552 77.2449C204.481 77.2449 204.481 77.3155 204.409 77.3861C204.338 77.4567 204.267 77.5979 204.267 77.7391C204.267 77.8804 203.695 78.1628 202.625 78.5158C201.554 78.8689 200.554 79.0807 199.769 79.0807C199.341 79.0807 198.984 79.0807 198.77 79.0101C198.555 78.9395 198.341 78.8689 198.127 78.6571C197.842 78.9395 197.77 79.1513 197.77 79.3631C197.77 79.7162 197.556 80.2811 197.199 81.0578C196.842 81.8345 196.557 82.2581 196.342 82.2581C196.271 82.3287 196.271 82.3993 196.2 82.4699C196.128 82.5405 196.2 82.6818 196.342 82.823C196.342 82.9642 196.342 83.176 196.271 83.5997C196.2 84.0233 196.128 84.3058 195.985 84.5176C195.985 84.8706 195.914 85.2943 195.843 85.8592C195.7 86.424 195.628 86.8477 195.486 87.1301C195.486 87.5538 195.414 87.9774 195.271 88.4011C195.129 88.8247 194.986 89.0366 194.843 89.0366C194.629 89.1072 194.486 89.6014 194.486 90.59C194.415 91.4373 194.129 92.214 193.63 92.9201C193.13 93.6261 192.559 93.9792 192.13 93.9792L191.488 94.1204ZM201.911 74.1381C203.338 73.5732 204.338 73.0083 205.052 72.4435C205.909 71.7374 206.551 71.1019 206.979 70.537C207.408 69.9722 207.622 69.4073 207.622 68.7718C207.622 68.2776 207.479 67.7833 207.122 67.289C206.837 66.8654 206.48 66.7242 205.98 66.7242C204.766 66.7242 203.196 67.6421 201.268 69.4779C200.626 70.184 199.983 71.0313 199.483 72.0904C198.984 73.1496 198.698 73.9263 198.698 74.4911C198.698 74.8442 198.841 74.9854 199.055 74.9854C199.555 74.9854 200.483 74.703 201.911 74.1381Z" fill="#623D91"/>
<path d="M212.333 83.4595C211.762 82.7534 211.477 81.8355 211.477 80.847C211.477 79.9996 211.691 79.2229 212.048 78.3756C212.762 76.8223 213.547 75.6219 214.261 74.6334C214.546 74.2803 214.689 73.9273 214.832 73.7155C214.975 73.433 215.046 73.1506 215.046 72.6563C215.546 72.0209 216.26 70.8205 217.116 69.1259C218.544 66.8664 220.614 63.336 223.256 58.5346C223.613 57.8991 224.327 56.5575 225.469 54.6511C226.54 52.7446 227.254 51.5443 227.682 51.1912L227.967 50.8382C227.825 51.05 228.039 50.6264 228.539 49.5672C229.038 48.5787 229.538 47.6608 230.109 46.8135C230.68 45.9662 231.18 45.6131 231.608 45.6131C232.108 45.6131 232.608 45.825 233.25 46.178C233.893 46.5311 234.393 47.0959 234.892 47.8726C235.321 48.6493 235.606 49.4966 235.606 50.4852C235.606 50.9088 235.606 51.2618 235.535 51.5443L234.964 55.2866L234.678 56.4869C234.178 58.8876 233.464 62.2062 232.536 66.3721C231.68 70.1144 231.251 72.3033 231.251 73.08C231.251 73.2918 231.323 73.5036 231.394 73.5742C231.466 73.7155 231.537 73.7861 231.68 73.7861C231.751 73.7861 231.965 73.6449 232.251 73.433C232.536 73.2212 232.822 72.8682 233.036 72.3739L233.75 71.3148L234.678 69.9732C235.678 68.561 236.963 66.6546 238.462 64.2539C239.961 61.8532 242.388 57.6873 245.815 51.8267C246.529 50.8382 247.1 49.9203 247.528 49.1436C248.099 48.2257 248.67 47.3078 249.242 46.4604C249.813 45.6131 250.241 45.1189 250.527 44.9071C250.883 44.6246 251.383 44.4834 251.883 44.4834C252.454 44.554 253.025 44.6952 253.596 45.0483C254.167 45.4013 254.739 45.8956 255.167 46.6017C255.595 47.2371 255.809 47.9432 255.809 48.7199C255.809 49.5672 255.524 51.1912 255.024 53.5213C254.524 55.8514 253.882 58.1109 253.168 60.2998C253.025 61.0765 252.597 62.8417 251.812 65.6661C251.24 67.7843 250.812 69.4789 250.527 70.6793C250.241 71.9502 250.098 72.9388 250.098 73.6449V74.0685C249.527 75.057 249.242 77.0341 249.242 79.929C249.099 81.1294 248.813 82.0473 248.385 82.7534C247.957 83.4595 247.671 83.7419 247.385 83.7419L247.243 83.6713C247.028 83.6713 246.886 83.7419 246.743 83.8831C246.6 84.0244 246.315 84.095 246.029 84.095C245.101 84.095 244.53 83.7419 244.244 83.1064C243.959 82.471 243.816 81.553 243.816 80.4233C243.816 79.7878 243.816 79.2229 243.887 78.7993C244.03 77.8814 245.172 72.9388 247.385 64.042C249.17 57.0518 250.027 53.3801 250.027 53.0977L249.242 54.4392C248.528 55.8514 247.6 57.4048 246.457 59.3113L242.602 66.4427C242.103 67.0782 241.746 67.7137 241.389 68.3492C241.103 68.9847 240.889 69.3377 240.889 69.4083C240.461 70.2556 239.533 71.5266 238.248 73.1506C237.819 73.7155 237.534 74.0685 237.462 74.2097C237.248 74.6334 236.677 75.3395 235.678 76.328C234.678 77.3165 233.607 78.2344 232.536 79.0817C231.466 79.929 230.538 80.2821 229.752 80.2821C228.753 80.2821 227.896 79.7878 227.111 78.8699C226.326 77.952 225.897 76.7516 225.897 75.4101C225.897 74.4216 226.111 72.7975 226.468 70.4675C227.039 67.9255 227.682 65.3836 228.324 62.8417C228.967 60.2998 229.467 58.5346 229.681 57.7579C229.824 57.4048 229.824 57.0518 229.824 56.6987C229.824 56.4163 229.752 56.2751 229.681 56.2045C229.609 56.2045 229.609 56.2751 229.538 56.3457C229.467 56.4163 229.395 56.4869 229.324 56.6281C228.753 57.4754 227.896 59.0288 226.754 61.2177C225.612 63.4066 224.327 65.9485 222.97 68.9141C217.687 78.4463 214.689 83.6713 213.904 84.5892C213.547 84.5186 212.976 84.1656 212.333 83.4595Z" fill="#F39325"/>
<path d="M255.524 79.3624C255.024 79.0093 254.738 78.7975 254.738 78.7269C254.738 78.5857 254.667 78.3738 254.524 78.0914C254.381 77.809 254.167 77.5971 254.024 77.3853C253.739 77.1029 253.953 76.1144 254.596 74.561C255.31 72.937 256.238 71.1011 257.38 68.9123C257.594 68.7004 257.88 68.3474 258.236 67.7825C258.593 67.2176 258.808 66.9352 258.95 66.8646C258.95 66.7234 259.022 66.5822 259.093 66.4409C259.236 66.2997 259.307 66.2291 259.45 66.2291L259.878 65.3818C260.021 65.0288 260.735 64.2521 262.02 63.0517C263.305 61.7808 264.305 61.0041 265.018 60.5098C265.732 60.0155 266.446 59.8037 267.303 59.8037C268.16 59.8037 268.945 60.0862 269.587 60.5804L271.087 61.8514C272.157 62.7693 272.8 63.2636 272.943 63.4048L275.013 65.17L274.085 67.9237C273.728 68.9123 273.585 69.8302 273.585 70.6775C273.585 72.0897 273.942 73.3606 274.727 74.561C274.942 74.9846 275.156 75.2671 275.441 75.4789C275.727 75.6907 276.155 75.8319 276.655 75.9025C277.44 76.0438 277.869 76.4674 277.869 77.1029C277.869 77.8796 277.726 78.5151 277.44 78.8681C277.155 79.2918 276.798 79.5036 276.369 79.6448C275.798 79.7154 275.37 79.786 275.156 79.786C274.085 79.786 273.085 79.5036 272.229 78.9387C271.372 78.3738 270.587 77.4559 269.944 76.185C269.802 75.9731 269.587 75.5495 269.373 74.9846C269.159 74.4197 269.016 73.9961 268.945 73.7843C268.659 74.1373 268.231 74.6316 267.66 75.1964C263.876 79.0093 260.806 80.8452 258.451 80.8452C257.665 80.8452 256.951 80.6333 256.309 80.2803C256.38 79.9978 256.023 79.7154 255.524 79.3624ZM262.948 73.7137C263.162 73.5724 263.305 73.3606 263.519 73.2194C263.733 73.0076 263.948 72.7957 264.233 72.5839C265.233 71.7366 266.089 71.0305 266.66 70.4657C267.232 69.9008 267.803 69.1947 268.374 68.418L269.587 66.4409C269.23 65.6642 268.873 65.0994 268.588 64.8169C268.302 64.5345 268.017 64.3933 267.731 64.3933C267.017 64.3933 266.089 65.0288 264.947 66.2997C263.876 67.5707 262.52 69.5477 260.949 72.1603C260.521 72.7957 260.235 73.5018 259.95 74.2079C259.664 74.914 259.521 75.4083 259.45 75.6201C260.093 75.7613 261.235 75.1258 262.948 73.7137Z" fill="#F39325"/>
<path d="M295.145 76.1863C295.145 75.4802 295.217 74.8447 295.288 74.1386C295.36 73.3619 295.431 72.797 295.431 72.444V72.1616V71.5967C295.288 70.8906 295.074 70.5376 294.717 70.5376C294.075 70.5376 292.861 71.173 291.076 72.444C289.292 73.715 287.435 75.1977 285.508 76.963C284.937 77.5984 284.437 78.1633 284.009 78.7282C283.652 79.2224 283.366 79.5049 283.152 79.5755C282.938 79.7167 282.652 79.7167 282.295 79.7167C281.796 79.6461 281.225 79.2931 280.511 78.587C279.868 77.8809 279.44 77.2454 279.154 76.7511C279.154 75.7626 279.368 74.7741 279.725 73.8562C280.082 72.9383 280.653 71.7379 281.367 70.3257C281.724 69.2666 282.153 68.1369 282.652 67.0777C283.223 65.8068 283.58 64.8182 283.866 64.1828C284.08 63.4767 284.294 62.8412 284.366 62.0645C284.366 61.9939 284.366 61.9939 284.294 61.9939C284.294 61.8527 284.366 61.7114 284.437 61.6408C284.58 61.4996 284.651 61.4996 284.794 61.4996C284.865 61.3584 285.08 61.3584 285.437 61.3584C286.365 61.3584 287.221 61.6408 287.935 62.1351C288.649 62.6294 289.006 63.4061 289.006 64.4652C289.006 65.0301 288.935 65.5243 288.72 66.0186C288.506 66.5128 288.149 67.2895 287.578 68.4193L287.007 69.6196C286.864 69.8315 286.722 70.1845 286.507 70.6082C286.293 71.0318 286.15 71.3143 286.15 71.3849C287.078 70.7494 288.149 69.9727 289.434 68.9135C291.29 67.4308 292.79 66.301 293.932 65.5243C295.074 64.7476 296.002 64.324 296.502 64.324C297.002 64.324 297.644 64.6064 298.501 65.1007C299.357 65.5949 299.857 66.0892 300 66.5128C300 66.7953 300 67.1483 299.929 67.6426C299.857 68.1369 299.857 68.6311 299.786 68.9842L299.857 70.6788C299.929 70.9612 299.929 71.3849 299.929 72.0203C299.929 73.1501 299.857 73.9974 299.714 74.4917C299.786 74.5623 299.786 74.5623 299.857 74.6329C299.929 74.7035 299.929 74.7741 299.929 74.7741L299.857 74.9153C299.929 75.2683 300.071 75.8332 300.428 76.6805C300.785 77.4572 300.999 77.9515 300.999 78.0221C300.999 78.4457 300.714 78.8694 300.214 79.3637C299.714 79.8579 299.143 80.1404 298.715 80.211C296.288 79.9991 295.145 78.7282 295.145 76.1863Z" fill="#F39325"/>
</svg>
