<svg width="106" height="120" viewBox="0 0 106 120" fill="none" xmlns="http://www.w3.org/2000/svg">
<path d="M57.6364 109.608H10.1353V-0.256836H57.6364L80.9511 53.6676L57.6364 109.608Z" fill="#2D2F7B"/>
<path d="M57.6365 -0.256836H105.138V109.608H57.6365V-0.256836Z" fill="#2D2F7B"/>
<path d="M47.501 9.87793H95.0021V119.743H47.501L24.1863 65.8182L47.501 9.87793Z" fill="#D7E8FF"/>
<path d="M0 9.87793H47.5011V119.743H16.4671L11.6457 109.078L0 103.275V9.87793Z" fill="white"/>
<path d="M16.4671 119.743V103.275H0L16.4671 119.743Z" fill="#D7E8FF"/>
<path d="M13.8662 32.9092H45.5188V38.1795H13.8662V32.9092Z" fill="#555A66"/>
<path d="M47.5011 50.4393H13.8662V45.1689H47.5011L51.4208 47.8043L47.5011 50.4393Z" fill="#555A66"/>
<path d="M47.501 45.1689H71.2958V50.4393H47.501V45.1689Z" fill="#333940"/>
<path d="M47.5406 74.9618H13.8662V69.6914H47.5406L52.1374 72.3268L47.5406 74.9618Z" fill="#555A66"/>
<path d="M47.5405 69.6904H81.2149V74.9608H47.5405V69.6904Z" fill="#333940"/>
<path d="M47.5406 87.2225H13.8662V81.9521H47.5406L52.1374 84.5875L47.5406 87.2225Z" fill="#555A66"/>
<path d="M47.5405 81.9521H81.2149V87.2225H47.5405V81.9521Z" fill="#333940"/>
<path d="M47.5406 99.4833H13.8662V94.2129H47.5406L52.1374 96.8479L47.5406 99.4833Z" fill="#555A66"/>
<path d="M47.5405 94.2129H81.2149V99.4833H47.5405V94.2129Z" fill="#333940"/>
<path d="M47.5011 62.701H13.8662V57.4307H47.5011L50.9597 60.066L47.5011 62.701Z" fill="#555A66"/>
<path d="M47.501 57.4307H64.5393V62.701H47.501V57.4307Z" fill="#333940"/>
</svg>
