<svg width="329" height="358" viewBox="0 0 329 358" fill="none" xmlns="http://www.w3.org/2000/svg">
<g opacity="0.1">
<path d="M103.422 300.105C104.488 295.901 106.352 293.273 108.216 291.434C104.754 291.959 103.156 294.061 101.292 300.368C99.1612 307.726 94.1009 327.697 93.0356 332.165C91.9702 336.632 93.3019 338.997 94.6336 340.836C94.8999 341.362 95.6989 341.362 96.7642 340.836C95.4325 338.209 94.8999 335.844 94.8999 333.741C94.8999 330.325 101.026 309.828 103.422 300.105Z" fill="white"/>
<path d="M125.26 297.733L120.999 289.587C120.999 289.587 115.14 291.164 110.346 291.164C109.547 291.164 108.748 291.164 108.215 291.164C106.351 293.003 104.486 295.631 103.421 299.835C101.024 309.558 94.8984 330.055 94.8984 333.208C94.8984 335.311 95.1648 337.676 96.7628 340.304C98.8934 339.252 101.823 336.362 104.22 333.208C107.682 328.478 119.401 314.814 122.597 309.558C125.26 304.303 125.26 297.733 125.26 297.733Z" fill="white"/>
<path d="M26.4455 348.186C25.3801 349.499 18.1892 362.376 16.5912 365.266C16.3249 365.792 16.0585 366.317 16.0585 366.843C15.7922 368.42 16.0585 371.047 19.2545 373.15C21.1188 374.464 23.7822 373.938 25.1138 372.099L38.1641 355.018L26.4455 348.186Z" fill="white"/>
<path d="M128.195 280.388C127.13 281.439 117.808 293.001 115.678 295.629C115.411 296.155 115.145 296.417 114.879 296.943C114.346 298.257 114.08 301.147 116.743 303.775C118.341 305.352 121.004 305.352 122.602 303.775L136.718 287.746L128.195 280.388Z" fill="white"/>
<path d="M146.03 219.161C146.03 215.482 167.071 216.796 185.447 214.693C195.035 213.642 200.895 224.942 193.97 232.037L138.307 288.535C137.241 289.849 135.377 290.111 133.779 289.586C131.648 288.798 128.452 287.484 125.523 285.381C123.925 284.067 123.658 281.702 124.724 280.126L150.292 244.125L126.854 250.694L38.4323 358.697C37.1007 360.537 34.4374 360.799 32.3067 359.748C29.6434 358.172 26.1811 355.807 24.0504 352.916C22.7188 351.602 22.7188 349.5 23.7841 347.923C33.6384 333.207 86.6384 253.059 89.0354 244.65C91.6987 235.453 102.086 218.635 111.407 218.11C121.261 217.584 146.03 219.161 146.03 219.161Z" fill="white"/>
<path d="M163.617 243.861L157.758 237.028H173.471V243.861H163.617Z" fill="white"/>
<path d="M157.756 237.029L163.615 243.862H151.098V237.029H157.756Z" fill="white"/>
<path d="M135.119 243.071L134.32 242.546H135.119V243.071Z" fill="white"/>
<path d="M134.316 242.546L135.115 243.071V249.378H128.457V242.546H134.316Z" fill="white"/>
<path d="M262.15 53.6072L306.894 19.183C307.16 18.9202 307.426 18.6574 307.426 18.3946L312.22 3.15337C312.22 2.6278 312.753 2.36502 313.019 2.10224L316.215 0.26278C316.482 0 316.748 0 317.014 0L326.602 0.788341C327.401 0.788341 327.934 1.3139 328.2 2.10224L328.999 6.56951C328.999 7.09507 328.999 7.35785 328.733 7.88341L327.401 9.72288C327.135 10.2484 326.869 11.0368 327.401 11.5623C327.668 12.0879 327.668 12.8762 327.135 13.4018C325.537 15.2413 321.542 18.9202 315.15 21.8108C314.884 21.8108 314.617 22.0736 314.617 22.3363L274.401 65.4323C273.869 66.2207 272.537 66.2207 272.004 65.4323L262.15 55.9722C261.351 55.4467 261.351 54.1328 262.15 53.6072Z" fill="white"/>
<path d="M15.2783 236.768L86.1225 247.542L71.4742 340.829L26.7305 333.996L4.625 302.988L15.2783 236.768Z" fill="white"/>
<path d="M4.07812 302.991L30.9776 307.196L26.7163 333.999" fill="white"/>
<path d="M34.6362 320.19L34.2266 322.786L63.1744 327.232L63.584 324.635L34.6362 320.19Z" fill="white"/>
<path d="M35.9953 310.48L35.5859 313.076L64.5338 317.519L64.9431 314.922L35.9953 310.48Z" fill="white"/>
<path d="M14.2846 295.957L13.875 298.554L66.2443 306.596L66.6539 304L14.2846 295.957Z" fill="white"/>
<path d="M15.9484 285.082L15.5391 287.679L67.9084 295.716L68.3177 293.12L15.9484 285.082Z" fill="white"/>
<path d="M17.6635 273.962L17.2539 276.559L69.6232 284.601L70.0328 282.005L17.6635 273.962Z" fill="white"/>
<path d="M19.3354 263.098L18.9258 265.694L71.2951 273.737L71.7047 271.141L19.3354 263.098Z" fill="white"/>
<path d="M21.3078 252.001L20.8984 254.598L73.2677 262.635L73.6771 260.039L21.3078 252.001Z" fill="white"/>
<path d="M22.1875 225.99L95.4287 209.96L117.268 306.138L70.9262 316.386L37.6347 294.575L22.1875 225.99Z" fill="white"/>
<path d="M37.3711 294.835L64.8033 288.791L70.9289 316.383" fill="white"/>
<path d="M103.299 293.396L73.4062 299.975L73.9861 302.539L103.879 295.961L103.299 293.396Z" fill="white"/>
<path d="M101.198 283.645L71.3047 290.224L71.8845 292.788L101.778 286.21L101.198 283.645Z" fill="white"/>
<path d="M98.5049 272.324L44.4375 284.224L45.0173 286.788L99.0847 274.889L98.5049 272.324Z" fill="white"/>
<path d="M95.7901 260.795L41.7227 272.694L42.3025 275.259L96.3699 263.36L95.7901 260.795Z" fill="white"/>
<path d="M93.1377 249.512L39.0703 261.411L39.6501 263.976L93.7175 252.077L93.1377 249.512Z" fill="white"/>
<path d="M90.7432 238.181L36.6758 250.08L37.2556 252.645L91.3231 240.746L90.7432 238.181Z" fill="white"/>
<path d="M88.0831 226.898L34.0156 238.797L34.5954 241.362L88.6629 229.463L88.0831 226.898Z" fill="white"/>
<path d="M196.375 106.427L260.295 53.6077C261.626 52.5566 263.491 52.5566 264.556 53.6077C267.219 55.9727 271.747 60.1772 273.878 64.1189C274.676 65.4328 274.41 67.2723 273.078 68.3234L207.028 130.602L196.375 106.427Z" fill="white"/>
<path d="M207.026 105.377C207.026 105.377 218.212 116.414 216.081 135.86C215.548 141.641 213.151 146.897 209.689 151.364L153.759 222.577C152.428 224.154 150.563 225.205 148.433 225.468C140.176 226.519 118.337 228.359 102.89 223.366C101.558 222.84 101.026 221.526 101.825 220.475L152.694 132.181L183.588 96.7055C183.588 96.7055 198.237 91.7127 207.026 105.377Z" fill="white"/>
<path d="M136.97 198.399C136.704 198.399 136.437 198.399 136.437 198.136C135.905 197.873 135.905 197.085 136.171 196.822C136.704 196.296 184.91 132.178 188.106 124.295C191.035 117.199 184.111 111.681 183.844 111.418C183.312 111.156 183.312 110.367 183.578 109.842C183.844 109.316 184.643 109.316 185.176 109.579C185.176 109.579 193.699 116.411 190.236 125.083C186.774 133.229 139.9 195.508 138.035 198.136C137.769 198.399 137.503 198.399 136.97 198.399Z" fill="white"/>
<path d="M135.378 199.191L111.94 228.096C111.94 228.096 108.478 246.754 105.548 249.382C102.619 252.009 94.0962 253.586 91.6992 249.382C89.8349 245.703 89.0359 241.761 88.7695 240.973L96.4932 244.126C96.4932 244.126 96.2268 243.075 96.2268 241.498C96.2268 241.235 96.2268 241.235 96.2268 240.973C95.9605 239.659 95.6942 238.082 95.6942 235.98C95.4278 232.564 95.9605 228.359 98.6238 226.52C103.684 222.578 105.016 222.053 105.016 222.053L118.599 192.884C118.066 192.358 127.654 198.402 135.378 199.191Z" fill="white"/>
<path d="M30.9799 189.459C29.6482 189.721 28.8492 191.035 29.6482 192.349C32.3115 197.868 40.3015 209.693 56.814 206.014C77.8542 201.284 142.307 153.195 156.688 140.056C171.337 126.917 190.513 110.625 200.1 112.99C209.422 115.355 203.829 109.836 197.437 105.632C192.377 102.216 189.714 97.7484 191.045 96.4345C191.045 96.4345 191.312 96.1717 191.045 95.9089C191.045 95.6461 190.779 95.6461 190.779 95.6461C186.518 95.1206 176.663 95.1206 163.613 102.216C146.035 111.676 60.5427 144.26 32.0452 134.8C30.9799 134.538 29.9145 135.063 29.6482 136.114C28.5829 142.421 26.7186 162.655 43.4975 185.254C43.2311 185.254 36.8392 188.408 30.9799 189.459Z" fill="white"/>
<path d="M209.684 71.9979L192.905 95.3853C191.84 96.962 191.84 99.0643 193.172 100.378C195.302 102.743 199.297 106.159 203.292 106.948C204.624 107.21 205.955 106.685 206.488 105.634L215.277 92.232C215.543 91.9692 217.408 70.684 209.684 71.9979Z" fill="white"/>
<path d="M214.479 52.555C214.745 52.8178 228.861 79.8842 228.861 79.8842L213.147 87.5048L196.102 63.8546C195.835 63.8546 208.619 47.2994 214.479 52.555Z" fill="white"/>
<path d="M202.759 64.3785C202.492 65.1668 202.492 65.9552 203.025 66.4807L211.015 79.357C211.015 79.6198 211.281 79.6198 211.548 79.8825C212.613 80.6709 215.809 83.2987 218.206 79.8825C220.337 76.992 222.201 74.3642 224.332 73.313C225.663 72.7875 226.995 73.313 227.794 74.3641C229.126 76.992 231.523 81.9848 233.121 86.9776C233.387 88.2915 232.854 89.6054 231.789 90.131C228.593 91.4449 222.201 93.8099 216.608 94.5982C215.809 94.5982 214.744 94.3355 214.211 93.5471C211.814 90.3938 204.889 81.1964 202.759 78.8314C200.628 76.7292 196.633 77.5175 194.769 78.0431C193.97 78.3059 193.437 78.0431 192.638 77.7803C190.774 76.7292 187.578 74.1014 190.508 69.3713C191.306 68.3202 190.774 66.7435 189.708 65.9552C187.578 64.6413 185.447 62.2763 187.578 58.0718C189.709 54.1301 193.437 53.6045 196.1 53.8673C197.166 54.1301 198.497 53.3417 198.764 52.2906C199.03 51.765 199.296 51.5023 200.095 51.2395C201.427 50.9767 202.226 49.6628 201.96 48.3489C201.427 45.9839 201.96 43.0933 205.688 40.991C212.613 37.3121 218.472 43.3561 220.07 48.3489C221.668 53.3417 213.945 57.0206 209.151 57.5462C205.422 58.5973 203.558 62.539 202.759 64.3785Z" fill="white"/>
<path d="M205.425 83.5642C205.425 83.5642 202.495 74.8925 198.5 75.1553C194.505 75.418 191.575 79.3598 196.369 83.5642C202.229 88.8199 205.425 83.5642 205.425 83.5642Z" fill="white"/>
<path d="M326.601 8.6709H317.812V13.4009H326.601V8.6709Z" fill="white"/>
</g>
</svg>
