<svg width="450" height="450" viewBox="0 0 450 450" fill="none" xmlns="http://www.w3.org/2000/svg">
<path d="M225 450C349.264 450 450 349.264 450 225C450 100.736 349.264 0 225 0C100.736 0 0 100.736 0 225C0 349.264 100.736 450 225 450Z" fill="#E0E0E0"/>
<path d="M365.469 28.4219L317.725 149.357L297.737 141.467L290.119 138.452L337.849 17.5164C340.864 9.89894 349.487 6.1504 357.118 9.16593C358.72 9.80402 360.16 10.6733 361.382 11.7596C366.012 15.7516 367.846 22.3926 365.469 28.4219Z" fill="#A2673C"/>
<path d="M365.468 28.4221L317.724 149.357L297.736 141.467L345.29 20.9663C347.897 14.3939 354.674 10.7007 361.382 11.7598C366.012 15.7518 367.846 22.3928 365.468 28.4221Z" fill="#DE9056"/>
<path d="M317.729 149.35L290.115 138.45L258.332 189.564L281.875 239.219L317.729 149.35Z" fill="#623D91"/>
<path d="M262.702 418.7H155.152C143.693 418.7 134.407 409.414 134.407 397.955V243.608H212.46L262.702 418.7Z" fill="#DE9056"/>
<path d="M148.996 397.961V243.612H134.405V397.96C134.405 409.416 143.693 418.704 155.149 418.704H169.74C158.283 418.704 148.996 409.416 148.996 397.961Z" fill="#A2673C"/>
<path d="M259.301 273.839H134.403V283.74H259.301V273.839Z" fill="#4B2976"/>
<path d="M281.875 188.423V273.842H134.407V243.607C134.407 213.78 158.059 189.469 187.638 188.423C188.295 188.391 188.967 188.376 189.639 188.376L281.875 188.423Z" fill="#623D91"/>
<path d="M281.875 220.564V382.227H164.094V220.564C164.094 205.791 174.052 193.331 187.637 189.563C190.389 188.782 193.28 188.375 196.283 188.375H249.686C252.688 188.375 255.58 188.782 258.332 189.563C271.916 193.331 281.875 205.791 281.875 220.564Z" fill="#623D91"/>
<path d="M290.115 138.45L265.062 177.838C260.874 184.423 253.611 188.408 245.808 188.401C225.992 188.384 189.638 188.376 189.638 188.376C188.966 188.376 188.293 188.392 187.637 188.423V191.02C187.637 210.504 203.11 226.838 222.593 227.049C238.753 227.225 252.471 216.501 256.857 201.789C265.404 197.805 272.378 191.085 276.675 182.691L297.555 141.901L290.115 138.45Z" fill="#4B2976"/>
<path d="M208.742 188.423C209.399 188.391 210.071 188.376 210.744 188.376H189.638C188.966 188.376 188.294 188.392 187.637 188.423C158.059 189.47 134.406 213.78 134.406 243.607V273.842H155.511V243.607C155.512 213.779 179.165 189.47 208.742 188.423Z" fill="#4B2976"/>
<path d="M248.948 163.814V191.706C248.948 206.045 237.324 217.669 222.984 217.669C208.645 217.669 197.021 206.045 197.021 191.706V163.814H248.948Z" fill="#A2673C"/>
<path d="M166.932 134.233C175.795 134.233 182.98 127.048 182.98 118.185C182.98 109.322 175.795 102.137 166.932 102.137C158.069 102.137 150.884 109.322 150.884 118.185C150.884 127.048 158.069 134.233 166.932 134.233Z" fill="#A2673C"/>
<path d="M279.037 134.233C287.9 134.233 295.085 127.048 295.085 118.185C295.085 109.322 287.9 102.137 279.037 102.137C270.174 102.137 262.989 109.322 262.989 118.185C262.989 127.048 270.174 134.233 279.037 134.233Z" fill="#A2673C"/>
<path d="M280.794 72.3815L165.175 66.2266V130.72C165.175 162.648 191.057 188.53 222.985 188.53C254.913 188.53 280.795 162.648 280.795 130.72V72.3815H280.794Z" fill="#DE9056"/>
<path d="M222.984 135.957C219.754 135.957 217.137 133.339 217.137 130.11V84.252H228.832V130.109C228.831 133.339 226.213 135.957 222.984 135.957Z" fill="#A2673C"/>
<path d="M188.242 130.72V67.4544L165.173 66.2266V130.72C165.173 162.648 191.055 188.53 222.983 188.53C226.933 188.53 230.789 188.132 234.517 187.377C208.117 182.029 188.242 158.696 188.242 130.72Z" fill="#A2673C"/>
<path d="M287.828 70.2215V99.3432C287.828 101.712 286.869 103.855 285.319 105.404C283.724 107.001 281.502 107.969 279.061 107.913C274.374 107.808 270.684 103.857 270.684 99.1709V94.7684C270.684 91.2801 269.271 88.1266 266.985 85.8414C264.699 83.5554 261.545 82.1421 258.058 82.1421C252.618 82.1421 247.324 83.9676 243.084 87.3795C237.585 91.8021 230.594 94.452 222.983 94.452C215.374 94.452 208.383 91.8021 202.885 87.3795C202.158 86.7933 201.399 86.2571 200.614 85.7676C200.605 85.7588 200.594 85.7526 200.585 85.7474C199.09 84.8148 197.502 84.059 195.849 83.4815C193.31 82.5991 190.629 82.1412 187.906 82.1412C180.936 82.1412 175.286 87.8014 175.286 94.7737V99.3467C175.286 101.713 174.327 103.858 172.774 105.408C171.223 106.958 169.081 107.917 166.713 107.917C161.98 107.917 158.143 104.08 158.143 99.344V70.2215C158.143 44.7218 178.811 24.0508 204.311 24.0508H241.657C267.156 24.0508 287.828 44.7218 287.828 70.2215Z" fill="#5C5E70"/>
<path d="M234.335 24.0498C208.832 24.0498 188.17 44.7234 188.17 70.2249V82.1552C188.077 82.1429 187.997 82.1429 187.905 82.1429C180.929 82.1429 175.281 87.8021 175.281 94.778V99.3404C175.281 101.708 174.322 103.857 172.774 105.404C171.215 106.952 169.079 107.911 166.711 107.911C161.976 107.911 158.141 104.077 158.141 99.3404V70.2249C158.141 44.7226 178.803 24.0498 204.304 24.0498C204.304 24.0498 234.335 24.0498 234.335 24.0498Z" fill="#474A59"/>
<path d="M281.877 382.224V442.744C265.273 447.079 247.925 449.55 230.053 449.944V425.782C230.053 423.826 229.254 422.063 227.987 420.777C226.701 419.501 224.938 418.702 222.982 418.702C219.078 418.702 215.92 421.87 215.92 425.782V449.816C198.029 449.108 180.673 446.307 164.096 441.661V382.224H281.877Z" fill="#5C5E70"/>
<path d="M243.343 431.908V449.265C238.953 449.624 234.518 449.853 230.054 449.945V425.783C230.054 423.826 229.255 422.063 227.988 420.777C226.702 419.501 224.939 418.702 222.982 418.702H230.127C237.429 418.702 243.343 424.625 243.343 431.908Z" fill="#474A59"/>
<path d="M177.349 382.224V444.939C172.876 443.984 168.458 442.881 164.096 441.661C164.088 441.661 164.069 441.652 164.06 441.652V382.224H177.349V382.224Z" fill="#474A59"/>
<path d="M164.062 251.689V382.226H178.132V265.759C178.133 257.989 171.834 251.689 164.062 251.689Z" fill="#4B2976"/>
<path d="M244.687 142.103C244.687 144.244 244.373 146.312 243.745 148.252C242.84 151.243 241.252 153.958 239.165 156.192C235.379 160.31 229.932 162.877 223.911 162.877C217.891 162.877 212.443 160.311 208.658 156.192C206.571 153.958 204.983 151.243 204.078 148.252C203.45 146.313 203.137 144.245 203.137 142.103H244.687Z" fill="white"/>
<path d="M258.289 119.496C258.289 113.684 253.578 108.973 247.765 108.973C241.952 108.973 237.242 113.684 237.242 119.496" fill="#5C5E70"/>
<path d="M208.725 119.496C208.725 113.684 204.014 108.973 198.202 108.973C192.39 108.973 187.679 113.684 187.679 119.496" fill="#5C5E70"/>
<path d="M373.141 23.1416C373.141 35.935 362.776 46.2999 349.982 46.2999C348.635 46.2999 347.303 46.183 346.023 45.951C335.125 44.0877 326.84 34.5876 326.84 23.1416C326.84 10.3641 337.205 0 349.981 0C357.485 0 364.156 3.56045 368.366 9.10019C371.361 12.9937 373.141 17.8523 373.141 23.1416Z" fill="#A2673C"/>
<path d="M373.141 23.1413C373.141 35.9347 362.776 46.2996 349.983 46.2996C348.635 46.2996 347.304 46.1827 346.023 45.9507C343.029 42.058 341.249 37.1827 341.249 31.8926C341.249 19.0992 351.614 8.75098 364.391 8.75098C365.756 8.75098 367.086 8.86787 368.367 9.0999C371.361 12.9935 373.141 17.8521 373.141 23.1413Z" fill="#DE9056"/>
<path d="M286.533 145.349L314.686 156.978L317.728 149.35L290.115 138.45" fill="#4B2976"/>
<path d="M73.4669 170.731L68.2164 172.133C67.0852 172.436 66.1755 173.275 65.7827 174.378L63.9616 179.498C62.9737 182.276 59.2295 182.715 57.6255 180.24L54.6689 175.681C54.0317 174.698 52.9524 174.092 51.7826 174.06L46.35 173.911C43.4031 173.83 41.8281 170.405 43.6852 168.114L47.1077 163.894C47.8451 162.985 48.0876 161.77 47.7572 160.647L46.2209 155.434C45.3868 152.607 48.1588 150.05 50.9098 151.109L55.982 153.06C57.0745 153.481 58.3049 153.337 59.27 152.674L63.7524 149.603C66.1843 147.936 69.4723 149.782 69.315 152.726L69.0267 158.153C68.9643 159.322 69.4811 160.447 70.4101 161.16L74.7176 164.475C77.0538 166.273 76.3146 169.97 73.4669 170.731Z" fill="white"/>
<path d="M398.483 207.084L393.641 204.617C392.598 204.085 391.359 204.101 390.331 204.659L385.553 207.249C382.962 208.654 379.884 206.477 380.345 203.565L381.196 198.199C381.379 197.042 380.982 195.87 380.132 195.064L376.192 191.32C374.056 189.29 375.174 185.69 378.086 185.229L383.454 184.379C384.61 184.196 385.603 183.455 386.107 182.399L388.45 177.495C389.721 174.835 393.491 174.787 394.829 177.414L397.296 182.256C397.828 183.3 398.838 184.014 399.999 184.168L405.386 184.881C408.309 185.267 409.519 188.838 407.435 190.922L403.592 194.765C402.765 195.592 402.397 196.775 402.609 197.926L403.596 203.27C404.131 206.168 401.11 208.423 398.483 207.084Z" fill="white"/>
<path d="M352.043 325.611L346.93 321.708C345.828 320.867 344.383 320.622 343.066 321.053L336.951 323.053C333.635 324.138 330.513 320.948 331.67 317.656L333.801 311.586C334.26 310.278 334.048 308.828 333.23 307.708L329.439 302.511C327.382 299.692 329.452 295.738 332.94 295.82L339.371 295.971C340.757 296.005 342.069 295.354 342.882 294.23L346.653 289.018C348.699 286.191 353.099 286.936 354.099 290.281L355.942 296.443C356.338 297.771 357.364 298.818 358.683 299.245L364.805 301.221C368.126 302.293 368.777 306.708 365.905 308.693L360.613 312.35C359.473 313.138 358.793 314.436 358.796 315.822L358.809 322.256C358.815 325.745 354.818 327.728 352.043 325.611Z" fill="white"/>
<path d="M106.331 71.1374L103.286 68.8127C102.63 68.3126 101.77 68.1658 100.986 68.4225L97.3442 69.6134C95.3684 70.2603 93.5104 68.3601 94.1986 66.3992L95.4677 62.7843C95.7411 62.0056 95.6136 61.1425 95.1276 60.4754L92.8706 57.3808C91.6454 55.702 92.8776 53.3475 94.9553 53.3958L98.7847 53.4854C99.6091 53.5048 100.392 53.1172 100.876 52.4483L103.121 49.344C104.34 47.6609 106.96 48.1039 107.555 50.0955L108.653 53.7658C108.89 54.5568 109.499 55.18 110.285 55.434L113.931 56.6108C115.909 57.2489 116.296 59.8786 114.587 61.0607L111.435 63.2396C110.756 63.7089 110.351 64.4823 110.353 65.3076L110.36 69.1379C110.365 71.2174 107.983 72.3978 106.331 71.1374Z" fill="white"/>
<path d="M382.363 114.053L377.113 115.456C375.982 115.758 375.072 116.597 374.679 117.7L372.858 122.82C371.87 125.598 368.126 126.037 366.522 123.563L363.565 119.003C362.928 118.02 361.849 117.414 360.679 117.382L355.247 117.233C352.3 117.152 350.725 113.727 352.582 111.436L356.004 107.216C356.742 106.307 356.984 105.092 356.654 103.969L355.117 98.7564C354.283 95.929 357.055 93.3723 359.806 94.4313L364.878 96.3825C365.971 96.8035 367.201 96.6594 368.166 95.9967L372.649 92.9249C375.081 91.2585 378.369 93.1042 378.211 96.0485L377.923 101.475C377.861 102.644 378.378 103.769 379.307 104.483L383.614 107.797C385.952 109.595 385.213 113.292 382.363 114.053Z" fill="white"/>
<path d="M83.0288 290.883L78.5762 292.072C77.6165 292.329 76.8448 293.04 76.5126 293.976L74.9674 298.318C74.1298 300.673 70.9544 301.046 69.5938 298.948L67.0863 295.081C66.5466 294.248 65.6308 293.734 64.6377 293.706L60.0304 293.58C57.5308 293.511 56.1958 290.606 57.7708 288.664L60.6738 285.084C61.2996 284.313 61.5052 283.283 61.2249 282.331L59.9215 277.91C59.2139 275.511 61.5641 273.344 63.8976 274.241L68.199 275.896C69.1254 276.252 70.1686 276.13 70.9869 275.569L74.789 272.964C76.8518 271.551 79.6397 273.115 79.507 275.612L79.2627 280.214C79.2099 281.206 79.6485 282.159 80.4351 282.766L84.0879 285.576C86.0715 287.102 85.4449 290.237 83.0288 290.883Z" fill="white"/>
<path d="M118.702 165.191C116.443 165.191 114.611 163.359 114.611 161.1V148.979C114.611 146.72 116.443 144.889 118.702 144.889C120.961 144.889 122.792 146.72 122.792 148.979V161.1C122.792 163.359 120.961 165.191 118.702 165.191Z" fill="white"/>
<path d="M118.702 197.696C116.443 197.696 114.611 195.864 114.611 193.605V181.485C114.611 179.226 116.443 177.395 118.702 177.395C120.961 177.395 122.792 179.226 122.792 181.485V193.606C122.792 195.865 120.961 197.696 118.702 197.696Z" fill="white"/>
<path d="M141.014 175.383H128.893C126.634 175.383 124.803 173.551 124.803 171.293C124.803 169.034 126.634 167.202 128.893 167.202H141.014C143.273 167.202 145.105 169.034 145.105 171.293C145.105 173.551 143.273 175.383 141.014 175.383Z" fill="white"/>
<path d="M108.51 175.383H96.3893C94.1305 175.383 92.2988 173.551 92.2988 171.293C92.2988 169.034 94.1305 167.202 96.3893 167.202H108.51C110.769 167.202 112.601 169.034 112.601 171.293C112.601 173.551 110.769 175.383 108.51 175.383Z" fill="white"/>
<path d="M337.872 229.748C335.613 229.748 333.781 227.916 333.781 225.658V213.537C333.781 211.278 335.613 209.446 337.872 209.446C340.13 209.446 341.962 211.278 341.962 213.537V225.658C341.962 227.917 340.131 229.748 337.872 229.748Z" fill="white"/>
<path d="M337.872 262.253C335.613 262.253 333.781 260.422 333.781 258.163V246.042C333.781 243.783 335.613 241.951 337.872 241.951C340.13 241.951 341.962 243.782 341.962 246.042V258.163C341.962 260.422 340.131 262.253 337.872 262.253Z" fill="white"/>
<path d="M360.185 239.941H348.064C345.805 239.941 343.974 238.109 343.974 235.85C343.974 233.591 345.805 231.76 348.064 231.76H360.185C362.444 231.76 364.275 233.591 364.275 235.85C364.275 238.109 362.444 239.941 360.185 239.941Z" fill="white"/>
<path d="M327.68 239.941H315.559C313.3 239.941 311.469 238.109 311.469 235.85C311.469 233.591 313.3 231.76 315.559 231.76H327.68C329.939 231.76 331.771 233.591 331.771 235.85C331.771 238.109 329.939 239.941 327.68 239.941Z" fill="white"/>
</svg>
